%TF.GenerationSoftware,KiCad,Pcbnew,8.0.2*%
%TF.CreationDate,2024-05-12T15:56:23+02:00*%
%TF.ProjectId,LimbusOne,4c696d62-7573-44f6-9e65-2e6b69636164,v.0.1*%
%TF.SameCoordinates,Original*%
%TF.FileFunction,Drillmap*%
%TF.FilePolarity,Positive*%
%FSLAX45Y45*%
G04 Gerber Fmt 4.5, Leading zero omitted, Abs format (unit mm)*
G04 Created by KiCad (PCBNEW 8.0.2) date 2024-05-12 15:56:23*
%MOMM*%
%LPD*%
G01*
G04 APERTURE LIST*
%ADD10C,0.050000*%
%ADD11C,0.200000*%
%ADD12C,0.100000*%
%ADD13C,0.110000*%
G04 APERTURE END LIST*
D10*
X2926700Y-3213300D02*
X9376700Y-3213300D01*
X9376700Y-7563300D01*
X2926700Y-7563300D01*
X2926700Y-3213300D01*
D11*
D12*
X3579100Y-7312900D02*
X3609100Y-7342900D01*
X3609100Y-7312900D02*
X3579100Y-7342900D01*
X3642600Y-6741400D02*
X3672600Y-6771400D01*
X3672600Y-6741400D02*
X3642600Y-6771400D01*
X3797540Y-6583920D02*
X3827540Y-6613920D01*
X3827540Y-6583920D02*
X3797540Y-6613920D01*
X4102340Y-5468860D02*
X4132340Y-5498860D01*
X4132340Y-5468860D02*
X4102340Y-5498860D01*
X4211700Y-3823300D02*
X4241700Y-3853300D01*
X4241700Y-3823300D02*
X4211700Y-3853300D01*
X4541700Y-4348300D02*
X4571700Y-4378300D01*
X4571700Y-4348300D02*
X4541700Y-4378300D01*
X4671300Y-7312900D02*
X4701300Y-7342900D01*
X4701300Y-7312900D02*
X4671300Y-7342900D01*
X4691700Y-3563300D02*
X4721700Y-3593300D01*
X4721700Y-3563300D02*
X4691700Y-3593300D01*
X4781700Y-4348300D02*
X4811700Y-4378300D01*
X4811700Y-4348300D02*
X4781700Y-4378300D01*
X4849100Y-6804900D02*
X4879100Y-6834900D01*
X4879100Y-6804900D02*
X4849100Y-6834900D01*
X4991340Y-6586460D02*
X5021340Y-6616460D01*
X5021340Y-6586460D02*
X4991340Y-6616460D01*
X5573000Y-4938000D02*
X5603000Y-4968000D01*
X5603000Y-4938000D02*
X5573000Y-4968000D01*
X5573000Y-5477300D02*
X5603000Y-5507300D01*
X5603000Y-5477300D02*
X5573000Y-5507300D01*
X5936700Y-4698300D02*
X5966700Y-4728300D01*
X5966700Y-4698300D02*
X5936700Y-4728300D01*
X5966468Y-5712885D02*
X5996468Y-5742885D01*
X5996468Y-5712885D02*
X5966468Y-5742885D01*
X6029050Y-5663050D02*
X6059050Y-5693050D01*
X6059050Y-5663050D02*
X6029050Y-5693050D01*
X6031700Y-6373300D02*
X6061700Y-6403300D01*
X6061700Y-6373300D02*
X6031700Y-6403300D01*
X6089050Y-5717886D02*
X6119050Y-5747886D01*
X6119050Y-5717886D02*
X6089050Y-5747886D01*
X6186700Y-4698300D02*
X6216700Y-4728300D01*
X6216700Y-4698300D02*
X6186700Y-4728300D01*
X6274040Y-5788900D02*
X6304040Y-5818900D01*
X6304040Y-5788900D02*
X6274040Y-5818900D01*
X6423900Y-5473940D02*
X6453900Y-5503940D01*
X6453900Y-5473940D02*
X6423900Y-5503940D01*
X6423900Y-5637300D02*
X6453900Y-5667300D01*
X6453900Y-5637300D02*
X6423900Y-5667300D01*
X6486188Y-5080618D02*
X6516188Y-5110618D01*
X6516188Y-5080618D02*
X6486188Y-5110618D01*
X6550200Y-5943840D02*
X6580200Y-5973840D01*
X6580200Y-5943840D02*
X6550200Y-5973840D01*
X6594080Y-5637300D02*
X6624080Y-5667300D01*
X6624080Y-5637300D02*
X6594080Y-5667300D01*
X6683916Y-6020884D02*
X6713916Y-6050884D01*
X6713916Y-6020884D02*
X6683916Y-6050884D01*
X6706180Y-5257254D02*
X6736180Y-5287254D01*
X6736180Y-5257254D02*
X6706180Y-5287254D01*
X6749400Y-3976800D02*
X6779400Y-4006800D01*
X6779400Y-3976800D02*
X6749400Y-4006800D01*
X6749400Y-4226800D02*
X6779400Y-4256800D01*
X6779400Y-4226800D02*
X6749400Y-4256800D01*
X6764260Y-6695680D02*
X6794260Y-6725680D01*
X6794260Y-6695680D02*
X6764260Y-6725680D01*
X6766180Y-5186920D02*
X6796180Y-5216920D01*
X6796180Y-5186920D02*
X6766180Y-5216920D01*
X6779500Y-4798300D02*
X6809500Y-4828300D01*
X6809500Y-4798300D02*
X6779500Y-4828300D01*
X6865860Y-4800840D02*
X6895860Y-4830840D01*
X6895860Y-4800840D02*
X6865860Y-4830840D01*
X6865860Y-5489180D02*
X6895860Y-5519180D01*
X6895860Y-5489180D02*
X6865860Y-5519180D01*
X6886180Y-5173300D02*
X6916180Y-5203300D01*
X6916180Y-5173300D02*
X6886180Y-5203300D01*
X6926820Y-5418060D02*
X6956820Y-5448060D01*
X6956820Y-5418060D02*
X6926820Y-5448060D01*
X6936700Y-5648300D02*
X6966700Y-5678300D01*
X6966700Y-5648300D02*
X6936700Y-5678300D01*
X6952220Y-5093300D02*
X6982220Y-5123300D01*
X6982220Y-5093300D02*
X6952220Y-5123300D01*
X7161700Y-6023300D02*
X7191700Y-6053300D01*
X7191700Y-6023300D02*
X7161700Y-6053300D01*
X7292580Y-5415520D02*
X7322580Y-5445520D01*
X7322580Y-5415520D02*
X7292580Y-5445520D01*
X7305352Y-5001331D02*
X7335352Y-5031331D01*
X7335352Y-5001331D02*
X7305352Y-5031331D01*
X7345920Y-5573000D02*
X7375920Y-5603000D01*
X7375920Y-5573000D02*
X7345920Y-5603000D01*
X7385351Y-5001815D02*
X7415351Y-5031815D01*
X7415351Y-5001815D02*
X7385351Y-5031815D01*
X7401800Y-4391900D02*
X7431800Y-4421900D01*
X7431800Y-4391900D02*
X7401800Y-4421900D01*
X7411700Y-6023300D02*
X7441700Y-6053300D01*
X7441700Y-6023300D02*
X7411700Y-6053300D01*
X7411960Y-5491720D02*
X7441960Y-5521720D01*
X7441960Y-5491720D02*
X7411960Y-5521720D01*
X7465300Y-4998960D02*
X7495300Y-5028960D01*
X7495300Y-4998960D02*
X7465300Y-5028960D01*
X7846200Y-6213800D02*
X7876200Y-6243800D01*
X7876200Y-6213800D02*
X7846200Y-6243800D01*
X7973300Y-3833100D02*
X8003300Y-3863100D01*
X8003300Y-3833100D02*
X7973300Y-3863100D01*
X8087600Y-4239500D02*
X8117600Y-4269500D01*
X8117600Y-4239500D02*
X8087600Y-4269500D01*
X8100200Y-6011800D02*
X8130200Y-6041800D01*
X8130200Y-6011800D02*
X8100200Y-6041800D01*
X8119200Y-6840800D02*
X8149200Y-6870800D01*
X8149200Y-6840800D02*
X8119200Y-6870800D01*
X8125700Y-5598300D02*
X8155700Y-5628300D01*
X8155700Y-5598300D02*
X8125700Y-5628300D01*
X8201900Y-3363200D02*
X8231900Y-3393200D01*
X8231900Y-3363200D02*
X8201900Y-3393200D01*
X8458440Y-5303760D02*
X8488440Y-5333760D01*
X8488440Y-5303760D02*
X8458440Y-5333760D01*
X8488920Y-4983720D02*
X8518920Y-5013720D01*
X8518920Y-4983720D02*
X8488920Y-5013720D01*
X8511700Y-6048300D02*
X8541700Y-6078300D01*
X8541700Y-6048300D02*
X8511700Y-6078300D01*
X8544800Y-3363200D02*
X8574800Y-3393200D01*
X8574800Y-3363200D02*
X8544800Y-3393200D01*
X8748000Y-3566400D02*
X8778000Y-3596400D01*
X8778000Y-3566400D02*
X8748000Y-3596400D01*
X8938500Y-4328400D02*
X8968500Y-4358400D01*
X8968500Y-4328400D02*
X8938500Y-4358400D01*
X9229200Y-4507600D02*
X9259200Y-4537600D01*
X9259200Y-4507600D02*
X9229200Y-4537600D01*
X9229200Y-5787500D02*
X9259200Y-5817500D01*
X9259200Y-5787500D02*
X9229200Y-5817500D01*
X3176700Y-3413300D02*
G75*
G02*
X3076700Y-3413300I-50000J0D01*
G01*
X3076700Y-3413300D02*
G75*
G02*
X3176700Y-3413300I50000J0D01*
G01*
X3430700Y-3413300D02*
G75*
G02*
X3330700Y-3413300I-50000J0D01*
G01*
X3330700Y-3413300D02*
G75*
G02*
X3430700Y-3413300I50000J0D01*
G01*
X4037800Y-4830300D02*
G75*
G02*
X3937800Y-4830300I-50000J0D01*
G01*
X3937800Y-4830300D02*
G75*
G02*
X4037800Y-4830300I50000J0D01*
G01*
X4037800Y-5084300D02*
G75*
G02*
X3937800Y-5084300I-50000J0D01*
G01*
X3937800Y-5084300D02*
G75*
G02*
X4037800Y-5084300I50000J0D01*
G01*
X4037800Y-5338300D02*
G75*
G02*
X3937800Y-5338300I-50000J0D01*
G01*
X3937800Y-5338300D02*
G75*
G02*
X4037800Y-5338300I50000J0D01*
G01*
X4037800Y-5592300D02*
G75*
G02*
X3937800Y-5592300I-50000J0D01*
G01*
X3937800Y-5592300D02*
G75*
G02*
X4037800Y-5592300I50000J0D01*
G01*
X4037800Y-5846300D02*
G75*
G02*
X3937800Y-5846300I-50000J0D01*
G01*
X3937800Y-5846300D02*
G75*
G02*
X4037800Y-5846300I50000J0D01*
G01*
X5590700Y-3398520D02*
G75*
G02*
X5490700Y-3398520I-50000J0D01*
G01*
X5490700Y-3398520D02*
G75*
G02*
X5590700Y-3398520I50000J0D01*
G01*
X5590700Y-7376160D02*
G75*
G02*
X5490700Y-7376160I-50000J0D01*
G01*
X5490700Y-7376160D02*
G75*
G02*
X5590700Y-7376160I50000J0D01*
G01*
X5844700Y-3398520D02*
G75*
G02*
X5744700Y-3398520I-50000J0D01*
G01*
X5744700Y-3398520D02*
G75*
G02*
X5844700Y-3398520I50000J0D01*
G01*
X5844700Y-7376160D02*
G75*
G02*
X5744700Y-7376160I-50000J0D01*
G01*
X5744700Y-7376160D02*
G75*
G02*
X5844700Y-7376160I50000J0D01*
G01*
X6098700Y-3398520D02*
G75*
G02*
X5998700Y-3398520I-50000J0D01*
G01*
X5998700Y-3398520D02*
G75*
G02*
X6098700Y-3398520I50000J0D01*
G01*
X6098700Y-7376160D02*
G75*
G02*
X5998700Y-7376160I-50000J0D01*
G01*
X5998700Y-7376160D02*
G75*
G02*
X6098700Y-7376160I50000J0D01*
G01*
X6352700Y-3398520D02*
G75*
G02*
X6252700Y-3398520I-50000J0D01*
G01*
X6252700Y-3398520D02*
G75*
G02*
X6352700Y-3398520I50000J0D01*
G01*
X6352700Y-7376160D02*
G75*
G02*
X6252700Y-7376160I-50000J0D01*
G01*
X6252700Y-7376160D02*
G75*
G02*
X6352700Y-7376160I50000J0D01*
G01*
X6606700Y-3398520D02*
G75*
G02*
X6506700Y-3398520I-50000J0D01*
G01*
X6506700Y-3398520D02*
G75*
G02*
X6606700Y-3398520I50000J0D01*
G01*
X6606700Y-7376160D02*
G75*
G02*
X6506700Y-7376160I-50000J0D01*
G01*
X6506700Y-7376160D02*
G75*
G02*
X6606700Y-7376160I50000J0D01*
G01*
X6860700Y-3398520D02*
G75*
G02*
X6760700Y-3398520I-50000J0D01*
G01*
X6760700Y-3398520D02*
G75*
G02*
X6860700Y-3398520I50000J0D01*
G01*
X6860700Y-7376160D02*
G75*
G02*
X6760700Y-7376160I-50000J0D01*
G01*
X6760700Y-7376160D02*
G75*
G02*
X6860700Y-7376160I50000J0D01*
G01*
X7114700Y-3398520D02*
G75*
G02*
X7014700Y-3398520I-50000J0D01*
G01*
X7014700Y-3398520D02*
G75*
G02*
X7114700Y-3398520I50000J0D01*
G01*
X7114700Y-7376160D02*
G75*
G02*
X7014700Y-7376160I-50000J0D01*
G01*
X7014700Y-7376160D02*
G75*
G02*
X7114700Y-7376160I50000J0D01*
G01*
X7368700Y-3398520D02*
G75*
G02*
X7268700Y-3398520I-50000J0D01*
G01*
X7268700Y-3398520D02*
G75*
G02*
X7368700Y-3398520I50000J0D01*
G01*
X7368700Y-7376160D02*
G75*
G02*
X7268700Y-7376160I-50000J0D01*
G01*
X7268700Y-7376160D02*
G75*
G02*
X7368700Y-7376160I50000J0D01*
G01*
X7622700Y-3398520D02*
G75*
G02*
X7522700Y-3398520I-50000J0D01*
G01*
X7522700Y-3398520D02*
G75*
G02*
X7622700Y-3398520I50000J0D01*
G01*
X7622700Y-7376160D02*
G75*
G02*
X7522700Y-7376160I-50000J0D01*
G01*
X7522700Y-7376160D02*
G75*
G02*
X7622700Y-7376160I50000J0D01*
G01*
X7876700Y-3398520D02*
G75*
G02*
X7776700Y-3398520I-50000J0D01*
G01*
X7776700Y-3398520D02*
G75*
G02*
X7876700Y-3398520I50000J0D01*
G01*
X7876700Y-7376160D02*
G75*
G02*
X7776700Y-7376160I-50000J0D01*
G01*
X7776700Y-7376160D02*
G75*
G02*
X7876700Y-7376160I50000J0D01*
G01*
X8972700Y-7359300D02*
G75*
G02*
X8872700Y-7359300I-50000J0D01*
G01*
X8872700Y-7359300D02*
G75*
G02*
X8972700Y-7359300I50000J0D01*
G01*
X9226700Y-7359300D02*
G75*
G02*
X9126700Y-7359300I-50000J0D01*
G01*
X9126700Y-7359300D02*
G75*
G02*
X9226700Y-7359300I50000J0D01*
G01*
D13*
X3301700Y-3754300D02*
X3301700Y-3864300D01*
X3246700Y-3809300D02*
X3356700Y-3809300D01*
X3301700Y-4008300D02*
X3301700Y-4118300D01*
X3246700Y-4063300D02*
X3356700Y-4063300D01*
X9001700Y-6654300D02*
X9001700Y-6764300D01*
X8946700Y-6709300D02*
X9056700Y-6709300D01*
X9001700Y-6908300D02*
X9001700Y-7018300D01*
X8946700Y-6963300D02*
X9056700Y-6963300D01*
D11*
X3184977Y-7877284D02*
X3184977Y-7677284D01*
X3184977Y-7677284D02*
X3232596Y-7677284D01*
X3232596Y-7677284D02*
X3261167Y-7686808D01*
X3261167Y-7686808D02*
X3280215Y-7705855D01*
X3280215Y-7705855D02*
X3289739Y-7724903D01*
X3289739Y-7724903D02*
X3299262Y-7762998D01*
X3299262Y-7762998D02*
X3299262Y-7791569D01*
X3299262Y-7791569D02*
X3289739Y-7829665D01*
X3289739Y-7829665D02*
X3280215Y-7848712D01*
X3280215Y-7848712D02*
X3261167Y-7867760D01*
X3261167Y-7867760D02*
X3232596Y-7877284D01*
X3232596Y-7877284D02*
X3184977Y-7877284D01*
X3384977Y-7877284D02*
X3384977Y-7743950D01*
X3384977Y-7782046D02*
X3394501Y-7762998D01*
X3394501Y-7762998D02*
X3404024Y-7753474D01*
X3404024Y-7753474D02*
X3423072Y-7743950D01*
X3423072Y-7743950D02*
X3442120Y-7743950D01*
X3508786Y-7877284D02*
X3508786Y-7743950D01*
X3508786Y-7677284D02*
X3499262Y-7686808D01*
X3499262Y-7686808D02*
X3508786Y-7696331D01*
X3508786Y-7696331D02*
X3518310Y-7686808D01*
X3518310Y-7686808D02*
X3508786Y-7677284D01*
X3508786Y-7677284D02*
X3508786Y-7696331D01*
X3632596Y-7877284D02*
X3613548Y-7867760D01*
X3613548Y-7867760D02*
X3604024Y-7848712D01*
X3604024Y-7848712D02*
X3604024Y-7677284D01*
X3737358Y-7877284D02*
X3718310Y-7867760D01*
X3718310Y-7867760D02*
X3708786Y-7848712D01*
X3708786Y-7848712D02*
X3708786Y-7677284D01*
X3965929Y-7877284D02*
X3965929Y-7677284D01*
X3965929Y-7677284D02*
X4032596Y-7820141D01*
X4032596Y-7820141D02*
X4099262Y-7677284D01*
X4099262Y-7677284D02*
X4099262Y-7877284D01*
X4280215Y-7877284D02*
X4280215Y-7772522D01*
X4280215Y-7772522D02*
X4270691Y-7753474D01*
X4270691Y-7753474D02*
X4251644Y-7743950D01*
X4251644Y-7743950D02*
X4213548Y-7743950D01*
X4213548Y-7743950D02*
X4194501Y-7753474D01*
X4280215Y-7867760D02*
X4261167Y-7877284D01*
X4261167Y-7877284D02*
X4213548Y-7877284D01*
X4213548Y-7877284D02*
X4194501Y-7867760D01*
X4194501Y-7867760D02*
X4184977Y-7848712D01*
X4184977Y-7848712D02*
X4184977Y-7829665D01*
X4184977Y-7829665D02*
X4194501Y-7810617D01*
X4194501Y-7810617D02*
X4213548Y-7801093D01*
X4213548Y-7801093D02*
X4261167Y-7801093D01*
X4261167Y-7801093D02*
X4280215Y-7791569D01*
X4375453Y-7743950D02*
X4375453Y-7943950D01*
X4375453Y-7753474D02*
X4394501Y-7743950D01*
X4394501Y-7743950D02*
X4432596Y-7743950D01*
X4432596Y-7743950D02*
X4451644Y-7753474D01*
X4451644Y-7753474D02*
X4461167Y-7762998D01*
X4461167Y-7762998D02*
X4470691Y-7782046D01*
X4470691Y-7782046D02*
X4470691Y-7839188D01*
X4470691Y-7839188D02*
X4461167Y-7858236D01*
X4461167Y-7858236D02*
X4451644Y-7867760D01*
X4451644Y-7867760D02*
X4432596Y-7877284D01*
X4432596Y-7877284D02*
X4394501Y-7877284D01*
X4394501Y-7877284D02*
X4375453Y-7867760D01*
X4556405Y-7858236D02*
X4565929Y-7867760D01*
X4565929Y-7867760D02*
X4556405Y-7877284D01*
X4556405Y-7877284D02*
X4546882Y-7867760D01*
X4546882Y-7867760D02*
X4556405Y-7858236D01*
X4556405Y-7858236D02*
X4556405Y-7877284D01*
X4556405Y-7753474D02*
X4565929Y-7762998D01*
X4565929Y-7762998D02*
X4556405Y-7772522D01*
X4556405Y-7772522D02*
X4546882Y-7762998D01*
X4546882Y-7762998D02*
X4556405Y-7753474D01*
X4556405Y-7753474D02*
X4556405Y-7772522D01*
D12*
X2894200Y-8190800D02*
X2924200Y-8220800D01*
X2924200Y-8190800D02*
X2894200Y-8220800D01*
D11*
X3223072Y-8097284D02*
X3242120Y-8097284D01*
X3242120Y-8097284D02*
X3261167Y-8106808D01*
X3261167Y-8106808D02*
X3270691Y-8116331D01*
X3270691Y-8116331D02*
X3280215Y-8135379D01*
X3280215Y-8135379D02*
X3289739Y-8173474D01*
X3289739Y-8173474D02*
X3289739Y-8221093D01*
X3289739Y-8221093D02*
X3280215Y-8259188D01*
X3280215Y-8259188D02*
X3270691Y-8278236D01*
X3270691Y-8278236D02*
X3261167Y-8287760D01*
X3261167Y-8287760D02*
X3242120Y-8297284D01*
X3242120Y-8297284D02*
X3223072Y-8297284D01*
X3223072Y-8297284D02*
X3204024Y-8287760D01*
X3204024Y-8287760D02*
X3194501Y-8278236D01*
X3194501Y-8278236D02*
X3184977Y-8259188D01*
X3184977Y-8259188D02*
X3175453Y-8221093D01*
X3175453Y-8221093D02*
X3175453Y-8173474D01*
X3175453Y-8173474D02*
X3184977Y-8135379D01*
X3184977Y-8135379D02*
X3194501Y-8116331D01*
X3194501Y-8116331D02*
X3204024Y-8106808D01*
X3204024Y-8106808D02*
X3223072Y-8097284D01*
X3375453Y-8278236D02*
X3384977Y-8287760D01*
X3384977Y-8287760D02*
X3375453Y-8297284D01*
X3375453Y-8297284D02*
X3365929Y-8287760D01*
X3365929Y-8287760D02*
X3375453Y-8278236D01*
X3375453Y-8278236D02*
X3375453Y-8297284D01*
X3451643Y-8097284D02*
X3575453Y-8097284D01*
X3575453Y-8097284D02*
X3508786Y-8173474D01*
X3508786Y-8173474D02*
X3537358Y-8173474D01*
X3537358Y-8173474D02*
X3556405Y-8182998D01*
X3556405Y-8182998D02*
X3565929Y-8192522D01*
X3565929Y-8192522D02*
X3575453Y-8211569D01*
X3575453Y-8211569D02*
X3575453Y-8259188D01*
X3575453Y-8259188D02*
X3565929Y-8278236D01*
X3565929Y-8278236D02*
X3556405Y-8287760D01*
X3556405Y-8287760D02*
X3537358Y-8297284D01*
X3537358Y-8297284D02*
X3480215Y-8297284D01*
X3480215Y-8297284D02*
X3461167Y-8287760D01*
X3461167Y-8287760D02*
X3451643Y-8278236D01*
X3699262Y-8097284D02*
X3718310Y-8097284D01*
X3718310Y-8097284D02*
X3737358Y-8106808D01*
X3737358Y-8106808D02*
X3746882Y-8116331D01*
X3746882Y-8116331D02*
X3756405Y-8135379D01*
X3756405Y-8135379D02*
X3765929Y-8173474D01*
X3765929Y-8173474D02*
X3765929Y-8221093D01*
X3765929Y-8221093D02*
X3756405Y-8259188D01*
X3756405Y-8259188D02*
X3746882Y-8278236D01*
X3746882Y-8278236D02*
X3737358Y-8287760D01*
X3737358Y-8287760D02*
X3718310Y-8297284D01*
X3718310Y-8297284D02*
X3699262Y-8297284D01*
X3699262Y-8297284D02*
X3680215Y-8287760D01*
X3680215Y-8287760D02*
X3670691Y-8278236D01*
X3670691Y-8278236D02*
X3661167Y-8259188D01*
X3661167Y-8259188D02*
X3651643Y-8221093D01*
X3651643Y-8221093D02*
X3651643Y-8173474D01*
X3651643Y-8173474D02*
X3661167Y-8135379D01*
X3661167Y-8135379D02*
X3670691Y-8116331D01*
X3670691Y-8116331D02*
X3680215Y-8106808D01*
X3680215Y-8106808D02*
X3699262Y-8097284D01*
X3889739Y-8097284D02*
X3908786Y-8097284D01*
X3908786Y-8097284D02*
X3927834Y-8106808D01*
X3927834Y-8106808D02*
X3937358Y-8116331D01*
X3937358Y-8116331D02*
X3946882Y-8135379D01*
X3946882Y-8135379D02*
X3956405Y-8173474D01*
X3956405Y-8173474D02*
X3956405Y-8221093D01*
X3956405Y-8221093D02*
X3946882Y-8259188D01*
X3946882Y-8259188D02*
X3937358Y-8278236D01*
X3937358Y-8278236D02*
X3927834Y-8287760D01*
X3927834Y-8287760D02*
X3908786Y-8297284D01*
X3908786Y-8297284D02*
X3889739Y-8297284D01*
X3889739Y-8297284D02*
X3870691Y-8287760D01*
X3870691Y-8287760D02*
X3861167Y-8278236D01*
X3861167Y-8278236D02*
X3851643Y-8259188D01*
X3851643Y-8259188D02*
X3842120Y-8221093D01*
X3842120Y-8221093D02*
X3842120Y-8173474D01*
X3842120Y-8173474D02*
X3851643Y-8135379D01*
X3851643Y-8135379D02*
X3861167Y-8116331D01*
X3861167Y-8116331D02*
X3870691Y-8106808D01*
X3870691Y-8106808D02*
X3889739Y-8097284D01*
X4042120Y-8297284D02*
X4042120Y-8163950D01*
X4042120Y-8182998D02*
X4051643Y-8173474D01*
X4051643Y-8173474D02*
X4070691Y-8163950D01*
X4070691Y-8163950D02*
X4099263Y-8163950D01*
X4099263Y-8163950D02*
X4118310Y-8173474D01*
X4118310Y-8173474D02*
X4127834Y-8192522D01*
X4127834Y-8192522D02*
X4127834Y-8297284D01*
X4127834Y-8192522D02*
X4137358Y-8173474D01*
X4137358Y-8173474D02*
X4156405Y-8163950D01*
X4156405Y-8163950D02*
X4184977Y-8163950D01*
X4184977Y-8163950D02*
X4204025Y-8173474D01*
X4204025Y-8173474D02*
X4213548Y-8192522D01*
X4213548Y-8192522D02*
X4213548Y-8297284D01*
X4308786Y-8297284D02*
X4308786Y-8163950D01*
X4308786Y-8182998D02*
X4318310Y-8173474D01*
X4318310Y-8173474D02*
X4337358Y-8163950D01*
X4337358Y-8163950D02*
X4365929Y-8163950D01*
X4365929Y-8163950D02*
X4384977Y-8173474D01*
X4384977Y-8173474D02*
X4394501Y-8192522D01*
X4394501Y-8192522D02*
X4394501Y-8297284D01*
X4394501Y-8192522D02*
X4404025Y-8173474D01*
X4404025Y-8173474D02*
X4423072Y-8163950D01*
X4423072Y-8163950D02*
X4451644Y-8163950D01*
X4451644Y-8163950D02*
X4470691Y-8173474D01*
X4470691Y-8173474D02*
X4480215Y-8192522D01*
X4480215Y-8192522D02*
X4480215Y-8297284D01*
X4870691Y-8087760D02*
X4699263Y-8344903D01*
X5127834Y-8097284D02*
X5146882Y-8097284D01*
X5146882Y-8097284D02*
X5165929Y-8106808D01*
X5165929Y-8106808D02*
X5175453Y-8116331D01*
X5175453Y-8116331D02*
X5184977Y-8135379D01*
X5184977Y-8135379D02*
X5194501Y-8173474D01*
X5194501Y-8173474D02*
X5194501Y-8221093D01*
X5194501Y-8221093D02*
X5184977Y-8259188D01*
X5184977Y-8259188D02*
X5175453Y-8278236D01*
X5175453Y-8278236D02*
X5165929Y-8287760D01*
X5165929Y-8287760D02*
X5146882Y-8297284D01*
X5146882Y-8297284D02*
X5127834Y-8297284D01*
X5127834Y-8297284D02*
X5108787Y-8287760D01*
X5108787Y-8287760D02*
X5099263Y-8278236D01*
X5099263Y-8278236D02*
X5089739Y-8259188D01*
X5089739Y-8259188D02*
X5080215Y-8221093D01*
X5080215Y-8221093D02*
X5080215Y-8173474D01*
X5080215Y-8173474D02*
X5089739Y-8135379D01*
X5089739Y-8135379D02*
X5099263Y-8116331D01*
X5099263Y-8116331D02*
X5108787Y-8106808D01*
X5108787Y-8106808D02*
X5127834Y-8097284D01*
X5280215Y-8278236D02*
X5289739Y-8287760D01*
X5289739Y-8287760D02*
X5280215Y-8297284D01*
X5280215Y-8297284D02*
X5270691Y-8287760D01*
X5270691Y-8287760D02*
X5280215Y-8278236D01*
X5280215Y-8278236D02*
X5280215Y-8297284D01*
X5413548Y-8097284D02*
X5432596Y-8097284D01*
X5432596Y-8097284D02*
X5451644Y-8106808D01*
X5451644Y-8106808D02*
X5461168Y-8116331D01*
X5461168Y-8116331D02*
X5470691Y-8135379D01*
X5470691Y-8135379D02*
X5480215Y-8173474D01*
X5480215Y-8173474D02*
X5480215Y-8221093D01*
X5480215Y-8221093D02*
X5470691Y-8259188D01*
X5470691Y-8259188D02*
X5461168Y-8278236D01*
X5461168Y-8278236D02*
X5451644Y-8287760D01*
X5451644Y-8287760D02*
X5432596Y-8297284D01*
X5432596Y-8297284D02*
X5413548Y-8297284D01*
X5413548Y-8297284D02*
X5394501Y-8287760D01*
X5394501Y-8287760D02*
X5384977Y-8278236D01*
X5384977Y-8278236D02*
X5375453Y-8259188D01*
X5375453Y-8259188D02*
X5365929Y-8221093D01*
X5365929Y-8221093D02*
X5365929Y-8173474D01*
X5365929Y-8173474D02*
X5375453Y-8135379D01*
X5375453Y-8135379D02*
X5384977Y-8116331D01*
X5384977Y-8116331D02*
X5394501Y-8106808D01*
X5394501Y-8106808D02*
X5413548Y-8097284D01*
X5670691Y-8297284D02*
X5556406Y-8297284D01*
X5613548Y-8297284D02*
X5613548Y-8097284D01*
X5613548Y-8097284D02*
X5594501Y-8125855D01*
X5594501Y-8125855D02*
X5575453Y-8144903D01*
X5575453Y-8144903D02*
X5556406Y-8154427D01*
X5861167Y-8297284D02*
X5746882Y-8297284D01*
X5804025Y-8297284D02*
X5804025Y-8097284D01*
X5804025Y-8097284D02*
X5784977Y-8125855D01*
X5784977Y-8125855D02*
X5765929Y-8144903D01*
X5765929Y-8144903D02*
X5746882Y-8154427D01*
X5975453Y-8182998D02*
X5956406Y-8173474D01*
X5956406Y-8173474D02*
X5946882Y-8163950D01*
X5946882Y-8163950D02*
X5937358Y-8144903D01*
X5937358Y-8144903D02*
X5937358Y-8135379D01*
X5937358Y-8135379D02*
X5946882Y-8116331D01*
X5946882Y-8116331D02*
X5956406Y-8106808D01*
X5956406Y-8106808D02*
X5975453Y-8097284D01*
X5975453Y-8097284D02*
X6013548Y-8097284D01*
X6013548Y-8097284D02*
X6032596Y-8106808D01*
X6032596Y-8106808D02*
X6042120Y-8116331D01*
X6042120Y-8116331D02*
X6051644Y-8135379D01*
X6051644Y-8135379D02*
X6051644Y-8144903D01*
X6051644Y-8144903D02*
X6042120Y-8163950D01*
X6042120Y-8163950D02*
X6032596Y-8173474D01*
X6032596Y-8173474D02*
X6013548Y-8182998D01*
X6013548Y-8182998D02*
X5975453Y-8182998D01*
X5975453Y-8182998D02*
X5956406Y-8192522D01*
X5956406Y-8192522D02*
X5946882Y-8202046D01*
X5946882Y-8202046D02*
X5937358Y-8221093D01*
X5937358Y-8221093D02*
X5937358Y-8259188D01*
X5937358Y-8259188D02*
X5946882Y-8278236D01*
X5946882Y-8278236D02*
X5956406Y-8287760D01*
X5956406Y-8287760D02*
X5975453Y-8297284D01*
X5975453Y-8297284D02*
X6013548Y-8297284D01*
X6013548Y-8297284D02*
X6032596Y-8287760D01*
X6032596Y-8287760D02*
X6042120Y-8278236D01*
X6042120Y-8278236D02*
X6051644Y-8259188D01*
X6051644Y-8259188D02*
X6051644Y-8221093D01*
X6051644Y-8221093D02*
X6042120Y-8202046D01*
X6042120Y-8202046D02*
X6032596Y-8192522D01*
X6032596Y-8192522D02*
X6013548Y-8182998D01*
X6127834Y-8097284D02*
X6127834Y-8135379D01*
X6204025Y-8097284D02*
X6204025Y-8135379D01*
X6499263Y-8373474D02*
X6489739Y-8363950D01*
X6489739Y-8363950D02*
X6470691Y-8335379D01*
X6470691Y-8335379D02*
X6461168Y-8316331D01*
X6461168Y-8316331D02*
X6451644Y-8287760D01*
X6451644Y-8287760D02*
X6442120Y-8240141D01*
X6442120Y-8240141D02*
X6442120Y-8202046D01*
X6442120Y-8202046D02*
X6451644Y-8154427D01*
X6451644Y-8154427D02*
X6461168Y-8125855D01*
X6461168Y-8125855D02*
X6470691Y-8106808D01*
X6470691Y-8106808D02*
X6489739Y-8078236D01*
X6489739Y-8078236D02*
X6499263Y-8068712D01*
X6661168Y-8097284D02*
X6623072Y-8097284D01*
X6623072Y-8097284D02*
X6604025Y-8106808D01*
X6604025Y-8106808D02*
X6594501Y-8116331D01*
X6594501Y-8116331D02*
X6575453Y-8144903D01*
X6575453Y-8144903D02*
X6565929Y-8182998D01*
X6565929Y-8182998D02*
X6565929Y-8259188D01*
X6565929Y-8259188D02*
X6575453Y-8278236D01*
X6575453Y-8278236D02*
X6584977Y-8287760D01*
X6584977Y-8287760D02*
X6604025Y-8297284D01*
X6604025Y-8297284D02*
X6642120Y-8297284D01*
X6642120Y-8297284D02*
X6661168Y-8287760D01*
X6661168Y-8287760D02*
X6670691Y-8278236D01*
X6670691Y-8278236D02*
X6680215Y-8259188D01*
X6680215Y-8259188D02*
X6680215Y-8211569D01*
X6680215Y-8211569D02*
X6670691Y-8192522D01*
X6670691Y-8192522D02*
X6661168Y-8182998D01*
X6661168Y-8182998D02*
X6642120Y-8173474D01*
X6642120Y-8173474D02*
X6604025Y-8173474D01*
X6604025Y-8173474D02*
X6584977Y-8182998D01*
X6584977Y-8182998D02*
X6575453Y-8192522D01*
X6575453Y-8192522D02*
X6565929Y-8211569D01*
X6756406Y-8116331D02*
X6765929Y-8106808D01*
X6765929Y-8106808D02*
X6784977Y-8097284D01*
X6784977Y-8097284D02*
X6832596Y-8097284D01*
X6832596Y-8097284D02*
X6851644Y-8106808D01*
X6851644Y-8106808D02*
X6861168Y-8116331D01*
X6861168Y-8116331D02*
X6870691Y-8135379D01*
X6870691Y-8135379D02*
X6870691Y-8154427D01*
X6870691Y-8154427D02*
X6861168Y-8182998D01*
X6861168Y-8182998D02*
X6746882Y-8297284D01*
X6746882Y-8297284D02*
X6870691Y-8297284D01*
X7108787Y-8297284D02*
X7108787Y-8097284D01*
X7194501Y-8297284D02*
X7194501Y-8192522D01*
X7194501Y-8192522D02*
X7184977Y-8173474D01*
X7184977Y-8173474D02*
X7165930Y-8163950D01*
X7165930Y-8163950D02*
X7137358Y-8163950D01*
X7137358Y-8163950D02*
X7118310Y-8173474D01*
X7118310Y-8173474D02*
X7108787Y-8182998D01*
X7318310Y-8297284D02*
X7299263Y-8287760D01*
X7299263Y-8287760D02*
X7289739Y-8278236D01*
X7289739Y-8278236D02*
X7280215Y-8259188D01*
X7280215Y-8259188D02*
X7280215Y-8202046D01*
X7280215Y-8202046D02*
X7289739Y-8182998D01*
X7289739Y-8182998D02*
X7299263Y-8173474D01*
X7299263Y-8173474D02*
X7318310Y-8163950D01*
X7318310Y-8163950D02*
X7346882Y-8163950D01*
X7346882Y-8163950D02*
X7365930Y-8173474D01*
X7365930Y-8173474D02*
X7375453Y-8182998D01*
X7375453Y-8182998D02*
X7384977Y-8202046D01*
X7384977Y-8202046D02*
X7384977Y-8259188D01*
X7384977Y-8259188D02*
X7375453Y-8278236D01*
X7375453Y-8278236D02*
X7365930Y-8287760D01*
X7365930Y-8287760D02*
X7346882Y-8297284D01*
X7346882Y-8297284D02*
X7318310Y-8297284D01*
X7499263Y-8297284D02*
X7480215Y-8287760D01*
X7480215Y-8287760D02*
X7470691Y-8268712D01*
X7470691Y-8268712D02*
X7470691Y-8097284D01*
X7651644Y-8287760D02*
X7632596Y-8297284D01*
X7632596Y-8297284D02*
X7594501Y-8297284D01*
X7594501Y-8297284D02*
X7575453Y-8287760D01*
X7575453Y-8287760D02*
X7565930Y-8268712D01*
X7565930Y-8268712D02*
X7565930Y-8192522D01*
X7565930Y-8192522D02*
X7575453Y-8173474D01*
X7575453Y-8173474D02*
X7594501Y-8163950D01*
X7594501Y-8163950D02*
X7632596Y-8163950D01*
X7632596Y-8163950D02*
X7651644Y-8173474D01*
X7651644Y-8173474D02*
X7661168Y-8192522D01*
X7661168Y-8192522D02*
X7661168Y-8211569D01*
X7661168Y-8211569D02*
X7565930Y-8230617D01*
X7737358Y-8287760D02*
X7756406Y-8297284D01*
X7756406Y-8297284D02*
X7794501Y-8297284D01*
X7794501Y-8297284D02*
X7813549Y-8287760D01*
X7813549Y-8287760D02*
X7823072Y-8268712D01*
X7823072Y-8268712D02*
X7823072Y-8259188D01*
X7823072Y-8259188D02*
X7813549Y-8240141D01*
X7813549Y-8240141D02*
X7794501Y-8230617D01*
X7794501Y-8230617D02*
X7765930Y-8230617D01*
X7765930Y-8230617D02*
X7746882Y-8221093D01*
X7746882Y-8221093D02*
X7737358Y-8202046D01*
X7737358Y-8202046D02*
X7737358Y-8192522D01*
X7737358Y-8192522D02*
X7746882Y-8173474D01*
X7746882Y-8173474D02*
X7765930Y-8163950D01*
X7765930Y-8163950D02*
X7794501Y-8163950D01*
X7794501Y-8163950D02*
X7813549Y-8173474D01*
X7889739Y-8373474D02*
X7899263Y-8363950D01*
X7899263Y-8363950D02*
X7918311Y-8335379D01*
X7918311Y-8335379D02*
X7927834Y-8316331D01*
X7927834Y-8316331D02*
X7937358Y-8287760D01*
X7937358Y-8287760D02*
X7946882Y-8240141D01*
X7946882Y-8240141D02*
X7946882Y-8202046D01*
X7946882Y-8202046D02*
X7937358Y-8154427D01*
X7937358Y-8154427D02*
X7927834Y-8125855D01*
X7927834Y-8125855D02*
X7918311Y-8106808D01*
X7918311Y-8106808D02*
X7899263Y-8078236D01*
X7899263Y-8078236D02*
X7889739Y-8068712D01*
D12*
X2924200Y-8469800D02*
G75*
G02*
X2824200Y-8469800I-50000J0D01*
G01*
X2824200Y-8469800D02*
G75*
G02*
X2924200Y-8469800I50000J0D01*
G01*
D11*
X3289739Y-8561284D02*
X3175453Y-8561284D01*
X3232596Y-8561284D02*
X3232596Y-8361284D01*
X3232596Y-8361284D02*
X3213548Y-8389855D01*
X3213548Y-8389855D02*
X3194501Y-8408903D01*
X3194501Y-8408903D02*
X3175453Y-8418427D01*
X3375453Y-8542236D02*
X3384977Y-8551760D01*
X3384977Y-8551760D02*
X3375453Y-8561284D01*
X3375453Y-8561284D02*
X3365929Y-8551760D01*
X3365929Y-8551760D02*
X3375453Y-8542236D01*
X3375453Y-8542236D02*
X3375453Y-8561284D01*
X3508786Y-8361284D02*
X3527834Y-8361284D01*
X3527834Y-8361284D02*
X3546882Y-8370808D01*
X3546882Y-8370808D02*
X3556405Y-8380331D01*
X3556405Y-8380331D02*
X3565929Y-8399379D01*
X3565929Y-8399379D02*
X3575453Y-8437474D01*
X3575453Y-8437474D02*
X3575453Y-8485093D01*
X3575453Y-8485093D02*
X3565929Y-8523189D01*
X3565929Y-8523189D02*
X3556405Y-8542236D01*
X3556405Y-8542236D02*
X3546882Y-8551760D01*
X3546882Y-8551760D02*
X3527834Y-8561284D01*
X3527834Y-8561284D02*
X3508786Y-8561284D01*
X3508786Y-8561284D02*
X3489739Y-8551760D01*
X3489739Y-8551760D02*
X3480215Y-8542236D01*
X3480215Y-8542236D02*
X3470691Y-8523189D01*
X3470691Y-8523189D02*
X3461167Y-8485093D01*
X3461167Y-8485093D02*
X3461167Y-8437474D01*
X3461167Y-8437474D02*
X3470691Y-8399379D01*
X3470691Y-8399379D02*
X3480215Y-8380331D01*
X3480215Y-8380331D02*
X3489739Y-8370808D01*
X3489739Y-8370808D02*
X3508786Y-8361284D01*
X3699262Y-8361284D02*
X3718310Y-8361284D01*
X3718310Y-8361284D02*
X3737358Y-8370808D01*
X3737358Y-8370808D02*
X3746882Y-8380331D01*
X3746882Y-8380331D02*
X3756405Y-8399379D01*
X3756405Y-8399379D02*
X3765929Y-8437474D01*
X3765929Y-8437474D02*
X3765929Y-8485093D01*
X3765929Y-8485093D02*
X3756405Y-8523189D01*
X3756405Y-8523189D02*
X3746882Y-8542236D01*
X3746882Y-8542236D02*
X3737358Y-8551760D01*
X3737358Y-8551760D02*
X3718310Y-8561284D01*
X3718310Y-8561284D02*
X3699262Y-8561284D01*
X3699262Y-8561284D02*
X3680215Y-8551760D01*
X3680215Y-8551760D02*
X3670691Y-8542236D01*
X3670691Y-8542236D02*
X3661167Y-8523189D01*
X3661167Y-8523189D02*
X3651643Y-8485093D01*
X3651643Y-8485093D02*
X3651643Y-8437474D01*
X3651643Y-8437474D02*
X3661167Y-8399379D01*
X3661167Y-8399379D02*
X3670691Y-8380331D01*
X3670691Y-8380331D02*
X3680215Y-8370808D01*
X3680215Y-8370808D02*
X3699262Y-8361284D01*
X3889739Y-8361284D02*
X3908786Y-8361284D01*
X3908786Y-8361284D02*
X3927834Y-8370808D01*
X3927834Y-8370808D02*
X3937358Y-8380331D01*
X3937358Y-8380331D02*
X3946882Y-8399379D01*
X3946882Y-8399379D02*
X3956405Y-8437474D01*
X3956405Y-8437474D02*
X3956405Y-8485093D01*
X3956405Y-8485093D02*
X3946882Y-8523189D01*
X3946882Y-8523189D02*
X3937358Y-8542236D01*
X3937358Y-8542236D02*
X3927834Y-8551760D01*
X3927834Y-8551760D02*
X3908786Y-8561284D01*
X3908786Y-8561284D02*
X3889739Y-8561284D01*
X3889739Y-8561284D02*
X3870691Y-8551760D01*
X3870691Y-8551760D02*
X3861167Y-8542236D01*
X3861167Y-8542236D02*
X3851643Y-8523189D01*
X3851643Y-8523189D02*
X3842120Y-8485093D01*
X3842120Y-8485093D02*
X3842120Y-8437474D01*
X3842120Y-8437474D02*
X3851643Y-8399379D01*
X3851643Y-8399379D02*
X3861167Y-8380331D01*
X3861167Y-8380331D02*
X3870691Y-8370808D01*
X3870691Y-8370808D02*
X3889739Y-8361284D01*
X4042120Y-8561284D02*
X4042120Y-8427950D01*
X4042120Y-8446998D02*
X4051643Y-8437474D01*
X4051643Y-8437474D02*
X4070691Y-8427950D01*
X4070691Y-8427950D02*
X4099263Y-8427950D01*
X4099263Y-8427950D02*
X4118310Y-8437474D01*
X4118310Y-8437474D02*
X4127834Y-8456522D01*
X4127834Y-8456522D02*
X4127834Y-8561284D01*
X4127834Y-8456522D02*
X4137358Y-8437474D01*
X4137358Y-8437474D02*
X4156405Y-8427950D01*
X4156405Y-8427950D02*
X4184977Y-8427950D01*
X4184977Y-8427950D02*
X4204025Y-8437474D01*
X4204025Y-8437474D02*
X4213548Y-8456522D01*
X4213548Y-8456522D02*
X4213548Y-8561284D01*
X4308786Y-8561284D02*
X4308786Y-8427950D01*
X4308786Y-8446998D02*
X4318310Y-8437474D01*
X4318310Y-8437474D02*
X4337358Y-8427950D01*
X4337358Y-8427950D02*
X4365929Y-8427950D01*
X4365929Y-8427950D02*
X4384977Y-8437474D01*
X4384977Y-8437474D02*
X4394501Y-8456522D01*
X4394501Y-8456522D02*
X4394501Y-8561284D01*
X4394501Y-8456522D02*
X4404025Y-8437474D01*
X4404025Y-8437474D02*
X4423072Y-8427950D01*
X4423072Y-8427950D02*
X4451644Y-8427950D01*
X4451644Y-8427950D02*
X4470691Y-8437474D01*
X4470691Y-8437474D02*
X4480215Y-8456522D01*
X4480215Y-8456522D02*
X4480215Y-8561284D01*
X4870691Y-8351760D02*
X4699263Y-8608903D01*
X5127834Y-8361284D02*
X5146882Y-8361284D01*
X5146882Y-8361284D02*
X5165929Y-8370808D01*
X5165929Y-8370808D02*
X5175453Y-8380331D01*
X5175453Y-8380331D02*
X5184977Y-8399379D01*
X5184977Y-8399379D02*
X5194501Y-8437474D01*
X5194501Y-8437474D02*
X5194501Y-8485093D01*
X5194501Y-8485093D02*
X5184977Y-8523189D01*
X5184977Y-8523189D02*
X5175453Y-8542236D01*
X5175453Y-8542236D02*
X5165929Y-8551760D01*
X5165929Y-8551760D02*
X5146882Y-8561284D01*
X5146882Y-8561284D02*
X5127834Y-8561284D01*
X5127834Y-8561284D02*
X5108787Y-8551760D01*
X5108787Y-8551760D02*
X5099263Y-8542236D01*
X5099263Y-8542236D02*
X5089739Y-8523189D01*
X5089739Y-8523189D02*
X5080215Y-8485093D01*
X5080215Y-8485093D02*
X5080215Y-8437474D01*
X5080215Y-8437474D02*
X5089739Y-8399379D01*
X5089739Y-8399379D02*
X5099263Y-8380331D01*
X5099263Y-8380331D02*
X5108787Y-8370808D01*
X5108787Y-8370808D02*
X5127834Y-8361284D01*
X5280215Y-8542236D02*
X5289739Y-8551760D01*
X5289739Y-8551760D02*
X5280215Y-8561284D01*
X5280215Y-8561284D02*
X5270691Y-8551760D01*
X5270691Y-8551760D02*
X5280215Y-8542236D01*
X5280215Y-8542236D02*
X5280215Y-8561284D01*
X5413548Y-8361284D02*
X5432596Y-8361284D01*
X5432596Y-8361284D02*
X5451644Y-8370808D01*
X5451644Y-8370808D02*
X5461168Y-8380331D01*
X5461168Y-8380331D02*
X5470691Y-8399379D01*
X5470691Y-8399379D02*
X5480215Y-8437474D01*
X5480215Y-8437474D02*
X5480215Y-8485093D01*
X5480215Y-8485093D02*
X5470691Y-8523189D01*
X5470691Y-8523189D02*
X5461168Y-8542236D01*
X5461168Y-8542236D02*
X5451644Y-8551760D01*
X5451644Y-8551760D02*
X5432596Y-8561284D01*
X5432596Y-8561284D02*
X5413548Y-8561284D01*
X5413548Y-8561284D02*
X5394501Y-8551760D01*
X5394501Y-8551760D02*
X5384977Y-8542236D01*
X5384977Y-8542236D02*
X5375453Y-8523189D01*
X5375453Y-8523189D02*
X5365929Y-8485093D01*
X5365929Y-8485093D02*
X5365929Y-8437474D01*
X5365929Y-8437474D02*
X5375453Y-8399379D01*
X5375453Y-8399379D02*
X5384977Y-8380331D01*
X5384977Y-8380331D02*
X5394501Y-8370808D01*
X5394501Y-8370808D02*
X5413548Y-8361284D01*
X5546882Y-8361284D02*
X5670691Y-8361284D01*
X5670691Y-8361284D02*
X5604025Y-8437474D01*
X5604025Y-8437474D02*
X5632596Y-8437474D01*
X5632596Y-8437474D02*
X5651644Y-8446998D01*
X5651644Y-8446998D02*
X5661167Y-8456522D01*
X5661167Y-8456522D02*
X5670691Y-8475570D01*
X5670691Y-8475570D02*
X5670691Y-8523189D01*
X5670691Y-8523189D02*
X5661167Y-8542236D01*
X5661167Y-8542236D02*
X5651644Y-8551760D01*
X5651644Y-8551760D02*
X5632596Y-8561284D01*
X5632596Y-8561284D02*
X5575453Y-8561284D01*
X5575453Y-8561284D02*
X5556406Y-8551760D01*
X5556406Y-8551760D02*
X5546882Y-8542236D01*
X5765929Y-8561284D02*
X5804025Y-8561284D01*
X5804025Y-8561284D02*
X5823072Y-8551760D01*
X5823072Y-8551760D02*
X5832596Y-8542236D01*
X5832596Y-8542236D02*
X5851644Y-8513665D01*
X5851644Y-8513665D02*
X5861167Y-8475570D01*
X5861167Y-8475570D02*
X5861167Y-8399379D01*
X5861167Y-8399379D02*
X5851644Y-8380331D01*
X5851644Y-8380331D02*
X5842120Y-8370808D01*
X5842120Y-8370808D02*
X5823072Y-8361284D01*
X5823072Y-8361284D02*
X5784977Y-8361284D01*
X5784977Y-8361284D02*
X5765929Y-8370808D01*
X5765929Y-8370808D02*
X5756406Y-8380331D01*
X5756406Y-8380331D02*
X5746882Y-8399379D01*
X5746882Y-8399379D02*
X5746882Y-8446998D01*
X5746882Y-8446998D02*
X5756406Y-8466046D01*
X5756406Y-8466046D02*
X5765929Y-8475570D01*
X5765929Y-8475570D02*
X5784977Y-8485093D01*
X5784977Y-8485093D02*
X5823072Y-8485093D01*
X5823072Y-8485093D02*
X5842120Y-8475570D01*
X5842120Y-8475570D02*
X5851644Y-8466046D01*
X5851644Y-8466046D02*
X5861167Y-8446998D01*
X6032596Y-8427950D02*
X6032596Y-8561284D01*
X5984977Y-8351760D02*
X5937358Y-8494617D01*
X5937358Y-8494617D02*
X6061167Y-8494617D01*
X6127834Y-8361284D02*
X6127834Y-8399379D01*
X6204025Y-8361284D02*
X6204025Y-8399379D01*
X6499263Y-8637474D02*
X6489739Y-8627950D01*
X6489739Y-8627950D02*
X6470691Y-8599379D01*
X6470691Y-8599379D02*
X6461168Y-8580331D01*
X6461168Y-8580331D02*
X6451644Y-8551760D01*
X6451644Y-8551760D02*
X6442120Y-8504141D01*
X6442120Y-8504141D02*
X6442120Y-8466046D01*
X6442120Y-8466046D02*
X6451644Y-8418427D01*
X6451644Y-8418427D02*
X6461168Y-8389855D01*
X6461168Y-8389855D02*
X6470691Y-8370808D01*
X6470691Y-8370808D02*
X6489739Y-8342236D01*
X6489739Y-8342236D02*
X6499263Y-8332712D01*
X6565929Y-8380331D02*
X6575453Y-8370808D01*
X6575453Y-8370808D02*
X6594501Y-8361284D01*
X6594501Y-8361284D02*
X6642120Y-8361284D01*
X6642120Y-8361284D02*
X6661168Y-8370808D01*
X6661168Y-8370808D02*
X6670691Y-8380331D01*
X6670691Y-8380331D02*
X6680215Y-8399379D01*
X6680215Y-8399379D02*
X6680215Y-8418427D01*
X6680215Y-8418427D02*
X6670691Y-8446998D01*
X6670691Y-8446998D02*
X6556406Y-8561284D01*
X6556406Y-8561284D02*
X6680215Y-8561284D01*
X6775453Y-8561284D02*
X6813548Y-8561284D01*
X6813548Y-8561284D02*
X6832596Y-8551760D01*
X6832596Y-8551760D02*
X6842120Y-8542236D01*
X6842120Y-8542236D02*
X6861168Y-8513665D01*
X6861168Y-8513665D02*
X6870691Y-8475570D01*
X6870691Y-8475570D02*
X6870691Y-8399379D01*
X6870691Y-8399379D02*
X6861168Y-8380331D01*
X6861168Y-8380331D02*
X6851644Y-8370808D01*
X6851644Y-8370808D02*
X6832596Y-8361284D01*
X6832596Y-8361284D02*
X6794501Y-8361284D01*
X6794501Y-8361284D02*
X6775453Y-8370808D01*
X6775453Y-8370808D02*
X6765929Y-8380331D01*
X6765929Y-8380331D02*
X6756406Y-8399379D01*
X6756406Y-8399379D02*
X6756406Y-8446998D01*
X6756406Y-8446998D02*
X6765929Y-8466046D01*
X6765929Y-8466046D02*
X6775453Y-8475570D01*
X6775453Y-8475570D02*
X6794501Y-8485093D01*
X6794501Y-8485093D02*
X6832596Y-8485093D01*
X6832596Y-8485093D02*
X6851644Y-8475570D01*
X6851644Y-8475570D02*
X6861168Y-8466046D01*
X6861168Y-8466046D02*
X6870691Y-8446998D01*
X7108787Y-8561284D02*
X7108787Y-8361284D01*
X7194501Y-8561284D02*
X7194501Y-8456522D01*
X7194501Y-8456522D02*
X7184977Y-8437474D01*
X7184977Y-8437474D02*
X7165930Y-8427950D01*
X7165930Y-8427950D02*
X7137358Y-8427950D01*
X7137358Y-8427950D02*
X7118310Y-8437474D01*
X7118310Y-8437474D02*
X7108787Y-8446998D01*
X7318310Y-8561284D02*
X7299263Y-8551760D01*
X7299263Y-8551760D02*
X7289739Y-8542236D01*
X7289739Y-8542236D02*
X7280215Y-8523189D01*
X7280215Y-8523189D02*
X7280215Y-8466046D01*
X7280215Y-8466046D02*
X7289739Y-8446998D01*
X7289739Y-8446998D02*
X7299263Y-8437474D01*
X7299263Y-8437474D02*
X7318310Y-8427950D01*
X7318310Y-8427950D02*
X7346882Y-8427950D01*
X7346882Y-8427950D02*
X7365930Y-8437474D01*
X7365930Y-8437474D02*
X7375453Y-8446998D01*
X7375453Y-8446998D02*
X7384977Y-8466046D01*
X7384977Y-8466046D02*
X7384977Y-8523189D01*
X7384977Y-8523189D02*
X7375453Y-8542236D01*
X7375453Y-8542236D02*
X7365930Y-8551760D01*
X7365930Y-8551760D02*
X7346882Y-8561284D01*
X7346882Y-8561284D02*
X7318310Y-8561284D01*
X7499263Y-8561284D02*
X7480215Y-8551760D01*
X7480215Y-8551760D02*
X7470691Y-8532712D01*
X7470691Y-8532712D02*
X7470691Y-8361284D01*
X7651644Y-8551760D02*
X7632596Y-8561284D01*
X7632596Y-8561284D02*
X7594501Y-8561284D01*
X7594501Y-8561284D02*
X7575453Y-8551760D01*
X7575453Y-8551760D02*
X7565930Y-8532712D01*
X7565930Y-8532712D02*
X7565930Y-8456522D01*
X7565930Y-8456522D02*
X7575453Y-8437474D01*
X7575453Y-8437474D02*
X7594501Y-8427950D01*
X7594501Y-8427950D02*
X7632596Y-8427950D01*
X7632596Y-8427950D02*
X7651644Y-8437474D01*
X7651644Y-8437474D02*
X7661168Y-8456522D01*
X7661168Y-8456522D02*
X7661168Y-8475570D01*
X7661168Y-8475570D02*
X7565930Y-8494617D01*
X7737358Y-8551760D02*
X7756406Y-8561284D01*
X7756406Y-8561284D02*
X7794501Y-8561284D01*
X7794501Y-8561284D02*
X7813549Y-8551760D01*
X7813549Y-8551760D02*
X7823072Y-8532712D01*
X7823072Y-8532712D02*
X7823072Y-8523189D01*
X7823072Y-8523189D02*
X7813549Y-8504141D01*
X7813549Y-8504141D02*
X7794501Y-8494617D01*
X7794501Y-8494617D02*
X7765930Y-8494617D01*
X7765930Y-8494617D02*
X7746882Y-8485093D01*
X7746882Y-8485093D02*
X7737358Y-8466046D01*
X7737358Y-8466046D02*
X7737358Y-8456522D01*
X7737358Y-8456522D02*
X7746882Y-8437474D01*
X7746882Y-8437474D02*
X7765930Y-8427950D01*
X7765930Y-8427950D02*
X7794501Y-8427950D01*
X7794501Y-8427950D02*
X7813549Y-8437474D01*
X7889739Y-8637474D02*
X7899263Y-8627950D01*
X7899263Y-8627950D02*
X7918311Y-8599379D01*
X7918311Y-8599379D02*
X7927834Y-8580331D01*
X7927834Y-8580331D02*
X7937358Y-8551760D01*
X7937358Y-8551760D02*
X7946882Y-8504141D01*
X7946882Y-8504141D02*
X7946882Y-8466046D01*
X7946882Y-8466046D02*
X7937358Y-8418427D01*
X7937358Y-8418427D02*
X7927834Y-8389855D01*
X7927834Y-8389855D02*
X7918311Y-8370808D01*
X7918311Y-8370808D02*
X7899263Y-8342236D01*
X7899263Y-8342236D02*
X7889739Y-8332712D01*
D13*
X2869200Y-8678800D02*
X2869200Y-8788800D01*
X2814200Y-8733800D02*
X2924200Y-8733800D01*
D11*
X3289739Y-8825284D02*
X3175453Y-8825284D01*
X3232596Y-8825284D02*
X3232596Y-8625284D01*
X3232596Y-8625284D02*
X3213548Y-8653855D01*
X3213548Y-8653855D02*
X3194501Y-8672903D01*
X3194501Y-8672903D02*
X3175453Y-8682427D01*
X3375453Y-8806236D02*
X3384977Y-8815760D01*
X3384977Y-8815760D02*
X3375453Y-8825284D01*
X3375453Y-8825284D02*
X3365929Y-8815760D01*
X3365929Y-8815760D02*
X3375453Y-8806236D01*
X3375453Y-8806236D02*
X3375453Y-8825284D01*
X3575453Y-8825284D02*
X3461167Y-8825284D01*
X3518310Y-8825284D02*
X3518310Y-8625284D01*
X3518310Y-8625284D02*
X3499262Y-8653855D01*
X3499262Y-8653855D02*
X3480215Y-8672903D01*
X3480215Y-8672903D02*
X3461167Y-8682427D01*
X3699262Y-8625284D02*
X3718310Y-8625284D01*
X3718310Y-8625284D02*
X3737358Y-8634808D01*
X3737358Y-8634808D02*
X3746882Y-8644331D01*
X3746882Y-8644331D02*
X3756405Y-8663379D01*
X3756405Y-8663379D02*
X3765929Y-8701474D01*
X3765929Y-8701474D02*
X3765929Y-8749093D01*
X3765929Y-8749093D02*
X3756405Y-8787189D01*
X3756405Y-8787189D02*
X3746882Y-8806236D01*
X3746882Y-8806236D02*
X3737358Y-8815760D01*
X3737358Y-8815760D02*
X3718310Y-8825284D01*
X3718310Y-8825284D02*
X3699262Y-8825284D01*
X3699262Y-8825284D02*
X3680215Y-8815760D01*
X3680215Y-8815760D02*
X3670691Y-8806236D01*
X3670691Y-8806236D02*
X3661167Y-8787189D01*
X3661167Y-8787189D02*
X3651643Y-8749093D01*
X3651643Y-8749093D02*
X3651643Y-8701474D01*
X3651643Y-8701474D02*
X3661167Y-8663379D01*
X3661167Y-8663379D02*
X3670691Y-8644331D01*
X3670691Y-8644331D02*
X3680215Y-8634808D01*
X3680215Y-8634808D02*
X3699262Y-8625284D01*
X3889739Y-8625284D02*
X3908786Y-8625284D01*
X3908786Y-8625284D02*
X3927834Y-8634808D01*
X3927834Y-8634808D02*
X3937358Y-8644331D01*
X3937358Y-8644331D02*
X3946882Y-8663379D01*
X3946882Y-8663379D02*
X3956405Y-8701474D01*
X3956405Y-8701474D02*
X3956405Y-8749093D01*
X3956405Y-8749093D02*
X3946882Y-8787189D01*
X3946882Y-8787189D02*
X3937358Y-8806236D01*
X3937358Y-8806236D02*
X3927834Y-8815760D01*
X3927834Y-8815760D02*
X3908786Y-8825284D01*
X3908786Y-8825284D02*
X3889739Y-8825284D01*
X3889739Y-8825284D02*
X3870691Y-8815760D01*
X3870691Y-8815760D02*
X3861167Y-8806236D01*
X3861167Y-8806236D02*
X3851643Y-8787189D01*
X3851643Y-8787189D02*
X3842120Y-8749093D01*
X3842120Y-8749093D02*
X3842120Y-8701474D01*
X3842120Y-8701474D02*
X3851643Y-8663379D01*
X3851643Y-8663379D02*
X3861167Y-8644331D01*
X3861167Y-8644331D02*
X3870691Y-8634808D01*
X3870691Y-8634808D02*
X3889739Y-8625284D01*
X4042120Y-8825284D02*
X4042120Y-8691950D01*
X4042120Y-8710998D02*
X4051643Y-8701474D01*
X4051643Y-8701474D02*
X4070691Y-8691950D01*
X4070691Y-8691950D02*
X4099263Y-8691950D01*
X4099263Y-8691950D02*
X4118310Y-8701474D01*
X4118310Y-8701474D02*
X4127834Y-8720522D01*
X4127834Y-8720522D02*
X4127834Y-8825284D01*
X4127834Y-8720522D02*
X4137358Y-8701474D01*
X4137358Y-8701474D02*
X4156405Y-8691950D01*
X4156405Y-8691950D02*
X4184977Y-8691950D01*
X4184977Y-8691950D02*
X4204025Y-8701474D01*
X4204025Y-8701474D02*
X4213548Y-8720522D01*
X4213548Y-8720522D02*
X4213548Y-8825284D01*
X4308786Y-8825284D02*
X4308786Y-8691950D01*
X4308786Y-8710998D02*
X4318310Y-8701474D01*
X4318310Y-8701474D02*
X4337358Y-8691950D01*
X4337358Y-8691950D02*
X4365929Y-8691950D01*
X4365929Y-8691950D02*
X4384977Y-8701474D01*
X4384977Y-8701474D02*
X4394501Y-8720522D01*
X4394501Y-8720522D02*
X4394501Y-8825284D01*
X4394501Y-8720522D02*
X4404025Y-8701474D01*
X4404025Y-8701474D02*
X4423072Y-8691950D01*
X4423072Y-8691950D02*
X4451644Y-8691950D01*
X4451644Y-8691950D02*
X4470691Y-8701474D01*
X4470691Y-8701474D02*
X4480215Y-8720522D01*
X4480215Y-8720522D02*
X4480215Y-8825284D01*
X4870691Y-8615760D02*
X4699263Y-8872903D01*
X5127834Y-8625284D02*
X5146882Y-8625284D01*
X5146882Y-8625284D02*
X5165929Y-8634808D01*
X5165929Y-8634808D02*
X5175453Y-8644331D01*
X5175453Y-8644331D02*
X5184977Y-8663379D01*
X5184977Y-8663379D02*
X5194501Y-8701474D01*
X5194501Y-8701474D02*
X5194501Y-8749093D01*
X5194501Y-8749093D02*
X5184977Y-8787189D01*
X5184977Y-8787189D02*
X5175453Y-8806236D01*
X5175453Y-8806236D02*
X5165929Y-8815760D01*
X5165929Y-8815760D02*
X5146882Y-8825284D01*
X5146882Y-8825284D02*
X5127834Y-8825284D01*
X5127834Y-8825284D02*
X5108787Y-8815760D01*
X5108787Y-8815760D02*
X5099263Y-8806236D01*
X5099263Y-8806236D02*
X5089739Y-8787189D01*
X5089739Y-8787189D02*
X5080215Y-8749093D01*
X5080215Y-8749093D02*
X5080215Y-8701474D01*
X5080215Y-8701474D02*
X5089739Y-8663379D01*
X5089739Y-8663379D02*
X5099263Y-8644331D01*
X5099263Y-8644331D02*
X5108787Y-8634808D01*
X5108787Y-8634808D02*
X5127834Y-8625284D01*
X5280215Y-8806236D02*
X5289739Y-8815760D01*
X5289739Y-8815760D02*
X5280215Y-8825284D01*
X5280215Y-8825284D02*
X5270691Y-8815760D01*
X5270691Y-8815760D02*
X5280215Y-8806236D01*
X5280215Y-8806236D02*
X5280215Y-8825284D01*
X5413548Y-8625284D02*
X5432596Y-8625284D01*
X5432596Y-8625284D02*
X5451644Y-8634808D01*
X5451644Y-8634808D02*
X5461168Y-8644331D01*
X5461168Y-8644331D02*
X5470691Y-8663379D01*
X5470691Y-8663379D02*
X5480215Y-8701474D01*
X5480215Y-8701474D02*
X5480215Y-8749093D01*
X5480215Y-8749093D02*
X5470691Y-8787189D01*
X5470691Y-8787189D02*
X5461168Y-8806236D01*
X5461168Y-8806236D02*
X5451644Y-8815760D01*
X5451644Y-8815760D02*
X5432596Y-8825284D01*
X5432596Y-8825284D02*
X5413548Y-8825284D01*
X5413548Y-8825284D02*
X5394501Y-8815760D01*
X5394501Y-8815760D02*
X5384977Y-8806236D01*
X5384977Y-8806236D02*
X5375453Y-8787189D01*
X5375453Y-8787189D02*
X5365929Y-8749093D01*
X5365929Y-8749093D02*
X5365929Y-8701474D01*
X5365929Y-8701474D02*
X5375453Y-8663379D01*
X5375453Y-8663379D02*
X5384977Y-8644331D01*
X5384977Y-8644331D02*
X5394501Y-8634808D01*
X5394501Y-8634808D02*
X5413548Y-8625284D01*
X5651644Y-8691950D02*
X5651644Y-8825284D01*
X5604025Y-8615760D02*
X5556406Y-8758617D01*
X5556406Y-8758617D02*
X5680215Y-8758617D01*
X5737358Y-8625284D02*
X5861167Y-8625284D01*
X5861167Y-8625284D02*
X5794501Y-8701474D01*
X5794501Y-8701474D02*
X5823072Y-8701474D01*
X5823072Y-8701474D02*
X5842120Y-8710998D01*
X5842120Y-8710998D02*
X5851644Y-8720522D01*
X5851644Y-8720522D02*
X5861167Y-8739570D01*
X5861167Y-8739570D02*
X5861167Y-8787189D01*
X5861167Y-8787189D02*
X5851644Y-8806236D01*
X5851644Y-8806236D02*
X5842120Y-8815760D01*
X5842120Y-8815760D02*
X5823072Y-8825284D01*
X5823072Y-8825284D02*
X5765929Y-8825284D01*
X5765929Y-8825284D02*
X5746882Y-8815760D01*
X5746882Y-8815760D02*
X5737358Y-8806236D01*
X5927834Y-8625284D02*
X6051644Y-8625284D01*
X6051644Y-8625284D02*
X5984977Y-8701474D01*
X5984977Y-8701474D02*
X6013548Y-8701474D01*
X6013548Y-8701474D02*
X6032596Y-8710998D01*
X6032596Y-8710998D02*
X6042120Y-8720522D01*
X6042120Y-8720522D02*
X6051644Y-8739570D01*
X6051644Y-8739570D02*
X6051644Y-8787189D01*
X6051644Y-8787189D02*
X6042120Y-8806236D01*
X6042120Y-8806236D02*
X6032596Y-8815760D01*
X6032596Y-8815760D02*
X6013548Y-8825284D01*
X6013548Y-8825284D02*
X5956406Y-8825284D01*
X5956406Y-8825284D02*
X5937358Y-8815760D01*
X5937358Y-8815760D02*
X5927834Y-8806236D01*
X6127834Y-8625284D02*
X6127834Y-8663379D01*
X6204025Y-8625284D02*
X6204025Y-8663379D01*
X6499263Y-8901474D02*
X6489739Y-8891950D01*
X6489739Y-8891950D02*
X6470691Y-8863379D01*
X6470691Y-8863379D02*
X6461168Y-8844331D01*
X6461168Y-8844331D02*
X6451644Y-8815760D01*
X6451644Y-8815760D02*
X6442120Y-8768141D01*
X6442120Y-8768141D02*
X6442120Y-8730046D01*
X6442120Y-8730046D02*
X6451644Y-8682427D01*
X6451644Y-8682427D02*
X6461168Y-8653855D01*
X6461168Y-8653855D02*
X6470691Y-8634808D01*
X6470691Y-8634808D02*
X6489739Y-8606236D01*
X6489739Y-8606236D02*
X6499263Y-8596712D01*
X6661168Y-8691950D02*
X6661168Y-8825284D01*
X6613548Y-8615760D02*
X6565929Y-8758617D01*
X6565929Y-8758617D02*
X6689739Y-8758617D01*
X6918310Y-8825284D02*
X6918310Y-8625284D01*
X7004025Y-8825284D02*
X7004025Y-8720522D01*
X7004025Y-8720522D02*
X6994501Y-8701474D01*
X6994501Y-8701474D02*
X6975453Y-8691950D01*
X6975453Y-8691950D02*
X6946882Y-8691950D01*
X6946882Y-8691950D02*
X6927834Y-8701474D01*
X6927834Y-8701474D02*
X6918310Y-8710998D01*
X7127834Y-8825284D02*
X7108787Y-8815760D01*
X7108787Y-8815760D02*
X7099263Y-8806236D01*
X7099263Y-8806236D02*
X7089739Y-8787189D01*
X7089739Y-8787189D02*
X7089739Y-8730046D01*
X7089739Y-8730046D02*
X7099263Y-8710998D01*
X7099263Y-8710998D02*
X7108787Y-8701474D01*
X7108787Y-8701474D02*
X7127834Y-8691950D01*
X7127834Y-8691950D02*
X7156406Y-8691950D01*
X7156406Y-8691950D02*
X7175453Y-8701474D01*
X7175453Y-8701474D02*
X7184977Y-8710998D01*
X7184977Y-8710998D02*
X7194501Y-8730046D01*
X7194501Y-8730046D02*
X7194501Y-8787189D01*
X7194501Y-8787189D02*
X7184977Y-8806236D01*
X7184977Y-8806236D02*
X7175453Y-8815760D01*
X7175453Y-8815760D02*
X7156406Y-8825284D01*
X7156406Y-8825284D02*
X7127834Y-8825284D01*
X7308787Y-8825284D02*
X7289739Y-8815760D01*
X7289739Y-8815760D02*
X7280215Y-8796712D01*
X7280215Y-8796712D02*
X7280215Y-8625284D01*
X7461168Y-8815760D02*
X7442120Y-8825284D01*
X7442120Y-8825284D02*
X7404025Y-8825284D01*
X7404025Y-8825284D02*
X7384977Y-8815760D01*
X7384977Y-8815760D02*
X7375453Y-8796712D01*
X7375453Y-8796712D02*
X7375453Y-8720522D01*
X7375453Y-8720522D02*
X7384977Y-8701474D01*
X7384977Y-8701474D02*
X7404025Y-8691950D01*
X7404025Y-8691950D02*
X7442120Y-8691950D01*
X7442120Y-8691950D02*
X7461168Y-8701474D01*
X7461168Y-8701474D02*
X7470691Y-8720522D01*
X7470691Y-8720522D02*
X7470691Y-8739570D01*
X7470691Y-8739570D02*
X7375453Y-8758617D01*
X7546882Y-8815760D02*
X7565930Y-8825284D01*
X7565930Y-8825284D02*
X7604025Y-8825284D01*
X7604025Y-8825284D02*
X7623072Y-8815760D01*
X7623072Y-8815760D02*
X7632596Y-8796712D01*
X7632596Y-8796712D02*
X7632596Y-8787189D01*
X7632596Y-8787189D02*
X7623072Y-8768141D01*
X7623072Y-8768141D02*
X7604025Y-8758617D01*
X7604025Y-8758617D02*
X7575453Y-8758617D01*
X7575453Y-8758617D02*
X7556406Y-8749093D01*
X7556406Y-8749093D02*
X7546882Y-8730046D01*
X7546882Y-8730046D02*
X7546882Y-8720522D01*
X7546882Y-8720522D02*
X7556406Y-8701474D01*
X7556406Y-8701474D02*
X7575453Y-8691950D01*
X7575453Y-8691950D02*
X7604025Y-8691950D01*
X7604025Y-8691950D02*
X7623072Y-8701474D01*
X7699263Y-8901474D02*
X7708787Y-8891950D01*
X7708787Y-8891950D02*
X7727834Y-8863379D01*
X7727834Y-8863379D02*
X7737358Y-8844331D01*
X7737358Y-8844331D02*
X7746882Y-8815760D01*
X7746882Y-8815760D02*
X7756406Y-8768141D01*
X7756406Y-8768141D02*
X7756406Y-8730046D01*
X7756406Y-8730046D02*
X7746882Y-8682427D01*
X7746882Y-8682427D02*
X7737358Y-8653855D01*
X7737358Y-8653855D02*
X7727834Y-8634808D01*
X7727834Y-8634808D02*
X7708787Y-8606236D01*
X7708787Y-8606236D02*
X7699263Y-8596712D01*
M02*
