G04 #@! TF.GenerationSoftware,KiCad,Pcbnew,8.0.2*
G04 #@! TF.CreationDate,2024-05-12T15:56:14+02:00*
G04 #@! TF.ProjectId,LimbusOne,4c696d62-7573-44f6-9e65-2e6b69636164,v.0.1*
G04 #@! TF.SameCoordinates,Original*
G04 #@! TF.FileFunction,Legend,Top*
G04 #@! TF.FilePolarity,Positive*
%FSLAX46Y46*%
G04 Gerber Fmt 4.6, Leading zero omitted, Abs format (unit mm)*
G04 Created by KiCad (PCBNEW 8.0.2) date 2024-05-12 15:56:14*
%MOMM*%
%LPD*%
G01*
G04 APERTURE LIST*
G04 Aperture macros list*
%AMRoundRect*
0 Rectangle with rounded corners*
0 $1 Rounding radius*
0 $2 $3 $4 $5 $6 $7 $8 $9 X,Y pos of 4 corners*
0 Add a 4 corners polygon primitive as box body*
4,1,4,$2,$3,$4,$5,$6,$7,$8,$9,$2,$3,0*
0 Add four circle primitives for the rounded corners*
1,1,$1+$1,$2,$3*
1,1,$1+$1,$4,$5*
1,1,$1+$1,$6,$7*
1,1,$1+$1,$8,$9*
0 Add four rect primitives between the rounded corners*
20,1,$1+$1,$2,$3,$4,$5,0*
20,1,$1+$1,$4,$5,$6,$7,0*
20,1,$1+$1,$6,$7,$8,$9,0*
20,1,$1+$1,$8,$9,$2,$3,0*%
G04 Aperture macros list end*
%ADD10C,0.100000*%
%ADD11C,0.150000*%
%ADD12C,0.081280*%
%ADD13C,0.200000*%
%ADD14C,0.120000*%
%ADD15RoundRect,0.101600X1.000000X0.700000X-1.000000X0.700000X-1.000000X-0.700000X1.000000X-0.700000X0*%
%ADD16RoundRect,0.250000X-0.650000X0.325000X-0.650000X-0.325000X0.650000X-0.325000X0.650000X0.325000X0*%
%ADD17R,1.700000X1.700000*%
%ADD18O,1.700000X1.700000*%
%ADD19RoundRect,0.250000X0.650000X-0.325000X0.650000X0.325000X-0.650000X0.325000X-0.650000X-0.325000X0*%
%ADD20RoundRect,0.125000X-0.625000X-0.125000X0.625000X-0.125000X0.625000X0.125000X-0.625000X0.125000X0*%
%ADD21RoundRect,0.125000X-0.125000X-0.625000X0.125000X-0.625000X0.125000X0.625000X-0.125000X0.625000X0*%
%ADD22RoundRect,0.250000X-0.312500X-0.625000X0.312500X-0.625000X0.312500X0.625000X-0.312500X0.625000X0*%
%ADD23RoundRect,0.250000X-0.325000X-0.650000X0.325000X-0.650000X0.325000X0.650000X-0.325000X0.650000X0*%
%ADD24R,1.150000X1.550000*%
%ADD25RoundRect,0.150000X-0.587500X-0.150000X0.587500X-0.150000X0.587500X0.150000X-0.587500X0.150000X0*%
%ADD26RoundRect,0.250000X0.325000X0.650000X-0.325000X0.650000X-0.325000X-0.650000X0.325000X-0.650000X0*%
%ADD27C,1.000000*%
%ADD28R,2.000000X0.500000*%
%ADD29R,1.700000X2.000000*%
%ADD30RoundRect,0.150000X-0.150000X0.825000X-0.150000X-0.825000X0.150000X-0.825000X0.150000X0.825000X0*%
%ADD31RoundRect,0.250000X0.312500X0.625000X-0.312500X0.625000X-0.312500X-0.625000X0.312500X-0.625000X0*%
%ADD32RoundRect,0.150000X0.150000X-0.825000X0.150000X0.825000X-0.150000X0.825000X-0.150000X-0.825000X0*%
%ADD33R,2.200000X2.200000*%
%ADD34C,2.200000*%
%ADD35RoundRect,0.250000X0.375000X0.625000X-0.375000X0.625000X-0.375000X-0.625000X0.375000X-0.625000X0*%
%ADD36R,2.000000X4.500000*%
%ADD37RoundRect,0.250000X-0.625000X0.312500X-0.625000X-0.312500X0.625000X-0.312500X0.625000X0.312500X0*%
%ADD38RoundRect,0.250000X0.625000X-0.312500X0.625000X0.312500X-0.625000X0.312500X-0.625000X-0.312500X0*%
%ADD39RoundRect,0.150000X0.587500X0.150000X-0.587500X0.150000X-0.587500X-0.150000X0.587500X-0.150000X0*%
%ADD40RoundRect,0.250000X-0.375000X-0.625000X0.375000X-0.625000X0.375000X0.625000X-0.375000X0.625000X0*%
%ADD41RoundRect,0.375000X-0.625000X-0.375000X0.625000X-0.375000X0.625000X0.375000X-0.625000X0.375000X0*%
%ADD42RoundRect,0.500000X-0.500000X-1.400000X0.500000X-1.400000X0.500000X1.400000X-0.500000X1.400000X0*%
%ADD43RoundRect,0.150000X0.825000X0.150000X-0.825000X0.150000X-0.825000X-0.150000X0.825000X-0.150000X0*%
G04 APERTURE END LIST*
D10*
X81158940Y-74673734D02*
X80358940Y-74673734D01*
X80358940Y-74673734D02*
X80358940Y-74368972D01*
X80358940Y-74368972D02*
X80397035Y-74292782D01*
X80397035Y-74292782D02*
X80435130Y-74254687D01*
X80435130Y-74254687D02*
X80511321Y-74216591D01*
X80511321Y-74216591D02*
X80625606Y-74216591D01*
X80625606Y-74216591D02*
X80701797Y-74254687D01*
X80701797Y-74254687D02*
X80739892Y-74292782D01*
X80739892Y-74292782D02*
X80777987Y-74368972D01*
X80777987Y-74368972D02*
X80777987Y-74673734D01*
X80930368Y-73911830D02*
X80930368Y-73530877D01*
X81158940Y-73988020D02*
X80358940Y-73721353D01*
X80358940Y-73721353D02*
X81158940Y-73454687D01*
X80358940Y-72807068D02*
X80358940Y-73188020D01*
X80358940Y-73188020D02*
X80739892Y-73226116D01*
X80739892Y-73226116D02*
X80701797Y-73188020D01*
X80701797Y-73188020D02*
X80663702Y-73111830D01*
X80663702Y-73111830D02*
X80663702Y-72921354D01*
X80663702Y-72921354D02*
X80701797Y-72845163D01*
X80701797Y-72845163D02*
X80739892Y-72807068D01*
X80739892Y-72807068D02*
X80816083Y-72768973D01*
X80816083Y-72768973D02*
X81006559Y-72768973D01*
X81006559Y-72768973D02*
X81082749Y-72807068D01*
X81082749Y-72807068D02*
X81120845Y-72845163D01*
X81120845Y-72845163D02*
X81158940Y-72921354D01*
X81158940Y-72921354D02*
X81158940Y-73111830D01*
X81158940Y-73111830D02*
X81120845Y-73188020D01*
X81120845Y-73188020D02*
X81082749Y-73226116D01*
X82446895Y-74673734D02*
X81646895Y-74673734D01*
X81646895Y-74673734D02*
X81646895Y-74368972D01*
X81646895Y-74368972D02*
X81684990Y-74292782D01*
X81684990Y-74292782D02*
X81723085Y-74254687D01*
X81723085Y-74254687D02*
X81799276Y-74216591D01*
X81799276Y-74216591D02*
X81913561Y-74216591D01*
X81913561Y-74216591D02*
X81989752Y-74254687D01*
X81989752Y-74254687D02*
X82027847Y-74292782D01*
X82027847Y-74292782D02*
X82065942Y-74368972D01*
X82065942Y-74368972D02*
X82065942Y-74673734D01*
X82218323Y-73911830D02*
X82218323Y-73530877D01*
X82446895Y-73988020D02*
X81646895Y-73721353D01*
X81646895Y-73721353D02*
X82446895Y-73454687D01*
X81646895Y-73264211D02*
X81646895Y-72730877D01*
X81646895Y-72730877D02*
X82446895Y-73073735D01*
X55398525Y-71625734D02*
X54598525Y-71625734D01*
X54598525Y-71625734D02*
X54598525Y-71320972D01*
X54598525Y-71320972D02*
X54636620Y-71244782D01*
X54636620Y-71244782D02*
X54674715Y-71206687D01*
X54674715Y-71206687D02*
X54750906Y-71168591D01*
X54750906Y-71168591D02*
X54865191Y-71168591D01*
X54865191Y-71168591D02*
X54941382Y-71206687D01*
X54941382Y-71206687D02*
X54979477Y-71244782D01*
X54979477Y-71244782D02*
X55017572Y-71320972D01*
X55017572Y-71320972D02*
X55017572Y-71625734D01*
X55169953Y-70863830D02*
X55169953Y-70482877D01*
X55398525Y-70940020D02*
X54598525Y-70673353D01*
X54598525Y-70673353D02*
X55398525Y-70406687D01*
X54674715Y-70178116D02*
X54636620Y-70140020D01*
X54636620Y-70140020D02*
X54598525Y-70063830D01*
X54598525Y-70063830D02*
X54598525Y-69873354D01*
X54598525Y-69873354D02*
X54636620Y-69797163D01*
X54636620Y-69797163D02*
X54674715Y-69759068D01*
X54674715Y-69759068D02*
X54750906Y-69720973D01*
X54750906Y-69720973D02*
X54827096Y-69720973D01*
X54827096Y-69720973D02*
X54941382Y-69759068D01*
X54941382Y-69759068D02*
X55398525Y-70216211D01*
X55398525Y-70216211D02*
X55398525Y-69720973D01*
X57974435Y-71625734D02*
X57174435Y-71625734D01*
X57174435Y-71625734D02*
X57174435Y-71320972D01*
X57174435Y-71320972D02*
X57212530Y-71244782D01*
X57212530Y-71244782D02*
X57250625Y-71206687D01*
X57250625Y-71206687D02*
X57326816Y-71168591D01*
X57326816Y-71168591D02*
X57441101Y-71168591D01*
X57441101Y-71168591D02*
X57517292Y-71206687D01*
X57517292Y-71206687D02*
X57555387Y-71244782D01*
X57555387Y-71244782D02*
X57593482Y-71320972D01*
X57593482Y-71320972D02*
X57593482Y-71625734D01*
X57555387Y-70559068D02*
X57593482Y-70444782D01*
X57593482Y-70444782D02*
X57631578Y-70406687D01*
X57631578Y-70406687D02*
X57707768Y-70368591D01*
X57707768Y-70368591D02*
X57822054Y-70368591D01*
X57822054Y-70368591D02*
X57898244Y-70406687D01*
X57898244Y-70406687D02*
X57936340Y-70444782D01*
X57936340Y-70444782D02*
X57974435Y-70520972D01*
X57974435Y-70520972D02*
X57974435Y-70825734D01*
X57974435Y-70825734D02*
X57174435Y-70825734D01*
X57174435Y-70825734D02*
X57174435Y-70559068D01*
X57174435Y-70559068D02*
X57212530Y-70482877D01*
X57212530Y-70482877D02*
X57250625Y-70444782D01*
X57250625Y-70444782D02*
X57326816Y-70406687D01*
X57326816Y-70406687D02*
X57403006Y-70406687D01*
X57403006Y-70406687D02*
X57479197Y-70444782D01*
X57479197Y-70444782D02*
X57517292Y-70482877D01*
X57517292Y-70482877D02*
X57555387Y-70559068D01*
X57555387Y-70559068D02*
X57555387Y-70825734D01*
X57174435Y-70101925D02*
X57174435Y-69568591D01*
X57174435Y-69568591D02*
X57974435Y-69911449D01*
X60550345Y-71625734D02*
X59750345Y-71625734D01*
X59750345Y-71625734D02*
X59750345Y-71320972D01*
X59750345Y-71320972D02*
X59788440Y-71244782D01*
X59788440Y-71244782D02*
X59826535Y-71206687D01*
X59826535Y-71206687D02*
X59902726Y-71168591D01*
X59902726Y-71168591D02*
X60017011Y-71168591D01*
X60017011Y-71168591D02*
X60093202Y-71206687D01*
X60093202Y-71206687D02*
X60131297Y-71244782D01*
X60131297Y-71244782D02*
X60169392Y-71320972D01*
X60169392Y-71320972D02*
X60169392Y-71625734D01*
X60131297Y-70559068D02*
X60169392Y-70444782D01*
X60169392Y-70444782D02*
X60207488Y-70406687D01*
X60207488Y-70406687D02*
X60283678Y-70368591D01*
X60283678Y-70368591D02*
X60397964Y-70368591D01*
X60397964Y-70368591D02*
X60474154Y-70406687D01*
X60474154Y-70406687D02*
X60512250Y-70444782D01*
X60512250Y-70444782D02*
X60550345Y-70520972D01*
X60550345Y-70520972D02*
X60550345Y-70825734D01*
X60550345Y-70825734D02*
X59750345Y-70825734D01*
X59750345Y-70825734D02*
X59750345Y-70559068D01*
X59750345Y-70559068D02*
X59788440Y-70482877D01*
X59788440Y-70482877D02*
X59826535Y-70444782D01*
X59826535Y-70444782D02*
X59902726Y-70406687D01*
X59902726Y-70406687D02*
X59978916Y-70406687D01*
X59978916Y-70406687D02*
X60055107Y-70444782D01*
X60055107Y-70444782D02*
X60093202Y-70482877D01*
X60093202Y-70482877D02*
X60131297Y-70559068D01*
X60131297Y-70559068D02*
X60131297Y-70825734D01*
X59750345Y-69682877D02*
X59750345Y-69835258D01*
X59750345Y-69835258D02*
X59788440Y-69911449D01*
X59788440Y-69911449D02*
X59826535Y-69949544D01*
X59826535Y-69949544D02*
X59940821Y-70025734D01*
X59940821Y-70025734D02*
X60093202Y-70063830D01*
X60093202Y-70063830D02*
X60397964Y-70063830D01*
X60397964Y-70063830D02*
X60474154Y-70025734D01*
X60474154Y-70025734D02*
X60512250Y-69987639D01*
X60512250Y-69987639D02*
X60550345Y-69911449D01*
X60550345Y-69911449D02*
X60550345Y-69759068D01*
X60550345Y-69759068D02*
X60512250Y-69682877D01*
X60512250Y-69682877D02*
X60474154Y-69644782D01*
X60474154Y-69644782D02*
X60397964Y-69606687D01*
X60397964Y-69606687D02*
X60207488Y-69606687D01*
X60207488Y-69606687D02*
X60131297Y-69644782D01*
X60131297Y-69644782D02*
X60093202Y-69682877D01*
X60093202Y-69682877D02*
X60055107Y-69759068D01*
X60055107Y-69759068D02*
X60055107Y-69911449D01*
X60055107Y-69911449D02*
X60093202Y-69987639D01*
X60093202Y-69987639D02*
X60131297Y-70025734D01*
X60131297Y-70025734D02*
X60207488Y-70063830D01*
X63126255Y-71625734D02*
X62326255Y-71625734D01*
X62326255Y-71625734D02*
X62326255Y-71320972D01*
X62326255Y-71320972D02*
X62364350Y-71244782D01*
X62364350Y-71244782D02*
X62402445Y-71206687D01*
X62402445Y-71206687D02*
X62478636Y-71168591D01*
X62478636Y-71168591D02*
X62592921Y-71168591D01*
X62592921Y-71168591D02*
X62669112Y-71206687D01*
X62669112Y-71206687D02*
X62707207Y-71244782D01*
X62707207Y-71244782D02*
X62745302Y-71320972D01*
X62745302Y-71320972D02*
X62745302Y-71625734D01*
X62897683Y-70863830D02*
X62897683Y-70482877D01*
X63126255Y-70940020D02*
X62326255Y-70673353D01*
X62326255Y-70673353D02*
X63126255Y-70406687D01*
X62326255Y-70216211D02*
X62326255Y-69720973D01*
X62326255Y-69720973D02*
X62631017Y-69987639D01*
X62631017Y-69987639D02*
X62631017Y-69873354D01*
X62631017Y-69873354D02*
X62669112Y-69797163D01*
X62669112Y-69797163D02*
X62707207Y-69759068D01*
X62707207Y-69759068D02*
X62783398Y-69720973D01*
X62783398Y-69720973D02*
X62973874Y-69720973D01*
X62973874Y-69720973D02*
X63050064Y-69759068D01*
X63050064Y-69759068D02*
X63088160Y-69797163D01*
X63088160Y-69797163D02*
X63126255Y-69873354D01*
X63126255Y-69873354D02*
X63126255Y-70101925D01*
X63126255Y-70101925D02*
X63088160Y-70178116D01*
X63088160Y-70178116D02*
X63050064Y-70216211D01*
X65702165Y-71625734D02*
X64902165Y-71625734D01*
X64902165Y-71625734D02*
X64902165Y-71320972D01*
X64902165Y-71320972D02*
X64940260Y-71244782D01*
X64940260Y-71244782D02*
X64978355Y-71206687D01*
X64978355Y-71206687D02*
X65054546Y-71168591D01*
X65054546Y-71168591D02*
X65168831Y-71168591D01*
X65168831Y-71168591D02*
X65245022Y-71206687D01*
X65245022Y-71206687D02*
X65283117Y-71244782D01*
X65283117Y-71244782D02*
X65321212Y-71320972D01*
X65321212Y-71320972D02*
X65321212Y-71625734D01*
X65473593Y-70863830D02*
X65473593Y-70482877D01*
X65702165Y-70940020D02*
X64902165Y-70673353D01*
X64902165Y-70673353D02*
X65702165Y-70406687D01*
X65702165Y-70101925D02*
X65702165Y-69949544D01*
X65702165Y-69949544D02*
X65664070Y-69873354D01*
X65664070Y-69873354D02*
X65625974Y-69835258D01*
X65625974Y-69835258D02*
X65511689Y-69759068D01*
X65511689Y-69759068D02*
X65359308Y-69720973D01*
X65359308Y-69720973D02*
X65054546Y-69720973D01*
X65054546Y-69720973D02*
X64978355Y-69759068D01*
X64978355Y-69759068D02*
X64940260Y-69797163D01*
X64940260Y-69797163D02*
X64902165Y-69873354D01*
X64902165Y-69873354D02*
X64902165Y-70025735D01*
X64902165Y-70025735D02*
X64940260Y-70101925D01*
X64940260Y-70101925D02*
X64978355Y-70140020D01*
X64978355Y-70140020D02*
X65054546Y-70178116D01*
X65054546Y-70178116D02*
X65245022Y-70178116D01*
X65245022Y-70178116D02*
X65321212Y-70140020D01*
X65321212Y-70140020D02*
X65359308Y-70101925D01*
X65359308Y-70101925D02*
X65397403Y-70025735D01*
X65397403Y-70025735D02*
X65397403Y-69873354D01*
X65397403Y-69873354D02*
X65359308Y-69797163D01*
X65359308Y-69797163D02*
X65321212Y-69759068D01*
X65321212Y-69759068D02*
X65245022Y-69720973D01*
X68278075Y-71625734D02*
X67478075Y-71625734D01*
X67478075Y-71625734D02*
X67478075Y-71320972D01*
X67478075Y-71320972D02*
X67516170Y-71244782D01*
X67516170Y-71244782D02*
X67554265Y-71206687D01*
X67554265Y-71206687D02*
X67630456Y-71168591D01*
X67630456Y-71168591D02*
X67744741Y-71168591D01*
X67744741Y-71168591D02*
X67820932Y-71206687D01*
X67820932Y-71206687D02*
X67859027Y-71244782D01*
X67859027Y-71244782D02*
X67897122Y-71320972D01*
X67897122Y-71320972D02*
X67897122Y-71625734D01*
X68049503Y-70863830D02*
X68049503Y-70482877D01*
X68278075Y-70940020D02*
X67478075Y-70673353D01*
X67478075Y-70673353D02*
X68278075Y-70406687D01*
X68278075Y-69720973D02*
X68278075Y-70178116D01*
X68278075Y-69949544D02*
X67478075Y-69949544D01*
X67478075Y-69949544D02*
X67592360Y-70025735D01*
X67592360Y-70025735D02*
X67668551Y-70101925D01*
X67668551Y-70101925D02*
X67706646Y-70178116D01*
X67478075Y-69225734D02*
X67478075Y-69149544D01*
X67478075Y-69149544D02*
X67516170Y-69073353D01*
X67516170Y-69073353D02*
X67554265Y-69035258D01*
X67554265Y-69035258D02*
X67630456Y-68997163D01*
X67630456Y-68997163D02*
X67782837Y-68959068D01*
X67782837Y-68959068D02*
X67973313Y-68959068D01*
X67973313Y-68959068D02*
X68125694Y-68997163D01*
X68125694Y-68997163D02*
X68201884Y-69035258D01*
X68201884Y-69035258D02*
X68239980Y-69073353D01*
X68239980Y-69073353D02*
X68278075Y-69149544D01*
X68278075Y-69149544D02*
X68278075Y-69225734D01*
X68278075Y-69225734D02*
X68239980Y-69301925D01*
X68239980Y-69301925D02*
X68201884Y-69340020D01*
X68201884Y-69340020D02*
X68125694Y-69378115D01*
X68125694Y-69378115D02*
X67973313Y-69416211D01*
X67973313Y-69416211D02*
X67782837Y-69416211D01*
X67782837Y-69416211D02*
X67630456Y-69378115D01*
X67630456Y-69378115D02*
X67554265Y-69340020D01*
X67554265Y-69340020D02*
X67516170Y-69301925D01*
X67516170Y-69301925D02*
X67478075Y-69225734D01*
X70853985Y-71625734D02*
X70053985Y-71625734D01*
X70053985Y-71625734D02*
X70053985Y-71320972D01*
X70053985Y-71320972D02*
X70092080Y-71244782D01*
X70092080Y-71244782D02*
X70130175Y-71206687D01*
X70130175Y-71206687D02*
X70206366Y-71168591D01*
X70206366Y-71168591D02*
X70320651Y-71168591D01*
X70320651Y-71168591D02*
X70396842Y-71206687D01*
X70396842Y-71206687D02*
X70434937Y-71244782D01*
X70434937Y-71244782D02*
X70473032Y-71320972D01*
X70473032Y-71320972D02*
X70473032Y-71625734D01*
X70625413Y-70863830D02*
X70625413Y-70482877D01*
X70853985Y-70940020D02*
X70053985Y-70673353D01*
X70053985Y-70673353D02*
X70853985Y-70406687D01*
X70320651Y-69797163D02*
X70853985Y-69797163D01*
X70015890Y-69987639D02*
X70587318Y-70178116D01*
X70587318Y-70178116D02*
X70587318Y-69682877D01*
X73429895Y-71625734D02*
X72629895Y-71625734D01*
X72629895Y-71625734D02*
X72629895Y-71320972D01*
X72629895Y-71320972D02*
X72667990Y-71244782D01*
X72667990Y-71244782D02*
X72706085Y-71206687D01*
X72706085Y-71206687D02*
X72782276Y-71168591D01*
X72782276Y-71168591D02*
X72896561Y-71168591D01*
X72896561Y-71168591D02*
X72972752Y-71206687D01*
X72972752Y-71206687D02*
X73010847Y-71244782D01*
X73010847Y-71244782D02*
X73048942Y-71320972D01*
X73048942Y-71320972D02*
X73048942Y-71625734D01*
X73201323Y-70863830D02*
X73201323Y-70482877D01*
X73429895Y-70940020D02*
X72629895Y-70673353D01*
X72629895Y-70673353D02*
X73429895Y-70406687D01*
X72629895Y-69797163D02*
X72629895Y-69949544D01*
X72629895Y-69949544D02*
X72667990Y-70025735D01*
X72667990Y-70025735D02*
X72706085Y-70063830D01*
X72706085Y-70063830D02*
X72820371Y-70140020D01*
X72820371Y-70140020D02*
X72972752Y-70178116D01*
X72972752Y-70178116D02*
X73277514Y-70178116D01*
X73277514Y-70178116D02*
X73353704Y-70140020D01*
X73353704Y-70140020D02*
X73391800Y-70101925D01*
X73391800Y-70101925D02*
X73429895Y-70025735D01*
X73429895Y-70025735D02*
X73429895Y-69873354D01*
X73429895Y-69873354D02*
X73391800Y-69797163D01*
X73391800Y-69797163D02*
X73353704Y-69759068D01*
X73353704Y-69759068D02*
X73277514Y-69720973D01*
X73277514Y-69720973D02*
X73087038Y-69720973D01*
X73087038Y-69720973D02*
X73010847Y-69759068D01*
X73010847Y-69759068D02*
X72972752Y-69797163D01*
X72972752Y-69797163D02*
X72934657Y-69873354D01*
X72934657Y-69873354D02*
X72934657Y-70025735D01*
X72934657Y-70025735D02*
X72972752Y-70101925D01*
X72972752Y-70101925D02*
X73010847Y-70140020D01*
X73010847Y-70140020D02*
X73087038Y-70178116D01*
X55580705Y-37716734D02*
X54780705Y-37716734D01*
X54780705Y-37716734D02*
X54780705Y-37411972D01*
X54780705Y-37411972D02*
X54818800Y-37335782D01*
X54818800Y-37335782D02*
X54856895Y-37297687D01*
X54856895Y-37297687D02*
X54933086Y-37259591D01*
X54933086Y-37259591D02*
X55047371Y-37259591D01*
X55047371Y-37259591D02*
X55123562Y-37297687D01*
X55123562Y-37297687D02*
X55161657Y-37335782D01*
X55161657Y-37335782D02*
X55199752Y-37411972D01*
X55199752Y-37411972D02*
X55199752Y-37716734D01*
X55161657Y-36650068D02*
X55199752Y-36535782D01*
X55199752Y-36535782D02*
X55237848Y-36497687D01*
X55237848Y-36497687D02*
X55314038Y-36459591D01*
X55314038Y-36459591D02*
X55428324Y-36459591D01*
X55428324Y-36459591D02*
X55504514Y-36497687D01*
X55504514Y-36497687D02*
X55542610Y-36535782D01*
X55542610Y-36535782D02*
X55580705Y-36611972D01*
X55580705Y-36611972D02*
X55580705Y-36916734D01*
X55580705Y-36916734D02*
X54780705Y-36916734D01*
X54780705Y-36916734D02*
X54780705Y-36650068D01*
X54780705Y-36650068D02*
X54818800Y-36573877D01*
X54818800Y-36573877D02*
X54856895Y-36535782D01*
X54856895Y-36535782D02*
X54933086Y-36497687D01*
X54933086Y-36497687D02*
X55009276Y-36497687D01*
X55009276Y-36497687D02*
X55085467Y-36535782D01*
X55085467Y-36535782D02*
X55123562Y-36573877D01*
X55123562Y-36573877D02*
X55161657Y-36650068D01*
X55161657Y-36650068D02*
X55161657Y-36916734D01*
X54780705Y-35964353D02*
X54780705Y-35888163D01*
X54780705Y-35888163D02*
X54818800Y-35811972D01*
X54818800Y-35811972D02*
X54856895Y-35773877D01*
X54856895Y-35773877D02*
X54933086Y-35735782D01*
X54933086Y-35735782D02*
X55085467Y-35697687D01*
X55085467Y-35697687D02*
X55275943Y-35697687D01*
X55275943Y-35697687D02*
X55428324Y-35735782D01*
X55428324Y-35735782D02*
X55504514Y-35773877D01*
X55504514Y-35773877D02*
X55542610Y-35811972D01*
X55542610Y-35811972D02*
X55580705Y-35888163D01*
X55580705Y-35888163D02*
X55580705Y-35964353D01*
X55580705Y-35964353D02*
X55542610Y-36040544D01*
X55542610Y-36040544D02*
X55504514Y-36078639D01*
X55504514Y-36078639D02*
X55428324Y-36116734D01*
X55428324Y-36116734D02*
X55275943Y-36154830D01*
X55275943Y-36154830D02*
X55085467Y-36154830D01*
X55085467Y-36154830D02*
X54933086Y-36116734D01*
X54933086Y-36116734D02*
X54856895Y-36078639D01*
X54856895Y-36078639D02*
X54818800Y-36040544D01*
X54818800Y-36040544D02*
X54780705Y-35964353D01*
X58156615Y-37716734D02*
X57356615Y-37716734D01*
X57356615Y-37716734D02*
X57356615Y-37411972D01*
X57356615Y-37411972D02*
X57394710Y-37335782D01*
X57394710Y-37335782D02*
X57432805Y-37297687D01*
X57432805Y-37297687D02*
X57508996Y-37259591D01*
X57508996Y-37259591D02*
X57623281Y-37259591D01*
X57623281Y-37259591D02*
X57699472Y-37297687D01*
X57699472Y-37297687D02*
X57737567Y-37335782D01*
X57737567Y-37335782D02*
X57775662Y-37411972D01*
X57775662Y-37411972D02*
X57775662Y-37716734D01*
X57737567Y-36650068D02*
X57775662Y-36535782D01*
X57775662Y-36535782D02*
X57813758Y-36497687D01*
X57813758Y-36497687D02*
X57889948Y-36459591D01*
X57889948Y-36459591D02*
X58004234Y-36459591D01*
X58004234Y-36459591D02*
X58080424Y-36497687D01*
X58080424Y-36497687D02*
X58118520Y-36535782D01*
X58118520Y-36535782D02*
X58156615Y-36611972D01*
X58156615Y-36611972D02*
X58156615Y-36916734D01*
X58156615Y-36916734D02*
X57356615Y-36916734D01*
X57356615Y-36916734D02*
X57356615Y-36650068D01*
X57356615Y-36650068D02*
X57394710Y-36573877D01*
X57394710Y-36573877D02*
X57432805Y-36535782D01*
X57432805Y-36535782D02*
X57508996Y-36497687D01*
X57508996Y-36497687D02*
X57585186Y-36497687D01*
X57585186Y-36497687D02*
X57661377Y-36535782D01*
X57661377Y-36535782D02*
X57699472Y-36573877D01*
X57699472Y-36573877D02*
X57737567Y-36650068D01*
X57737567Y-36650068D02*
X57737567Y-36916734D01*
X58156615Y-35697687D02*
X58156615Y-36154830D01*
X58156615Y-35926258D02*
X57356615Y-35926258D01*
X57356615Y-35926258D02*
X57470900Y-36002449D01*
X57470900Y-36002449D02*
X57547091Y-36078639D01*
X57547091Y-36078639D02*
X57585186Y-36154830D01*
X60732525Y-37716734D02*
X59932525Y-37716734D01*
X59932525Y-37716734D02*
X59932525Y-37411972D01*
X59932525Y-37411972D02*
X59970620Y-37335782D01*
X59970620Y-37335782D02*
X60008715Y-37297687D01*
X60008715Y-37297687D02*
X60084906Y-37259591D01*
X60084906Y-37259591D02*
X60199191Y-37259591D01*
X60199191Y-37259591D02*
X60275382Y-37297687D01*
X60275382Y-37297687D02*
X60313477Y-37335782D01*
X60313477Y-37335782D02*
X60351572Y-37411972D01*
X60351572Y-37411972D02*
X60351572Y-37716734D01*
X60313477Y-36650068D02*
X60351572Y-36535782D01*
X60351572Y-36535782D02*
X60389668Y-36497687D01*
X60389668Y-36497687D02*
X60465858Y-36459591D01*
X60465858Y-36459591D02*
X60580144Y-36459591D01*
X60580144Y-36459591D02*
X60656334Y-36497687D01*
X60656334Y-36497687D02*
X60694430Y-36535782D01*
X60694430Y-36535782D02*
X60732525Y-36611972D01*
X60732525Y-36611972D02*
X60732525Y-36916734D01*
X60732525Y-36916734D02*
X59932525Y-36916734D01*
X59932525Y-36916734D02*
X59932525Y-36650068D01*
X59932525Y-36650068D02*
X59970620Y-36573877D01*
X59970620Y-36573877D02*
X60008715Y-36535782D01*
X60008715Y-36535782D02*
X60084906Y-36497687D01*
X60084906Y-36497687D02*
X60161096Y-36497687D01*
X60161096Y-36497687D02*
X60237287Y-36535782D01*
X60237287Y-36535782D02*
X60275382Y-36573877D01*
X60275382Y-36573877D02*
X60313477Y-36650068D01*
X60313477Y-36650068D02*
X60313477Y-36916734D01*
X60199191Y-35773877D02*
X60732525Y-35773877D01*
X59894430Y-35964353D02*
X60465858Y-36154830D01*
X60465858Y-36154830D02*
X60465858Y-35659591D01*
X63308435Y-37716734D02*
X62508435Y-37716734D01*
X62508435Y-37716734D02*
X62508435Y-37411972D01*
X62508435Y-37411972D02*
X62546530Y-37335782D01*
X62546530Y-37335782D02*
X62584625Y-37297687D01*
X62584625Y-37297687D02*
X62660816Y-37259591D01*
X62660816Y-37259591D02*
X62775101Y-37259591D01*
X62775101Y-37259591D02*
X62851292Y-37297687D01*
X62851292Y-37297687D02*
X62889387Y-37335782D01*
X62889387Y-37335782D02*
X62927482Y-37411972D01*
X62927482Y-37411972D02*
X62927482Y-37716734D01*
X62889387Y-36650068D02*
X62927482Y-36535782D01*
X62927482Y-36535782D02*
X62965578Y-36497687D01*
X62965578Y-36497687D02*
X63041768Y-36459591D01*
X63041768Y-36459591D02*
X63156054Y-36459591D01*
X63156054Y-36459591D02*
X63232244Y-36497687D01*
X63232244Y-36497687D02*
X63270340Y-36535782D01*
X63270340Y-36535782D02*
X63308435Y-36611972D01*
X63308435Y-36611972D02*
X63308435Y-36916734D01*
X63308435Y-36916734D02*
X62508435Y-36916734D01*
X62508435Y-36916734D02*
X62508435Y-36650068D01*
X62508435Y-36650068D02*
X62546530Y-36573877D01*
X62546530Y-36573877D02*
X62584625Y-36535782D01*
X62584625Y-36535782D02*
X62660816Y-36497687D01*
X62660816Y-36497687D02*
X62737006Y-36497687D01*
X62737006Y-36497687D02*
X62813197Y-36535782D01*
X62813197Y-36535782D02*
X62851292Y-36573877D01*
X62851292Y-36573877D02*
X62889387Y-36650068D01*
X62889387Y-36650068D02*
X62889387Y-36916734D01*
X62508435Y-36192925D02*
X62508435Y-35697687D01*
X62508435Y-35697687D02*
X62813197Y-35964353D01*
X62813197Y-35964353D02*
X62813197Y-35850068D01*
X62813197Y-35850068D02*
X62851292Y-35773877D01*
X62851292Y-35773877D02*
X62889387Y-35735782D01*
X62889387Y-35735782D02*
X62965578Y-35697687D01*
X62965578Y-35697687D02*
X63156054Y-35697687D01*
X63156054Y-35697687D02*
X63232244Y-35735782D01*
X63232244Y-35735782D02*
X63270340Y-35773877D01*
X63270340Y-35773877D02*
X63308435Y-35850068D01*
X63308435Y-35850068D02*
X63308435Y-36078639D01*
X63308435Y-36078639D02*
X63270340Y-36154830D01*
X63270340Y-36154830D02*
X63232244Y-36192925D01*
X65084345Y-37792925D02*
X65084345Y-37297687D01*
X65084345Y-37297687D02*
X65389107Y-37564353D01*
X65389107Y-37564353D02*
X65389107Y-37450068D01*
X65389107Y-37450068D02*
X65427202Y-37373877D01*
X65427202Y-37373877D02*
X65465297Y-37335782D01*
X65465297Y-37335782D02*
X65541488Y-37297687D01*
X65541488Y-37297687D02*
X65731964Y-37297687D01*
X65731964Y-37297687D02*
X65808154Y-37335782D01*
X65808154Y-37335782D02*
X65846250Y-37373877D01*
X65846250Y-37373877D02*
X65884345Y-37450068D01*
X65884345Y-37450068D02*
X65884345Y-37678639D01*
X65884345Y-37678639D02*
X65846250Y-37754830D01*
X65846250Y-37754830D02*
X65808154Y-37792925D01*
X65084345Y-37069115D02*
X65884345Y-36802448D01*
X65884345Y-36802448D02*
X65084345Y-36535782D01*
X65084345Y-36345306D02*
X65084345Y-35850068D01*
X65084345Y-35850068D02*
X65389107Y-36116734D01*
X65389107Y-36116734D02*
X65389107Y-36002449D01*
X65389107Y-36002449D02*
X65427202Y-35926258D01*
X65427202Y-35926258D02*
X65465297Y-35888163D01*
X65465297Y-35888163D02*
X65541488Y-35850068D01*
X65541488Y-35850068D02*
X65731964Y-35850068D01*
X65731964Y-35850068D02*
X65808154Y-35888163D01*
X65808154Y-35888163D02*
X65846250Y-35926258D01*
X65846250Y-35926258D02*
X65884345Y-36002449D01*
X65884345Y-36002449D02*
X65884345Y-36231020D01*
X65884345Y-36231020D02*
X65846250Y-36307211D01*
X65846250Y-36307211D02*
X65808154Y-36345306D01*
X67660255Y-37792925D02*
X67660255Y-37297687D01*
X67660255Y-37297687D02*
X67965017Y-37564353D01*
X67965017Y-37564353D02*
X67965017Y-37450068D01*
X67965017Y-37450068D02*
X68003112Y-37373877D01*
X68003112Y-37373877D02*
X68041207Y-37335782D01*
X68041207Y-37335782D02*
X68117398Y-37297687D01*
X68117398Y-37297687D02*
X68307874Y-37297687D01*
X68307874Y-37297687D02*
X68384064Y-37335782D01*
X68384064Y-37335782D02*
X68422160Y-37373877D01*
X68422160Y-37373877D02*
X68460255Y-37450068D01*
X68460255Y-37450068D02*
X68460255Y-37678639D01*
X68460255Y-37678639D02*
X68422160Y-37754830D01*
X68422160Y-37754830D02*
X68384064Y-37792925D01*
X67660255Y-37069115D02*
X68460255Y-36802448D01*
X68460255Y-36802448D02*
X67660255Y-36535782D01*
X67660255Y-36345306D02*
X67660255Y-35850068D01*
X67660255Y-35850068D02*
X67965017Y-36116734D01*
X67965017Y-36116734D02*
X67965017Y-36002449D01*
X67965017Y-36002449D02*
X68003112Y-35926258D01*
X68003112Y-35926258D02*
X68041207Y-35888163D01*
X68041207Y-35888163D02*
X68117398Y-35850068D01*
X68117398Y-35850068D02*
X68307874Y-35850068D01*
X68307874Y-35850068D02*
X68384064Y-35888163D01*
X68384064Y-35888163D02*
X68422160Y-35926258D01*
X68422160Y-35926258D02*
X68460255Y-36002449D01*
X68460255Y-36002449D02*
X68460255Y-36231020D01*
X68460255Y-36231020D02*
X68422160Y-36307211D01*
X68422160Y-36307211D02*
X68384064Y-36345306D01*
X70236165Y-37792925D02*
X70236165Y-37297687D01*
X70236165Y-37297687D02*
X70540927Y-37564353D01*
X70540927Y-37564353D02*
X70540927Y-37450068D01*
X70540927Y-37450068D02*
X70579022Y-37373877D01*
X70579022Y-37373877D02*
X70617117Y-37335782D01*
X70617117Y-37335782D02*
X70693308Y-37297687D01*
X70693308Y-37297687D02*
X70883784Y-37297687D01*
X70883784Y-37297687D02*
X70959974Y-37335782D01*
X70959974Y-37335782D02*
X70998070Y-37373877D01*
X70998070Y-37373877D02*
X71036165Y-37450068D01*
X71036165Y-37450068D02*
X71036165Y-37678639D01*
X71036165Y-37678639D02*
X70998070Y-37754830D01*
X70998070Y-37754830D02*
X70959974Y-37792925D01*
X70236165Y-37069115D02*
X71036165Y-36802448D01*
X71036165Y-36802448D02*
X70236165Y-36535782D01*
X70236165Y-36345306D02*
X70236165Y-35850068D01*
X70236165Y-35850068D02*
X70540927Y-36116734D01*
X70540927Y-36116734D02*
X70540927Y-36002449D01*
X70540927Y-36002449D02*
X70579022Y-35926258D01*
X70579022Y-35926258D02*
X70617117Y-35888163D01*
X70617117Y-35888163D02*
X70693308Y-35850068D01*
X70693308Y-35850068D02*
X70883784Y-35850068D01*
X70883784Y-35850068D02*
X70959974Y-35888163D01*
X70959974Y-35888163D02*
X70998070Y-35926258D01*
X70998070Y-35926258D02*
X71036165Y-36002449D01*
X71036165Y-36002449D02*
X71036165Y-36231020D01*
X71036165Y-36231020D02*
X70998070Y-36307211D01*
X70998070Y-36307211D02*
X70959974Y-36345306D01*
X72850170Y-37297687D02*
X72812075Y-37373877D01*
X72812075Y-37373877D02*
X72812075Y-37488163D01*
X72812075Y-37488163D02*
X72850170Y-37602449D01*
X72850170Y-37602449D02*
X72926360Y-37678639D01*
X72926360Y-37678639D02*
X73002551Y-37716734D01*
X73002551Y-37716734D02*
X73154932Y-37754830D01*
X73154932Y-37754830D02*
X73269218Y-37754830D01*
X73269218Y-37754830D02*
X73421599Y-37716734D01*
X73421599Y-37716734D02*
X73497789Y-37678639D01*
X73497789Y-37678639D02*
X73573980Y-37602449D01*
X73573980Y-37602449D02*
X73612075Y-37488163D01*
X73612075Y-37488163D02*
X73612075Y-37411972D01*
X73612075Y-37411972D02*
X73573980Y-37297687D01*
X73573980Y-37297687D02*
X73535884Y-37259591D01*
X73535884Y-37259591D02*
X73269218Y-37259591D01*
X73269218Y-37259591D02*
X73269218Y-37411972D01*
X73612075Y-36916734D02*
X72812075Y-36916734D01*
X72812075Y-36916734D02*
X73612075Y-36459591D01*
X73612075Y-36459591D02*
X72812075Y-36459591D01*
X73612075Y-36078639D02*
X72812075Y-36078639D01*
X72812075Y-36078639D02*
X72812075Y-35888163D01*
X72812075Y-35888163D02*
X72850170Y-35773877D01*
X72850170Y-35773877D02*
X72926360Y-35697687D01*
X72926360Y-35697687D02*
X73002551Y-35659592D01*
X73002551Y-35659592D02*
X73154932Y-35621496D01*
X73154932Y-35621496D02*
X73269218Y-35621496D01*
X73269218Y-35621496D02*
X73421599Y-35659592D01*
X73421599Y-35659592D02*
X73497789Y-35697687D01*
X73497789Y-35697687D02*
X73573980Y-35773877D01*
X73573980Y-35773877D02*
X73612075Y-35888163D01*
X73612075Y-35888163D02*
X73612075Y-36078639D01*
X75426080Y-37297687D02*
X75387985Y-37373877D01*
X75387985Y-37373877D02*
X75387985Y-37488163D01*
X75387985Y-37488163D02*
X75426080Y-37602449D01*
X75426080Y-37602449D02*
X75502270Y-37678639D01*
X75502270Y-37678639D02*
X75578461Y-37716734D01*
X75578461Y-37716734D02*
X75730842Y-37754830D01*
X75730842Y-37754830D02*
X75845128Y-37754830D01*
X75845128Y-37754830D02*
X75997509Y-37716734D01*
X75997509Y-37716734D02*
X76073699Y-37678639D01*
X76073699Y-37678639D02*
X76149890Y-37602449D01*
X76149890Y-37602449D02*
X76187985Y-37488163D01*
X76187985Y-37488163D02*
X76187985Y-37411972D01*
X76187985Y-37411972D02*
X76149890Y-37297687D01*
X76149890Y-37297687D02*
X76111794Y-37259591D01*
X76111794Y-37259591D02*
X75845128Y-37259591D01*
X75845128Y-37259591D02*
X75845128Y-37411972D01*
X76187985Y-36916734D02*
X75387985Y-36916734D01*
X75387985Y-36916734D02*
X76187985Y-36459591D01*
X76187985Y-36459591D02*
X75387985Y-36459591D01*
X76187985Y-36078639D02*
X75387985Y-36078639D01*
X75387985Y-36078639D02*
X75387985Y-35888163D01*
X75387985Y-35888163D02*
X75426080Y-35773877D01*
X75426080Y-35773877D02*
X75502270Y-35697687D01*
X75502270Y-35697687D02*
X75578461Y-35659592D01*
X75578461Y-35659592D02*
X75730842Y-35621496D01*
X75730842Y-35621496D02*
X75845128Y-35621496D01*
X75845128Y-35621496D02*
X75997509Y-35659592D01*
X75997509Y-35659592D02*
X76073699Y-35697687D01*
X76073699Y-35697687D02*
X76149890Y-35773877D01*
X76149890Y-35773877D02*
X76187985Y-35888163D01*
X76187985Y-35888163D02*
X76187985Y-36078639D01*
X77963895Y-37831020D02*
X78763895Y-37564353D01*
X78763895Y-37564353D02*
X77963895Y-37297687D01*
X78763895Y-37031020D02*
X77963895Y-37031020D01*
X78268657Y-37031020D02*
X78230561Y-36954830D01*
X78230561Y-36954830D02*
X78230561Y-36802449D01*
X78230561Y-36802449D02*
X78268657Y-36726258D01*
X78268657Y-36726258D02*
X78306752Y-36688163D01*
X78306752Y-36688163D02*
X78382942Y-36650068D01*
X78382942Y-36650068D02*
X78611514Y-36650068D01*
X78611514Y-36650068D02*
X78687704Y-36688163D01*
X78687704Y-36688163D02*
X78725800Y-36726258D01*
X78725800Y-36726258D02*
X78763895Y-36802449D01*
X78763895Y-36802449D02*
X78763895Y-36954830D01*
X78763895Y-36954830D02*
X78725800Y-37031020D01*
X78230561Y-35964353D02*
X78763895Y-35964353D01*
X78230561Y-36307210D02*
X78649609Y-36307210D01*
X78649609Y-36307210D02*
X78725800Y-36269115D01*
X78725800Y-36269115D02*
X78763895Y-36192925D01*
X78763895Y-36192925D02*
X78763895Y-36078639D01*
X78763895Y-36078639D02*
X78725800Y-36002448D01*
X78725800Y-36002448D02*
X78687704Y-35964353D01*
X78725800Y-35621496D02*
X78763895Y-35545305D01*
X78763895Y-35545305D02*
X78763895Y-35392924D01*
X78763895Y-35392924D02*
X78725800Y-35316734D01*
X78725800Y-35316734D02*
X78649609Y-35278638D01*
X78649609Y-35278638D02*
X78611514Y-35278638D01*
X78611514Y-35278638D02*
X78535323Y-35316734D01*
X78535323Y-35316734D02*
X78497228Y-35392924D01*
X78497228Y-35392924D02*
X78497228Y-35507210D01*
X78497228Y-35507210D02*
X78459133Y-35583400D01*
X78459133Y-35583400D02*
X78382942Y-35621496D01*
X78382942Y-35621496D02*
X78344847Y-35621496D01*
X78344847Y-35621496D02*
X78268657Y-35583400D01*
X78268657Y-35583400D02*
X78230561Y-35507210D01*
X78230561Y-35507210D02*
X78230561Y-35392924D01*
X78230561Y-35392924D02*
X78268657Y-35316734D01*
X42420265Y-48521255D02*
X42420265Y-47721255D01*
X42420265Y-47721255D02*
X42877408Y-48521255D01*
X42877408Y-48521255D02*
X42877408Y-47721255D01*
X43715503Y-48521255D02*
X43448836Y-48140302D01*
X43258360Y-48521255D02*
X43258360Y-47721255D01*
X43258360Y-47721255D02*
X43563122Y-47721255D01*
X43563122Y-47721255D02*
X43639312Y-47759350D01*
X43639312Y-47759350D02*
X43677407Y-47797445D01*
X43677407Y-47797445D02*
X43715503Y-47873636D01*
X43715503Y-47873636D02*
X43715503Y-47987921D01*
X43715503Y-47987921D02*
X43677407Y-48064112D01*
X43677407Y-48064112D02*
X43639312Y-48102207D01*
X43639312Y-48102207D02*
X43563122Y-48140302D01*
X43563122Y-48140302D02*
X43258360Y-48140302D01*
X44020264Y-48483160D02*
X44134550Y-48521255D01*
X44134550Y-48521255D02*
X44325026Y-48521255D01*
X44325026Y-48521255D02*
X44401217Y-48483160D01*
X44401217Y-48483160D02*
X44439312Y-48445064D01*
X44439312Y-48445064D02*
X44477407Y-48368874D01*
X44477407Y-48368874D02*
X44477407Y-48292683D01*
X44477407Y-48292683D02*
X44439312Y-48216493D01*
X44439312Y-48216493D02*
X44401217Y-48178398D01*
X44401217Y-48178398D02*
X44325026Y-48140302D01*
X44325026Y-48140302D02*
X44172645Y-48102207D01*
X44172645Y-48102207D02*
X44096455Y-48064112D01*
X44096455Y-48064112D02*
X44058360Y-48026017D01*
X44058360Y-48026017D02*
X44020264Y-47949826D01*
X44020264Y-47949826D02*
X44020264Y-47873636D01*
X44020264Y-47873636D02*
X44058360Y-47797445D01*
X44058360Y-47797445D02*
X44096455Y-47759350D01*
X44096455Y-47759350D02*
X44172645Y-47721255D01*
X44172645Y-47721255D02*
X44363122Y-47721255D01*
X44363122Y-47721255D02*
X44477407Y-47759350D01*
X44705979Y-47721255D02*
X45163122Y-47721255D01*
X44934550Y-48521255D02*
X44934550Y-47721255D01*
X42382169Y-51059070D02*
X42496455Y-51097165D01*
X42496455Y-51097165D02*
X42686931Y-51097165D01*
X42686931Y-51097165D02*
X42763122Y-51059070D01*
X42763122Y-51059070D02*
X42801217Y-51020974D01*
X42801217Y-51020974D02*
X42839312Y-50944784D01*
X42839312Y-50944784D02*
X42839312Y-50868593D01*
X42839312Y-50868593D02*
X42801217Y-50792403D01*
X42801217Y-50792403D02*
X42763122Y-50754308D01*
X42763122Y-50754308D02*
X42686931Y-50716212D01*
X42686931Y-50716212D02*
X42534550Y-50678117D01*
X42534550Y-50678117D02*
X42458360Y-50640022D01*
X42458360Y-50640022D02*
X42420265Y-50601927D01*
X42420265Y-50601927D02*
X42382169Y-50525736D01*
X42382169Y-50525736D02*
X42382169Y-50449546D01*
X42382169Y-50449546D02*
X42420265Y-50373355D01*
X42420265Y-50373355D02*
X42458360Y-50335260D01*
X42458360Y-50335260D02*
X42534550Y-50297165D01*
X42534550Y-50297165D02*
X42725027Y-50297165D01*
X42725027Y-50297165D02*
X42839312Y-50335260D01*
X43105979Y-50297165D02*
X43296455Y-51097165D01*
X43296455Y-51097165D02*
X43448836Y-50525736D01*
X43448836Y-50525736D02*
X43601217Y-51097165D01*
X43601217Y-51097165D02*
X43791694Y-50297165D01*
X44096456Y-51097165D02*
X44096456Y-50297165D01*
X44096456Y-50297165D02*
X44286932Y-50297165D01*
X44286932Y-50297165D02*
X44401218Y-50335260D01*
X44401218Y-50335260D02*
X44477408Y-50411450D01*
X44477408Y-50411450D02*
X44515503Y-50487641D01*
X44515503Y-50487641D02*
X44553599Y-50640022D01*
X44553599Y-50640022D02*
X44553599Y-50754308D01*
X44553599Y-50754308D02*
X44515503Y-50906689D01*
X44515503Y-50906689D02*
X44477408Y-50982879D01*
X44477408Y-50982879D02*
X44401218Y-51059070D01*
X44401218Y-51059070D02*
X44286932Y-51097165D01*
X44286932Y-51097165D02*
X44096456Y-51097165D01*
X44896456Y-51097165D02*
X44896456Y-50297165D01*
X45429789Y-50297165D02*
X45582170Y-50297165D01*
X45582170Y-50297165D02*
X45658360Y-50335260D01*
X45658360Y-50335260D02*
X45734551Y-50411450D01*
X45734551Y-50411450D02*
X45772646Y-50563831D01*
X45772646Y-50563831D02*
X45772646Y-50830498D01*
X45772646Y-50830498D02*
X45734551Y-50982879D01*
X45734551Y-50982879D02*
X45658360Y-51059070D01*
X45658360Y-51059070D02*
X45582170Y-51097165D01*
X45582170Y-51097165D02*
X45429789Y-51097165D01*
X45429789Y-51097165D02*
X45353598Y-51059070D01*
X45353598Y-51059070D02*
X45277408Y-50982879D01*
X45277408Y-50982879D02*
X45239312Y-50830498D01*
X45239312Y-50830498D02*
X45239312Y-50563831D01*
X45239312Y-50563831D02*
X45277408Y-50411450D01*
X45277408Y-50411450D02*
X45353598Y-50335260D01*
X45353598Y-50335260D02*
X45429789Y-50297165D01*
X42839312Y-52911170D02*
X42763122Y-52873075D01*
X42763122Y-52873075D02*
X42648836Y-52873075D01*
X42648836Y-52873075D02*
X42534550Y-52911170D01*
X42534550Y-52911170D02*
X42458360Y-52987360D01*
X42458360Y-52987360D02*
X42420265Y-53063551D01*
X42420265Y-53063551D02*
X42382169Y-53215932D01*
X42382169Y-53215932D02*
X42382169Y-53330218D01*
X42382169Y-53330218D02*
X42420265Y-53482599D01*
X42420265Y-53482599D02*
X42458360Y-53558789D01*
X42458360Y-53558789D02*
X42534550Y-53634980D01*
X42534550Y-53634980D02*
X42648836Y-53673075D01*
X42648836Y-53673075D02*
X42725027Y-53673075D01*
X42725027Y-53673075D02*
X42839312Y-53634980D01*
X42839312Y-53634980D02*
X42877408Y-53596884D01*
X42877408Y-53596884D02*
X42877408Y-53330218D01*
X42877408Y-53330218D02*
X42725027Y-53330218D01*
X43220265Y-53673075D02*
X43220265Y-52873075D01*
X43220265Y-52873075D02*
X43677408Y-53673075D01*
X43677408Y-53673075D02*
X43677408Y-52873075D01*
X44058360Y-53673075D02*
X44058360Y-52873075D01*
X44058360Y-52873075D02*
X44248836Y-52873075D01*
X44248836Y-52873075D02*
X44363122Y-52911170D01*
X44363122Y-52911170D02*
X44439312Y-52987360D01*
X44439312Y-52987360D02*
X44477407Y-53063551D01*
X44477407Y-53063551D02*
X44515503Y-53215932D01*
X44515503Y-53215932D02*
X44515503Y-53330218D01*
X44515503Y-53330218D02*
X44477407Y-53482599D01*
X44477407Y-53482599D02*
X44439312Y-53558789D01*
X44439312Y-53558789D02*
X44363122Y-53634980D01*
X44363122Y-53634980D02*
X44248836Y-53673075D01*
X44248836Y-53673075D02*
X44058360Y-53673075D01*
X42382169Y-56210890D02*
X42496455Y-56248985D01*
X42496455Y-56248985D02*
X42686931Y-56248985D01*
X42686931Y-56248985D02*
X42763122Y-56210890D01*
X42763122Y-56210890D02*
X42801217Y-56172794D01*
X42801217Y-56172794D02*
X42839312Y-56096604D01*
X42839312Y-56096604D02*
X42839312Y-56020413D01*
X42839312Y-56020413D02*
X42801217Y-55944223D01*
X42801217Y-55944223D02*
X42763122Y-55906128D01*
X42763122Y-55906128D02*
X42686931Y-55868032D01*
X42686931Y-55868032D02*
X42534550Y-55829937D01*
X42534550Y-55829937D02*
X42458360Y-55791842D01*
X42458360Y-55791842D02*
X42420265Y-55753747D01*
X42420265Y-55753747D02*
X42382169Y-55677556D01*
X42382169Y-55677556D02*
X42382169Y-55601366D01*
X42382169Y-55601366D02*
X42420265Y-55525175D01*
X42420265Y-55525175D02*
X42458360Y-55487080D01*
X42458360Y-55487080D02*
X42534550Y-55448985D01*
X42534550Y-55448985D02*
X42725027Y-55448985D01*
X42725027Y-55448985D02*
X42839312Y-55487080D01*
X43105979Y-55448985D02*
X43296455Y-56248985D01*
X43296455Y-56248985D02*
X43448836Y-55677556D01*
X43448836Y-55677556D02*
X43601217Y-56248985D01*
X43601217Y-56248985D02*
X43791694Y-55448985D01*
X44553599Y-56172794D02*
X44515503Y-56210890D01*
X44515503Y-56210890D02*
X44401218Y-56248985D01*
X44401218Y-56248985D02*
X44325027Y-56248985D01*
X44325027Y-56248985D02*
X44210741Y-56210890D01*
X44210741Y-56210890D02*
X44134551Y-56134699D01*
X44134551Y-56134699D02*
X44096456Y-56058509D01*
X44096456Y-56058509D02*
X44058360Y-55906128D01*
X44058360Y-55906128D02*
X44058360Y-55791842D01*
X44058360Y-55791842D02*
X44096456Y-55639461D01*
X44096456Y-55639461D02*
X44134551Y-55563270D01*
X44134551Y-55563270D02*
X44210741Y-55487080D01*
X44210741Y-55487080D02*
X44325027Y-55448985D01*
X44325027Y-55448985D02*
X44401218Y-55448985D01*
X44401218Y-55448985D02*
X44515503Y-55487080D01*
X44515503Y-55487080D02*
X44553599Y-55525175D01*
X45277408Y-56248985D02*
X44896456Y-56248985D01*
X44896456Y-56248985D02*
X44896456Y-55448985D01*
X45544075Y-56248985D02*
X45544075Y-55448985D01*
X46001218Y-56248985D02*
X45658360Y-55791842D01*
X46001218Y-55448985D02*
X45544075Y-55906128D01*
X42344074Y-58024895D02*
X42839312Y-58024895D01*
X42839312Y-58024895D02*
X42572646Y-58329657D01*
X42572646Y-58329657D02*
X42686931Y-58329657D01*
X42686931Y-58329657D02*
X42763122Y-58367752D01*
X42763122Y-58367752D02*
X42801217Y-58405847D01*
X42801217Y-58405847D02*
X42839312Y-58482038D01*
X42839312Y-58482038D02*
X42839312Y-58672514D01*
X42839312Y-58672514D02*
X42801217Y-58748704D01*
X42801217Y-58748704D02*
X42763122Y-58786800D01*
X42763122Y-58786800D02*
X42686931Y-58824895D01*
X42686931Y-58824895D02*
X42458360Y-58824895D01*
X42458360Y-58824895D02*
X42382169Y-58786800D01*
X42382169Y-58786800D02*
X42344074Y-58748704D01*
X43067884Y-58024895D02*
X43334551Y-58824895D01*
X43334551Y-58824895D02*
X43601217Y-58024895D01*
X43791693Y-58024895D02*
X44286931Y-58024895D01*
X44286931Y-58024895D02*
X44020265Y-58329657D01*
X44020265Y-58329657D02*
X44134550Y-58329657D01*
X44134550Y-58329657D02*
X44210741Y-58367752D01*
X44210741Y-58367752D02*
X44248836Y-58405847D01*
X44248836Y-58405847D02*
X44286931Y-58482038D01*
X44286931Y-58482038D02*
X44286931Y-58672514D01*
X44286931Y-58672514D02*
X44248836Y-58748704D01*
X44248836Y-58748704D02*
X44210741Y-58786800D01*
X44210741Y-58786800D02*
X44134550Y-58824895D01*
X44134550Y-58824895D02*
X43905979Y-58824895D01*
X43905979Y-58824895D02*
X43829788Y-58786800D01*
X43829788Y-58786800D02*
X43791693Y-58748704D01*
D11*
X31896207Y-68703819D02*
X31562874Y-68227628D01*
X31324779Y-68703819D02*
X31324779Y-67703819D01*
X31324779Y-67703819D02*
X31705731Y-67703819D01*
X31705731Y-67703819D02*
X31800969Y-67751438D01*
X31800969Y-67751438D02*
X31848588Y-67799057D01*
X31848588Y-67799057D02*
X31896207Y-67894295D01*
X31896207Y-67894295D02*
X31896207Y-68037152D01*
X31896207Y-68037152D02*
X31848588Y-68132390D01*
X31848588Y-68132390D02*
X31800969Y-68180009D01*
X31800969Y-68180009D02*
X31705731Y-68227628D01*
X31705731Y-68227628D02*
X31324779Y-68227628D01*
X32324779Y-68180009D02*
X32658112Y-68180009D01*
X32800969Y-68703819D02*
X32324779Y-68703819D01*
X32324779Y-68703819D02*
X32324779Y-67703819D01*
X32324779Y-67703819D02*
X32800969Y-67703819D01*
X33181922Y-68656200D02*
X33324779Y-68703819D01*
X33324779Y-68703819D02*
X33562874Y-68703819D01*
X33562874Y-68703819D02*
X33658112Y-68656200D01*
X33658112Y-68656200D02*
X33705731Y-68608580D01*
X33705731Y-68608580D02*
X33753350Y-68513342D01*
X33753350Y-68513342D02*
X33753350Y-68418104D01*
X33753350Y-68418104D02*
X33705731Y-68322866D01*
X33705731Y-68322866D02*
X33658112Y-68275247D01*
X33658112Y-68275247D02*
X33562874Y-68227628D01*
X33562874Y-68227628D02*
X33372398Y-68180009D01*
X33372398Y-68180009D02*
X33277160Y-68132390D01*
X33277160Y-68132390D02*
X33229541Y-68084771D01*
X33229541Y-68084771D02*
X33181922Y-67989533D01*
X33181922Y-67989533D02*
X33181922Y-67894295D01*
X33181922Y-67894295D02*
X33229541Y-67799057D01*
X33229541Y-67799057D02*
X33277160Y-67751438D01*
X33277160Y-67751438D02*
X33372398Y-67703819D01*
X33372398Y-67703819D02*
X33610493Y-67703819D01*
X33610493Y-67703819D02*
X33753350Y-67751438D01*
X34181922Y-68180009D02*
X34515255Y-68180009D01*
X34658112Y-68703819D02*
X34181922Y-68703819D01*
X34181922Y-68703819D02*
X34181922Y-67703819D01*
X34181922Y-67703819D02*
X34658112Y-67703819D01*
X34943827Y-67703819D02*
X35515255Y-67703819D01*
X35229541Y-68703819D02*
X35229541Y-67703819D01*
X42500779Y-67703819D02*
X42500779Y-68513342D01*
X42500779Y-68513342D02*
X42548398Y-68608580D01*
X42548398Y-68608580D02*
X42596017Y-68656200D01*
X42596017Y-68656200D02*
X42691255Y-68703819D01*
X42691255Y-68703819D02*
X42881731Y-68703819D01*
X42881731Y-68703819D02*
X42976969Y-68656200D01*
X42976969Y-68656200D02*
X43024588Y-68608580D01*
X43024588Y-68608580D02*
X43072207Y-68513342D01*
X43072207Y-68513342D02*
X43072207Y-67703819D01*
X43500779Y-68656200D02*
X43643636Y-68703819D01*
X43643636Y-68703819D02*
X43881731Y-68703819D01*
X43881731Y-68703819D02*
X43976969Y-68656200D01*
X43976969Y-68656200D02*
X44024588Y-68608580D01*
X44024588Y-68608580D02*
X44072207Y-68513342D01*
X44072207Y-68513342D02*
X44072207Y-68418104D01*
X44072207Y-68418104D02*
X44024588Y-68322866D01*
X44024588Y-68322866D02*
X43976969Y-68275247D01*
X43976969Y-68275247D02*
X43881731Y-68227628D01*
X43881731Y-68227628D02*
X43691255Y-68180009D01*
X43691255Y-68180009D02*
X43596017Y-68132390D01*
X43596017Y-68132390D02*
X43548398Y-68084771D01*
X43548398Y-68084771D02*
X43500779Y-67989533D01*
X43500779Y-67989533D02*
X43500779Y-67894295D01*
X43500779Y-67894295D02*
X43548398Y-67799057D01*
X43548398Y-67799057D02*
X43596017Y-67751438D01*
X43596017Y-67751438D02*
X43691255Y-67703819D01*
X43691255Y-67703819D02*
X43929350Y-67703819D01*
X43929350Y-67703819D02*
X44072207Y-67751438D01*
X45072207Y-68703819D02*
X44738874Y-68227628D01*
X44500779Y-68703819D02*
X44500779Y-67703819D01*
X44500779Y-67703819D02*
X44881731Y-67703819D01*
X44881731Y-67703819D02*
X44976969Y-67751438D01*
X44976969Y-67751438D02*
X45024588Y-67799057D01*
X45024588Y-67799057D02*
X45072207Y-67894295D01*
X45072207Y-67894295D02*
X45072207Y-68037152D01*
X45072207Y-68037152D02*
X45024588Y-68132390D01*
X45024588Y-68132390D02*
X44976969Y-68180009D01*
X44976969Y-68180009D02*
X44881731Y-68227628D01*
X44881731Y-68227628D02*
X44500779Y-68227628D01*
X46596017Y-68180009D02*
X46738874Y-68227628D01*
X46738874Y-68227628D02*
X46786493Y-68275247D01*
X46786493Y-68275247D02*
X46834112Y-68370485D01*
X46834112Y-68370485D02*
X46834112Y-68513342D01*
X46834112Y-68513342D02*
X46786493Y-68608580D01*
X46786493Y-68608580D02*
X46738874Y-68656200D01*
X46738874Y-68656200D02*
X46643636Y-68703819D01*
X46643636Y-68703819D02*
X46262684Y-68703819D01*
X46262684Y-68703819D02*
X46262684Y-67703819D01*
X46262684Y-67703819D02*
X46596017Y-67703819D01*
X46596017Y-67703819D02*
X46691255Y-67751438D01*
X46691255Y-67751438D02*
X46738874Y-67799057D01*
X46738874Y-67799057D02*
X46786493Y-67894295D01*
X46786493Y-67894295D02*
X46786493Y-67989533D01*
X46786493Y-67989533D02*
X46738874Y-68084771D01*
X46738874Y-68084771D02*
X46691255Y-68132390D01*
X46691255Y-68132390D02*
X46596017Y-68180009D01*
X46596017Y-68180009D02*
X46262684Y-68180009D01*
X47691255Y-68037152D02*
X47691255Y-68703819D01*
X47262684Y-68037152D02*
X47262684Y-68560961D01*
X47262684Y-68560961D02*
X47310303Y-68656200D01*
X47310303Y-68656200D02*
X47405541Y-68703819D01*
X47405541Y-68703819D02*
X47548398Y-68703819D01*
X47548398Y-68703819D02*
X47643636Y-68656200D01*
X47643636Y-68656200D02*
X47691255Y-68608580D01*
X48024589Y-68037152D02*
X48405541Y-68037152D01*
X48167446Y-67703819D02*
X48167446Y-68560961D01*
X48167446Y-68560961D02*
X48215065Y-68656200D01*
X48215065Y-68656200D02*
X48310303Y-68703819D01*
X48310303Y-68703819D02*
X48405541Y-68703819D01*
X48596018Y-68037152D02*
X48976970Y-68037152D01*
X48738875Y-67703819D02*
X48738875Y-68560961D01*
X48738875Y-68560961D02*
X48786494Y-68656200D01*
X48786494Y-68656200D02*
X48881732Y-68703819D01*
X48881732Y-68703819D02*
X48976970Y-68703819D01*
X49453161Y-68703819D02*
X49357923Y-68656200D01*
X49357923Y-68656200D02*
X49310304Y-68608580D01*
X49310304Y-68608580D02*
X49262685Y-68513342D01*
X49262685Y-68513342D02*
X49262685Y-68227628D01*
X49262685Y-68227628D02*
X49310304Y-68132390D01*
X49310304Y-68132390D02*
X49357923Y-68084771D01*
X49357923Y-68084771D02*
X49453161Y-68037152D01*
X49453161Y-68037152D02*
X49596018Y-68037152D01*
X49596018Y-68037152D02*
X49691256Y-68084771D01*
X49691256Y-68084771D02*
X49738875Y-68132390D01*
X49738875Y-68132390D02*
X49786494Y-68227628D01*
X49786494Y-68227628D02*
X49786494Y-68513342D01*
X49786494Y-68513342D02*
X49738875Y-68608580D01*
X49738875Y-68608580D02*
X49691256Y-68656200D01*
X49691256Y-68656200D02*
X49596018Y-68703819D01*
X49596018Y-68703819D02*
X49453161Y-68703819D01*
X50215066Y-68037152D02*
X50215066Y-68703819D01*
X50215066Y-68132390D02*
X50262685Y-68084771D01*
X50262685Y-68084771D02*
X50357923Y-68037152D01*
X50357923Y-68037152D02*
X50500780Y-68037152D01*
X50500780Y-68037152D02*
X50596018Y-68084771D01*
X50596018Y-68084771D02*
X50643637Y-68180009D01*
X50643637Y-68180009D02*
X50643637Y-68703819D01*
D12*
X52795871Y-71731293D02*
X52840381Y-71597761D01*
X52840381Y-71597761D02*
X52840381Y-71375209D01*
X52840381Y-71375209D02*
X52795871Y-71286188D01*
X52795871Y-71286188D02*
X52751360Y-71241677D01*
X52751360Y-71241677D02*
X52662339Y-71197167D01*
X52662339Y-71197167D02*
X52573318Y-71197167D01*
X52573318Y-71197167D02*
X52484297Y-71241677D01*
X52484297Y-71241677D02*
X52439787Y-71286188D01*
X52439787Y-71286188D02*
X52395276Y-71375209D01*
X52395276Y-71375209D02*
X52350766Y-71553251D01*
X52350766Y-71553251D02*
X52306255Y-71642272D01*
X52306255Y-71642272D02*
X52261745Y-71686782D01*
X52261745Y-71686782D02*
X52172724Y-71731293D01*
X52172724Y-71731293D02*
X52083703Y-71731293D01*
X52083703Y-71731293D02*
X51994682Y-71686782D01*
X51994682Y-71686782D02*
X51950171Y-71642272D01*
X51950171Y-71642272D02*
X51905661Y-71553251D01*
X51905661Y-71553251D02*
X51905661Y-71330698D01*
X51905661Y-71330698D02*
X51950171Y-71197167D01*
X51905661Y-70885593D02*
X52840381Y-70663041D01*
X52840381Y-70663041D02*
X52172724Y-70484999D01*
X52172724Y-70484999D02*
X52840381Y-70306957D01*
X52840381Y-70306957D02*
X51905661Y-70084405D01*
X51994682Y-69772832D02*
X51950171Y-69728321D01*
X51950171Y-69728321D02*
X51905661Y-69639300D01*
X51905661Y-69639300D02*
X51905661Y-69416748D01*
X51905661Y-69416748D02*
X51950171Y-69327727D01*
X51950171Y-69327727D02*
X51994682Y-69283216D01*
X51994682Y-69283216D02*
X52083703Y-69238706D01*
X52083703Y-69238706D02*
X52172724Y-69238706D01*
X52172724Y-69238706D02*
X52306255Y-69283216D01*
X52306255Y-69283216D02*
X52840381Y-69817342D01*
X52840381Y-69817342D02*
X52840381Y-69238706D01*
X41746871Y-71477293D02*
X41791381Y-71343761D01*
X41791381Y-71343761D02*
X41791381Y-71121209D01*
X41791381Y-71121209D02*
X41746871Y-71032188D01*
X41746871Y-71032188D02*
X41702360Y-70987677D01*
X41702360Y-70987677D02*
X41613339Y-70943167D01*
X41613339Y-70943167D02*
X41524318Y-70943167D01*
X41524318Y-70943167D02*
X41435297Y-70987677D01*
X41435297Y-70987677D02*
X41390787Y-71032188D01*
X41390787Y-71032188D02*
X41346276Y-71121209D01*
X41346276Y-71121209D02*
X41301766Y-71299251D01*
X41301766Y-71299251D02*
X41257255Y-71388272D01*
X41257255Y-71388272D02*
X41212745Y-71432782D01*
X41212745Y-71432782D02*
X41123724Y-71477293D01*
X41123724Y-71477293D02*
X41034703Y-71477293D01*
X41034703Y-71477293D02*
X40945682Y-71432782D01*
X40945682Y-71432782D02*
X40901171Y-71388272D01*
X40901171Y-71388272D02*
X40856661Y-71299251D01*
X40856661Y-71299251D02*
X40856661Y-71076698D01*
X40856661Y-71076698D02*
X40901171Y-70943167D01*
X40856661Y-70631593D02*
X41791381Y-70409041D01*
X41791381Y-70409041D02*
X41123724Y-70230999D01*
X41123724Y-70230999D02*
X41791381Y-70052957D01*
X41791381Y-70052957D02*
X40856661Y-69830405D01*
X41791381Y-68984706D02*
X41791381Y-69518832D01*
X41791381Y-69251769D02*
X40856661Y-69251769D01*
X40856661Y-69251769D02*
X40990192Y-69340790D01*
X40990192Y-69340790D02*
X41079213Y-69429811D01*
X41079213Y-69429811D02*
X41123724Y-69518832D01*
D11*
X61915333Y-44742580D02*
X61867714Y-44790200D01*
X61867714Y-44790200D02*
X61724857Y-44837819D01*
X61724857Y-44837819D02*
X61629619Y-44837819D01*
X61629619Y-44837819D02*
X61486762Y-44790200D01*
X61486762Y-44790200D02*
X61391524Y-44694961D01*
X61391524Y-44694961D02*
X61343905Y-44599723D01*
X61343905Y-44599723D02*
X61296286Y-44409247D01*
X61296286Y-44409247D02*
X61296286Y-44266390D01*
X61296286Y-44266390D02*
X61343905Y-44075914D01*
X61343905Y-44075914D02*
X61391524Y-43980676D01*
X61391524Y-43980676D02*
X61486762Y-43885438D01*
X61486762Y-43885438D02*
X61629619Y-43837819D01*
X61629619Y-43837819D02*
X61724857Y-43837819D01*
X61724857Y-43837819D02*
X61867714Y-43885438D01*
X61867714Y-43885438D02*
X61915333Y-43933057D01*
X62867714Y-44837819D02*
X62296286Y-44837819D01*
X62582000Y-44837819D02*
X62582000Y-43837819D01*
X62582000Y-43837819D02*
X62486762Y-43980676D01*
X62486762Y-43980676D02*
X62391524Y-44075914D01*
X62391524Y-44075914D02*
X62296286Y-44123533D01*
X30146666Y-60668819D02*
X30146666Y-61383104D01*
X30146666Y-61383104D02*
X30099047Y-61525961D01*
X30099047Y-61525961D02*
X30003809Y-61621200D01*
X30003809Y-61621200D02*
X29860952Y-61668819D01*
X29860952Y-61668819D02*
X29765714Y-61668819D01*
X31099047Y-60668819D02*
X30622857Y-60668819D01*
X30622857Y-60668819D02*
X30575238Y-61145009D01*
X30575238Y-61145009D02*
X30622857Y-61097390D01*
X30622857Y-61097390D02*
X30718095Y-61049771D01*
X30718095Y-61049771D02*
X30956190Y-61049771D01*
X30956190Y-61049771D02*
X31051428Y-61097390D01*
X31051428Y-61097390D02*
X31099047Y-61145009D01*
X31099047Y-61145009D02*
X31146666Y-61240247D01*
X31146666Y-61240247D02*
X31146666Y-61478342D01*
X31146666Y-61478342D02*
X31099047Y-61573580D01*
X31099047Y-61573580D02*
X31051428Y-61621200D01*
X31051428Y-61621200D02*
X30956190Y-61668819D01*
X30956190Y-61668819D02*
X30718095Y-61668819D01*
X30718095Y-61668819D02*
X30622857Y-61621200D01*
X30622857Y-61621200D02*
X30575238Y-61573580D01*
X87241142Y-60811580D02*
X87193523Y-60859200D01*
X87193523Y-60859200D02*
X87050666Y-60906819D01*
X87050666Y-60906819D02*
X86955428Y-60906819D01*
X86955428Y-60906819D02*
X86812571Y-60859200D01*
X86812571Y-60859200D02*
X86717333Y-60763961D01*
X86717333Y-60763961D02*
X86669714Y-60668723D01*
X86669714Y-60668723D02*
X86622095Y-60478247D01*
X86622095Y-60478247D02*
X86622095Y-60335390D01*
X86622095Y-60335390D02*
X86669714Y-60144914D01*
X86669714Y-60144914D02*
X86717333Y-60049676D01*
X86717333Y-60049676D02*
X86812571Y-59954438D01*
X86812571Y-59954438D02*
X86955428Y-59906819D01*
X86955428Y-59906819D02*
X87050666Y-59906819D01*
X87050666Y-59906819D02*
X87193523Y-59954438D01*
X87193523Y-59954438D02*
X87241142Y-60002057D01*
X88193523Y-60906819D02*
X87622095Y-60906819D01*
X87907809Y-60906819D02*
X87907809Y-59906819D01*
X87907809Y-59906819D02*
X87812571Y-60049676D01*
X87812571Y-60049676D02*
X87717333Y-60144914D01*
X87717333Y-60144914D02*
X87622095Y-60192533D01*
X88812571Y-59906819D02*
X88907809Y-59906819D01*
X88907809Y-59906819D02*
X89003047Y-59954438D01*
X89003047Y-59954438D02*
X89050666Y-60002057D01*
X89050666Y-60002057D02*
X89098285Y-60097295D01*
X89098285Y-60097295D02*
X89145904Y-60287771D01*
X89145904Y-60287771D02*
X89145904Y-60525866D01*
X89145904Y-60525866D02*
X89098285Y-60716342D01*
X89098285Y-60716342D02*
X89050666Y-60811580D01*
X89050666Y-60811580D02*
X89003047Y-60859200D01*
X89003047Y-60859200D02*
X88907809Y-60906819D01*
X88907809Y-60906819D02*
X88812571Y-60906819D01*
X88812571Y-60906819D02*
X88717333Y-60859200D01*
X88717333Y-60859200D02*
X88669714Y-60811580D01*
X88669714Y-60811580D02*
X88622095Y-60716342D01*
X88622095Y-60716342D02*
X88574476Y-60525866D01*
X88574476Y-60525866D02*
X88574476Y-60287771D01*
X88574476Y-60287771D02*
X88622095Y-60097295D01*
X88622095Y-60097295D02*
X88669714Y-60002057D01*
X88669714Y-60002057D02*
X88717333Y-59954438D01*
X88717333Y-59954438D02*
X88812571Y-59906819D01*
X52244666Y-32474819D02*
X52244666Y-33189104D01*
X52244666Y-33189104D02*
X52197047Y-33331961D01*
X52197047Y-33331961D02*
X52101809Y-33427200D01*
X52101809Y-33427200D02*
X51958952Y-33474819D01*
X51958952Y-33474819D02*
X51863714Y-33474819D01*
X52673238Y-32570057D02*
X52720857Y-32522438D01*
X52720857Y-32522438D02*
X52816095Y-32474819D01*
X52816095Y-32474819D02*
X53054190Y-32474819D01*
X53054190Y-32474819D02*
X53149428Y-32522438D01*
X53149428Y-32522438D02*
X53197047Y-32570057D01*
X53197047Y-32570057D02*
X53244666Y-32665295D01*
X53244666Y-32665295D02*
X53244666Y-32760533D01*
X53244666Y-32760533D02*
X53197047Y-32903390D01*
X53197047Y-32903390D02*
X52625619Y-33474819D01*
X52625619Y-33474819D02*
X53244666Y-33474819D01*
X63754095Y-47333819D02*
X63754095Y-48143342D01*
X63754095Y-48143342D02*
X63801714Y-48238580D01*
X63801714Y-48238580D02*
X63849333Y-48286200D01*
X63849333Y-48286200D02*
X63944571Y-48333819D01*
X63944571Y-48333819D02*
X64135047Y-48333819D01*
X64135047Y-48333819D02*
X64230285Y-48286200D01*
X64230285Y-48286200D02*
X64277904Y-48238580D01*
X64277904Y-48238580D02*
X64325523Y-48143342D01*
X64325523Y-48143342D02*
X64325523Y-47333819D01*
X65325523Y-48333819D02*
X64754095Y-48333819D01*
X65039809Y-48333819D02*
X65039809Y-47333819D01*
X65039809Y-47333819D02*
X64944571Y-47476676D01*
X64944571Y-47476676D02*
X64849333Y-47571914D01*
X64849333Y-47571914D02*
X64754095Y-47619533D01*
X77600333Y-49087819D02*
X77267000Y-48611628D01*
X77028905Y-49087819D02*
X77028905Y-48087819D01*
X77028905Y-48087819D02*
X77409857Y-48087819D01*
X77409857Y-48087819D02*
X77505095Y-48135438D01*
X77505095Y-48135438D02*
X77552714Y-48183057D01*
X77552714Y-48183057D02*
X77600333Y-48278295D01*
X77600333Y-48278295D02*
X77600333Y-48421152D01*
X77600333Y-48421152D02*
X77552714Y-48516390D01*
X77552714Y-48516390D02*
X77505095Y-48564009D01*
X77505095Y-48564009D02*
X77409857Y-48611628D01*
X77409857Y-48611628D02*
X77028905Y-48611628D01*
X78457476Y-48087819D02*
X78267000Y-48087819D01*
X78267000Y-48087819D02*
X78171762Y-48135438D01*
X78171762Y-48135438D02*
X78124143Y-48183057D01*
X78124143Y-48183057D02*
X78028905Y-48325914D01*
X78028905Y-48325914D02*
X77981286Y-48516390D01*
X77981286Y-48516390D02*
X77981286Y-48897342D01*
X77981286Y-48897342D02*
X78028905Y-48992580D01*
X78028905Y-48992580D02*
X78076524Y-49040200D01*
X78076524Y-49040200D02*
X78171762Y-49087819D01*
X78171762Y-49087819D02*
X78362238Y-49087819D01*
X78362238Y-49087819D02*
X78457476Y-49040200D01*
X78457476Y-49040200D02*
X78505095Y-48992580D01*
X78505095Y-48992580D02*
X78552714Y-48897342D01*
X78552714Y-48897342D02*
X78552714Y-48659247D01*
X78552714Y-48659247D02*
X78505095Y-48564009D01*
X78505095Y-48564009D02*
X78457476Y-48516390D01*
X78457476Y-48516390D02*
X78362238Y-48468771D01*
X78362238Y-48468771D02*
X78171762Y-48468771D01*
X78171762Y-48468771D02*
X78076524Y-48516390D01*
X78076524Y-48516390D02*
X78028905Y-48564009D01*
X78028905Y-48564009D02*
X77981286Y-48659247D01*
X90074333Y-43793580D02*
X90026714Y-43841200D01*
X90026714Y-43841200D02*
X89883857Y-43888819D01*
X89883857Y-43888819D02*
X89788619Y-43888819D01*
X89788619Y-43888819D02*
X89645762Y-43841200D01*
X89645762Y-43841200D02*
X89550524Y-43745961D01*
X89550524Y-43745961D02*
X89502905Y-43650723D01*
X89502905Y-43650723D02*
X89455286Y-43460247D01*
X89455286Y-43460247D02*
X89455286Y-43317390D01*
X89455286Y-43317390D02*
X89502905Y-43126914D01*
X89502905Y-43126914D02*
X89550524Y-43031676D01*
X89550524Y-43031676D02*
X89645762Y-42936438D01*
X89645762Y-42936438D02*
X89788619Y-42888819D01*
X89788619Y-42888819D02*
X89883857Y-42888819D01*
X89883857Y-42888819D02*
X90026714Y-42936438D01*
X90026714Y-42936438D02*
X90074333Y-42984057D01*
X90550524Y-43888819D02*
X90741000Y-43888819D01*
X90741000Y-43888819D02*
X90836238Y-43841200D01*
X90836238Y-43841200D02*
X90883857Y-43793580D01*
X90883857Y-43793580D02*
X90979095Y-43650723D01*
X90979095Y-43650723D02*
X91026714Y-43460247D01*
X91026714Y-43460247D02*
X91026714Y-43079295D01*
X91026714Y-43079295D02*
X90979095Y-42984057D01*
X90979095Y-42984057D02*
X90931476Y-42936438D01*
X90931476Y-42936438D02*
X90836238Y-42888819D01*
X90836238Y-42888819D02*
X90645762Y-42888819D01*
X90645762Y-42888819D02*
X90550524Y-42936438D01*
X90550524Y-42936438D02*
X90502905Y-42984057D01*
X90502905Y-42984057D02*
X90455286Y-43079295D01*
X90455286Y-43079295D02*
X90455286Y-43317390D01*
X90455286Y-43317390D02*
X90502905Y-43412628D01*
X90502905Y-43412628D02*
X90550524Y-43460247D01*
X90550524Y-43460247D02*
X90645762Y-43507866D01*
X90645762Y-43507866D02*
X90836238Y-43507866D01*
X90836238Y-43507866D02*
X90931476Y-43460247D01*
X90931476Y-43460247D02*
X90979095Y-43412628D01*
X90979095Y-43412628D02*
X91026714Y-43317390D01*
X75528904Y-66214008D02*
X75195571Y-66214008D01*
X75195571Y-66737818D02*
X75195571Y-65737818D01*
X75195571Y-65737818D02*
X75671761Y-65737818D01*
X76528904Y-66737818D02*
X76052714Y-66737818D01*
X76052714Y-66737818D02*
X76052714Y-65737818D01*
X77386047Y-66737818D02*
X76814619Y-66737818D01*
X77100333Y-66737818D02*
X77100333Y-65737818D01*
X77100333Y-65737818D02*
X77005095Y-65880675D01*
X77005095Y-65880675D02*
X76909857Y-65975913D01*
X76909857Y-65975913D02*
X76814619Y-66023532D01*
X81684905Y-66621819D02*
X81684905Y-65621819D01*
X81684905Y-65621819D02*
X81923000Y-65621819D01*
X81923000Y-65621819D02*
X82065857Y-65669438D01*
X82065857Y-65669438D02*
X82161095Y-65764676D01*
X82161095Y-65764676D02*
X82208714Y-65859914D01*
X82208714Y-65859914D02*
X82256333Y-66050390D01*
X82256333Y-66050390D02*
X82256333Y-66193247D01*
X82256333Y-66193247D02*
X82208714Y-66383723D01*
X82208714Y-66383723D02*
X82161095Y-66478961D01*
X82161095Y-66478961D02*
X82065857Y-66574200D01*
X82065857Y-66574200D02*
X81923000Y-66621819D01*
X81923000Y-66621819D02*
X81684905Y-66621819D01*
X83113476Y-65955152D02*
X83113476Y-66621819D01*
X82875381Y-65574200D02*
X82637286Y-66288485D01*
X82637286Y-66288485D02*
X83256333Y-66288485D01*
X85899666Y-74257819D02*
X85899666Y-74972104D01*
X85899666Y-74972104D02*
X85852047Y-75114961D01*
X85852047Y-75114961D02*
X85756809Y-75210200D01*
X85756809Y-75210200D02*
X85613952Y-75257819D01*
X85613952Y-75257819D02*
X85518714Y-75257819D01*
X86518714Y-74686390D02*
X86423476Y-74638771D01*
X86423476Y-74638771D02*
X86375857Y-74591152D01*
X86375857Y-74591152D02*
X86328238Y-74495914D01*
X86328238Y-74495914D02*
X86328238Y-74448295D01*
X86328238Y-74448295D02*
X86375857Y-74353057D01*
X86375857Y-74353057D02*
X86423476Y-74305438D01*
X86423476Y-74305438D02*
X86518714Y-74257819D01*
X86518714Y-74257819D02*
X86709190Y-74257819D01*
X86709190Y-74257819D02*
X86804428Y-74305438D01*
X86804428Y-74305438D02*
X86852047Y-74353057D01*
X86852047Y-74353057D02*
X86899666Y-74448295D01*
X86899666Y-74448295D02*
X86899666Y-74495914D01*
X86899666Y-74495914D02*
X86852047Y-74591152D01*
X86852047Y-74591152D02*
X86804428Y-74638771D01*
X86804428Y-74638771D02*
X86709190Y-74686390D01*
X86709190Y-74686390D02*
X86518714Y-74686390D01*
X86518714Y-74686390D02*
X86423476Y-74734009D01*
X86423476Y-74734009D02*
X86375857Y-74781628D01*
X86375857Y-74781628D02*
X86328238Y-74876866D01*
X86328238Y-74876866D02*
X86328238Y-75067342D01*
X86328238Y-75067342D02*
X86375857Y-75162580D01*
X86375857Y-75162580D02*
X86423476Y-75210200D01*
X86423476Y-75210200D02*
X86518714Y-75257819D01*
X86518714Y-75257819D02*
X86709190Y-75257819D01*
X86709190Y-75257819D02*
X86804428Y-75210200D01*
X86804428Y-75210200D02*
X86852047Y-75162580D01*
X86852047Y-75162580D02*
X86899666Y-75067342D01*
X86899666Y-75067342D02*
X86899666Y-74876866D01*
X86899666Y-74876866D02*
X86852047Y-74781628D01*
X86852047Y-74781628D02*
X86804428Y-74734009D01*
X86804428Y-74734009D02*
X86709190Y-74686390D01*
X75977333Y-40372819D02*
X75644000Y-39896628D01*
X75405905Y-40372819D02*
X75405905Y-39372819D01*
X75405905Y-39372819D02*
X75786857Y-39372819D01*
X75786857Y-39372819D02*
X75882095Y-39420438D01*
X75882095Y-39420438D02*
X75929714Y-39468057D01*
X75929714Y-39468057D02*
X75977333Y-39563295D01*
X75977333Y-39563295D02*
X75977333Y-39706152D01*
X75977333Y-39706152D02*
X75929714Y-39801390D01*
X75929714Y-39801390D02*
X75882095Y-39849009D01*
X75882095Y-39849009D02*
X75786857Y-39896628D01*
X75786857Y-39896628D02*
X75405905Y-39896628D01*
X76834476Y-39706152D02*
X76834476Y-40372819D01*
X76596381Y-39325200D02*
X76358286Y-40039485D01*
X76358286Y-40039485D02*
X76977333Y-40039485D01*
X76624142Y-56492580D02*
X76576523Y-56540200D01*
X76576523Y-56540200D02*
X76433666Y-56587819D01*
X76433666Y-56587819D02*
X76338428Y-56587819D01*
X76338428Y-56587819D02*
X76195571Y-56540200D01*
X76195571Y-56540200D02*
X76100333Y-56444961D01*
X76100333Y-56444961D02*
X76052714Y-56349723D01*
X76052714Y-56349723D02*
X76005095Y-56159247D01*
X76005095Y-56159247D02*
X76005095Y-56016390D01*
X76005095Y-56016390D02*
X76052714Y-55825914D01*
X76052714Y-55825914D02*
X76100333Y-55730676D01*
X76100333Y-55730676D02*
X76195571Y-55635438D01*
X76195571Y-55635438D02*
X76338428Y-55587819D01*
X76338428Y-55587819D02*
X76433666Y-55587819D01*
X76433666Y-55587819D02*
X76576523Y-55635438D01*
X76576523Y-55635438D02*
X76624142Y-55683057D01*
X77576523Y-56587819D02*
X77005095Y-56587819D01*
X77290809Y-56587819D02*
X77290809Y-55587819D01*
X77290809Y-55587819D02*
X77195571Y-55730676D01*
X77195571Y-55730676D02*
X77100333Y-55825914D01*
X77100333Y-55825914D02*
X77005095Y-55873533D01*
X78528904Y-56587819D02*
X77957476Y-56587819D01*
X78243190Y-56587819D02*
X78243190Y-55587819D01*
X78243190Y-55587819D02*
X78147952Y-55730676D01*
X78147952Y-55730676D02*
X78052714Y-55825914D01*
X78052714Y-55825914D02*
X77957476Y-55873533D01*
X89328666Y-56477819D02*
X89328666Y-57192104D01*
X89328666Y-57192104D02*
X89281047Y-57334961D01*
X89281047Y-57334961D02*
X89185809Y-57430200D01*
X89185809Y-57430200D02*
X89042952Y-57477819D01*
X89042952Y-57477819D02*
X88947714Y-57477819D01*
X89709619Y-56477819D02*
X90328666Y-56477819D01*
X90328666Y-56477819D02*
X89995333Y-56858771D01*
X89995333Y-56858771D02*
X90138190Y-56858771D01*
X90138190Y-56858771D02*
X90233428Y-56906390D01*
X90233428Y-56906390D02*
X90281047Y-56954009D01*
X90281047Y-56954009D02*
X90328666Y-57049247D01*
X90328666Y-57049247D02*
X90328666Y-57287342D01*
X90328666Y-57287342D02*
X90281047Y-57382580D01*
X90281047Y-57382580D02*
X90233428Y-57430200D01*
X90233428Y-57430200D02*
X90138190Y-57477819D01*
X90138190Y-57477819D02*
X89852476Y-57477819D01*
X89852476Y-57477819D02*
X89757238Y-57430200D01*
X89757238Y-57430200D02*
X89709619Y-57382580D01*
X36369666Y-32601819D02*
X36369666Y-33316104D01*
X36369666Y-33316104D02*
X36322047Y-33458961D01*
X36322047Y-33458961D02*
X36226809Y-33554200D01*
X36226809Y-33554200D02*
X36083952Y-33601819D01*
X36083952Y-33601819D02*
X35988714Y-33601819D01*
X37274428Y-32601819D02*
X37083952Y-32601819D01*
X37083952Y-32601819D02*
X36988714Y-32649438D01*
X36988714Y-32649438D02*
X36941095Y-32697057D01*
X36941095Y-32697057D02*
X36845857Y-32839914D01*
X36845857Y-32839914D02*
X36798238Y-33030390D01*
X36798238Y-33030390D02*
X36798238Y-33411342D01*
X36798238Y-33411342D02*
X36845857Y-33506580D01*
X36845857Y-33506580D02*
X36893476Y-33554200D01*
X36893476Y-33554200D02*
X36988714Y-33601819D01*
X36988714Y-33601819D02*
X37179190Y-33601819D01*
X37179190Y-33601819D02*
X37274428Y-33554200D01*
X37274428Y-33554200D02*
X37322047Y-33506580D01*
X37322047Y-33506580D02*
X37369666Y-33411342D01*
X37369666Y-33411342D02*
X37369666Y-33173247D01*
X37369666Y-33173247D02*
X37322047Y-33078009D01*
X37322047Y-33078009D02*
X37274428Y-33030390D01*
X37274428Y-33030390D02*
X37179190Y-32982771D01*
X37179190Y-32982771D02*
X36988714Y-32982771D01*
X36988714Y-32982771D02*
X36893476Y-33030390D01*
X36893476Y-33030390D02*
X36845857Y-33078009D01*
X36845857Y-33078009D02*
X36798238Y-33173247D01*
X59363760Y-44742580D02*
X59316141Y-44790200D01*
X59316141Y-44790200D02*
X59173284Y-44837819D01*
X59173284Y-44837819D02*
X59078046Y-44837819D01*
X59078046Y-44837819D02*
X58935189Y-44790200D01*
X58935189Y-44790200D02*
X58839951Y-44694961D01*
X58839951Y-44694961D02*
X58792332Y-44599723D01*
X58792332Y-44599723D02*
X58744713Y-44409247D01*
X58744713Y-44409247D02*
X58744713Y-44266390D01*
X58744713Y-44266390D02*
X58792332Y-44075914D01*
X58792332Y-44075914D02*
X58839951Y-43980676D01*
X58839951Y-43980676D02*
X58935189Y-43885438D01*
X58935189Y-43885438D02*
X59078046Y-43837819D01*
X59078046Y-43837819D02*
X59173284Y-43837819D01*
X59173284Y-43837819D02*
X59316141Y-43885438D01*
X59316141Y-43885438D02*
X59363760Y-43933057D01*
X59744713Y-43933057D02*
X59792332Y-43885438D01*
X59792332Y-43885438D02*
X59887570Y-43837819D01*
X59887570Y-43837819D02*
X60125665Y-43837819D01*
X60125665Y-43837819D02*
X60220903Y-43885438D01*
X60220903Y-43885438D02*
X60268522Y-43933057D01*
X60268522Y-43933057D02*
X60316141Y-44028295D01*
X60316141Y-44028295D02*
X60316141Y-44123533D01*
X60316141Y-44123533D02*
X60268522Y-44266390D01*
X60268522Y-44266390D02*
X59697094Y-44837819D01*
X59697094Y-44837819D02*
X60316141Y-44837819D01*
X49772533Y-64518580D02*
X49724914Y-64566200D01*
X49724914Y-64566200D02*
X49582057Y-64613819D01*
X49582057Y-64613819D02*
X49486819Y-64613819D01*
X49486819Y-64613819D02*
X49343962Y-64566200D01*
X49343962Y-64566200D02*
X49248724Y-64470961D01*
X49248724Y-64470961D02*
X49201105Y-64375723D01*
X49201105Y-64375723D02*
X49153486Y-64185247D01*
X49153486Y-64185247D02*
X49153486Y-64042390D01*
X49153486Y-64042390D02*
X49201105Y-63851914D01*
X49201105Y-63851914D02*
X49248724Y-63756676D01*
X49248724Y-63756676D02*
X49343962Y-63661438D01*
X49343962Y-63661438D02*
X49486819Y-63613819D01*
X49486819Y-63613819D02*
X49582057Y-63613819D01*
X49582057Y-63613819D02*
X49724914Y-63661438D01*
X49724914Y-63661438D02*
X49772533Y-63709057D01*
X50105867Y-63613819D02*
X50772533Y-63613819D01*
X50772533Y-63613819D02*
X50343962Y-64613819D01*
X75727333Y-42872819D02*
X75394000Y-42396628D01*
X75155905Y-42872819D02*
X75155905Y-41872819D01*
X75155905Y-41872819D02*
X75536857Y-41872819D01*
X75536857Y-41872819D02*
X75632095Y-41920438D01*
X75632095Y-41920438D02*
X75679714Y-41968057D01*
X75679714Y-41968057D02*
X75727333Y-42063295D01*
X75727333Y-42063295D02*
X75727333Y-42206152D01*
X75727333Y-42206152D02*
X75679714Y-42301390D01*
X75679714Y-42301390D02*
X75632095Y-42349009D01*
X75632095Y-42349009D02*
X75536857Y-42396628D01*
X75536857Y-42396628D02*
X75155905Y-42396628D01*
X76060667Y-41872819D02*
X76679714Y-41872819D01*
X76679714Y-41872819D02*
X76346381Y-42253771D01*
X76346381Y-42253771D02*
X76489238Y-42253771D01*
X76489238Y-42253771D02*
X76584476Y-42301390D01*
X76584476Y-42301390D02*
X76632095Y-42349009D01*
X76632095Y-42349009D02*
X76679714Y-42444247D01*
X76679714Y-42444247D02*
X76679714Y-42682342D01*
X76679714Y-42682342D02*
X76632095Y-42777580D01*
X76632095Y-42777580D02*
X76584476Y-42825200D01*
X76584476Y-42825200D02*
X76489238Y-42872819D01*
X76489238Y-42872819D02*
X76203524Y-42872819D01*
X76203524Y-42872819D02*
X76108286Y-42825200D01*
X76108286Y-42825200D02*
X76060667Y-42777580D01*
X76471819Y-62144904D02*
X77281342Y-62144904D01*
X77281342Y-62144904D02*
X77376580Y-62097285D01*
X77376580Y-62097285D02*
X77424200Y-62049666D01*
X77424200Y-62049666D02*
X77471819Y-61954428D01*
X77471819Y-61954428D02*
X77471819Y-61763952D01*
X77471819Y-61763952D02*
X77424200Y-61668714D01*
X77424200Y-61668714D02*
X77376580Y-61621095D01*
X77376580Y-61621095D02*
X77281342Y-61573476D01*
X77281342Y-61573476D02*
X76471819Y-61573476D01*
X76805152Y-60668714D02*
X77471819Y-60668714D01*
X76424200Y-60906809D02*
X77138485Y-61144904D01*
X77138485Y-61144904D02*
X77138485Y-60525857D01*
X56239580Y-46775857D02*
X56287200Y-46823476D01*
X56287200Y-46823476D02*
X56334819Y-46966333D01*
X56334819Y-46966333D02*
X56334819Y-47061571D01*
X56334819Y-47061571D02*
X56287200Y-47204428D01*
X56287200Y-47204428D02*
X56191961Y-47299666D01*
X56191961Y-47299666D02*
X56096723Y-47347285D01*
X56096723Y-47347285D02*
X55906247Y-47394904D01*
X55906247Y-47394904D02*
X55763390Y-47394904D01*
X55763390Y-47394904D02*
X55572914Y-47347285D01*
X55572914Y-47347285D02*
X55477676Y-47299666D01*
X55477676Y-47299666D02*
X55382438Y-47204428D01*
X55382438Y-47204428D02*
X55334819Y-47061571D01*
X55334819Y-47061571D02*
X55334819Y-46966333D01*
X55334819Y-46966333D02*
X55382438Y-46823476D01*
X55382438Y-46823476D02*
X55430057Y-46775857D01*
X56334819Y-45823476D02*
X56334819Y-46394904D01*
X56334819Y-46109190D02*
X55334819Y-46109190D01*
X55334819Y-46109190D02*
X55477676Y-46204428D01*
X55477676Y-46204428D02*
X55572914Y-46299666D01*
X55572914Y-46299666D02*
X55620533Y-46394904D01*
X55668152Y-44966333D02*
X56334819Y-44966333D01*
X55287200Y-45204428D02*
X56001485Y-45442523D01*
X56001485Y-45442523D02*
X56001485Y-44823476D01*
X44791333Y-64589819D02*
X44458000Y-64113628D01*
X44219905Y-64589819D02*
X44219905Y-63589819D01*
X44219905Y-63589819D02*
X44600857Y-63589819D01*
X44600857Y-63589819D02*
X44696095Y-63637438D01*
X44696095Y-63637438D02*
X44743714Y-63685057D01*
X44743714Y-63685057D02*
X44791333Y-63780295D01*
X44791333Y-63780295D02*
X44791333Y-63923152D01*
X44791333Y-63923152D02*
X44743714Y-64018390D01*
X44743714Y-64018390D02*
X44696095Y-64066009D01*
X44696095Y-64066009D02*
X44600857Y-64113628D01*
X44600857Y-64113628D02*
X44219905Y-64113628D01*
X45172286Y-63685057D02*
X45219905Y-63637438D01*
X45219905Y-63637438D02*
X45315143Y-63589819D01*
X45315143Y-63589819D02*
X45553238Y-63589819D01*
X45553238Y-63589819D02*
X45648476Y-63637438D01*
X45648476Y-63637438D02*
X45696095Y-63685057D01*
X45696095Y-63685057D02*
X45743714Y-63780295D01*
X45743714Y-63780295D02*
X45743714Y-63875533D01*
X45743714Y-63875533D02*
X45696095Y-64018390D01*
X45696095Y-64018390D02*
X45124667Y-64589819D01*
X45124667Y-64589819D02*
X45743714Y-64589819D01*
X74100333Y-63992580D02*
X74052714Y-64040200D01*
X74052714Y-64040200D02*
X73909857Y-64087819D01*
X73909857Y-64087819D02*
X73814619Y-64087819D01*
X73814619Y-64087819D02*
X73671762Y-64040200D01*
X73671762Y-64040200D02*
X73576524Y-63944961D01*
X73576524Y-63944961D02*
X73528905Y-63849723D01*
X73528905Y-63849723D02*
X73481286Y-63659247D01*
X73481286Y-63659247D02*
X73481286Y-63516390D01*
X73481286Y-63516390D02*
X73528905Y-63325914D01*
X73528905Y-63325914D02*
X73576524Y-63230676D01*
X73576524Y-63230676D02*
X73671762Y-63135438D01*
X73671762Y-63135438D02*
X73814619Y-63087819D01*
X73814619Y-63087819D02*
X73909857Y-63087819D01*
X73909857Y-63087819D02*
X74052714Y-63135438D01*
X74052714Y-63135438D02*
X74100333Y-63183057D01*
X75005095Y-63087819D02*
X74528905Y-63087819D01*
X74528905Y-63087819D02*
X74481286Y-63564009D01*
X74481286Y-63564009D02*
X74528905Y-63516390D01*
X74528905Y-63516390D02*
X74624143Y-63468771D01*
X74624143Y-63468771D02*
X74862238Y-63468771D01*
X74862238Y-63468771D02*
X74957476Y-63516390D01*
X74957476Y-63516390D02*
X75005095Y-63564009D01*
X75005095Y-63564009D02*
X75052714Y-63659247D01*
X75052714Y-63659247D02*
X75052714Y-63897342D01*
X75052714Y-63897342D02*
X75005095Y-63992580D01*
X75005095Y-63992580D02*
X74957476Y-64040200D01*
X74957476Y-64040200D02*
X74862238Y-64087819D01*
X74862238Y-64087819D02*
X74624143Y-64087819D01*
X74624143Y-64087819D02*
X74528905Y-64040200D01*
X74528905Y-64040200D02*
X74481286Y-63992580D01*
X62357095Y-59652819D02*
X62357095Y-60462342D01*
X62357095Y-60462342D02*
X62404714Y-60557580D01*
X62404714Y-60557580D02*
X62452333Y-60605200D01*
X62452333Y-60605200D02*
X62547571Y-60652819D01*
X62547571Y-60652819D02*
X62738047Y-60652819D01*
X62738047Y-60652819D02*
X62833285Y-60605200D01*
X62833285Y-60605200D02*
X62880904Y-60557580D01*
X62880904Y-60557580D02*
X62928523Y-60462342D01*
X62928523Y-60462342D02*
X62928523Y-59652819D01*
X63357095Y-59748057D02*
X63404714Y-59700438D01*
X63404714Y-59700438D02*
X63499952Y-59652819D01*
X63499952Y-59652819D02*
X63738047Y-59652819D01*
X63738047Y-59652819D02*
X63833285Y-59700438D01*
X63833285Y-59700438D02*
X63880904Y-59748057D01*
X63880904Y-59748057D02*
X63928523Y-59843295D01*
X63928523Y-59843295D02*
X63928523Y-59938533D01*
X63928523Y-59938533D02*
X63880904Y-60081390D01*
X63880904Y-60081390D02*
X63309476Y-60652819D01*
X63309476Y-60652819D02*
X63928523Y-60652819D01*
X50157142Y-43793580D02*
X50109523Y-43841200D01*
X50109523Y-43841200D02*
X49966666Y-43888819D01*
X49966666Y-43888819D02*
X49871428Y-43888819D01*
X49871428Y-43888819D02*
X49728571Y-43841200D01*
X49728571Y-43841200D02*
X49633333Y-43745961D01*
X49633333Y-43745961D02*
X49585714Y-43650723D01*
X49585714Y-43650723D02*
X49538095Y-43460247D01*
X49538095Y-43460247D02*
X49538095Y-43317390D01*
X49538095Y-43317390D02*
X49585714Y-43126914D01*
X49585714Y-43126914D02*
X49633333Y-43031676D01*
X49633333Y-43031676D02*
X49728571Y-42936438D01*
X49728571Y-42936438D02*
X49871428Y-42888819D01*
X49871428Y-42888819D02*
X49966666Y-42888819D01*
X49966666Y-42888819D02*
X50109523Y-42936438D01*
X50109523Y-42936438D02*
X50157142Y-42984057D01*
X51109523Y-43888819D02*
X50538095Y-43888819D01*
X50823809Y-43888819D02*
X50823809Y-42888819D01*
X50823809Y-42888819D02*
X50728571Y-43031676D01*
X50728571Y-43031676D02*
X50633333Y-43126914D01*
X50633333Y-43126914D02*
X50538095Y-43174533D01*
X51442857Y-42888819D02*
X52061904Y-42888819D01*
X52061904Y-42888819D02*
X51728571Y-43269771D01*
X51728571Y-43269771D02*
X51871428Y-43269771D01*
X51871428Y-43269771D02*
X51966666Y-43317390D01*
X51966666Y-43317390D02*
X52014285Y-43365009D01*
X52014285Y-43365009D02*
X52061904Y-43460247D01*
X52061904Y-43460247D02*
X52061904Y-43698342D01*
X52061904Y-43698342D02*
X52014285Y-43793580D01*
X52014285Y-43793580D02*
X51966666Y-43841200D01*
X51966666Y-43841200D02*
X51871428Y-43888819D01*
X51871428Y-43888819D02*
X51585714Y-43888819D01*
X51585714Y-43888819D02*
X51490476Y-43841200D01*
X51490476Y-43841200D02*
X51442857Y-43793580D01*
X92433666Y-63837819D02*
X92433666Y-64552104D01*
X92433666Y-64552104D02*
X92386047Y-64694961D01*
X92386047Y-64694961D02*
X92290809Y-64790200D01*
X92290809Y-64790200D02*
X92147952Y-64837819D01*
X92147952Y-64837819D02*
X92052714Y-64837819D01*
X92957476Y-64837819D02*
X93147952Y-64837819D01*
X93147952Y-64837819D02*
X93243190Y-64790200D01*
X93243190Y-64790200D02*
X93290809Y-64742580D01*
X93290809Y-64742580D02*
X93386047Y-64599723D01*
X93386047Y-64599723D02*
X93433666Y-64409247D01*
X93433666Y-64409247D02*
X93433666Y-64028295D01*
X93433666Y-64028295D02*
X93386047Y-63933057D01*
X93386047Y-63933057D02*
X93338428Y-63885438D01*
X93338428Y-63885438D02*
X93243190Y-63837819D01*
X93243190Y-63837819D02*
X93052714Y-63837819D01*
X93052714Y-63837819D02*
X92957476Y-63885438D01*
X92957476Y-63885438D02*
X92909857Y-63933057D01*
X92909857Y-63933057D02*
X92862238Y-64028295D01*
X92862238Y-64028295D02*
X92862238Y-64266390D01*
X92862238Y-64266390D02*
X92909857Y-64361628D01*
X92909857Y-64361628D02*
X92957476Y-64409247D01*
X92957476Y-64409247D02*
X93052714Y-64456866D01*
X93052714Y-64456866D02*
X93243190Y-64456866D01*
X93243190Y-64456866D02*
X93338428Y-64409247D01*
X93338428Y-64409247D02*
X93386047Y-64361628D01*
X93386047Y-64361628D02*
X93433666Y-64266390D01*
X81938905Y-42872819D02*
X81938905Y-41872819D01*
X81938905Y-41872819D02*
X82177000Y-41872819D01*
X82177000Y-41872819D02*
X82319857Y-41920438D01*
X82319857Y-41920438D02*
X82415095Y-42015676D01*
X82415095Y-42015676D02*
X82462714Y-42110914D01*
X82462714Y-42110914D02*
X82510333Y-42301390D01*
X82510333Y-42301390D02*
X82510333Y-42444247D01*
X82510333Y-42444247D02*
X82462714Y-42634723D01*
X82462714Y-42634723D02*
X82415095Y-42729961D01*
X82415095Y-42729961D02*
X82319857Y-42825200D01*
X82319857Y-42825200D02*
X82177000Y-42872819D01*
X82177000Y-42872819D02*
X81938905Y-42872819D01*
X82891286Y-41968057D02*
X82938905Y-41920438D01*
X82938905Y-41920438D02*
X83034143Y-41872819D01*
X83034143Y-41872819D02*
X83272238Y-41872819D01*
X83272238Y-41872819D02*
X83367476Y-41920438D01*
X83367476Y-41920438D02*
X83415095Y-41968057D01*
X83415095Y-41968057D02*
X83462714Y-42063295D01*
X83462714Y-42063295D02*
X83462714Y-42158533D01*
X83462714Y-42158533D02*
X83415095Y-42301390D01*
X83415095Y-42301390D02*
X82843667Y-42872819D01*
X82843667Y-42872819D02*
X83462714Y-42872819D01*
X56239580Y-59025857D02*
X56287200Y-59073476D01*
X56287200Y-59073476D02*
X56334819Y-59216333D01*
X56334819Y-59216333D02*
X56334819Y-59311571D01*
X56334819Y-59311571D02*
X56287200Y-59454428D01*
X56287200Y-59454428D02*
X56191961Y-59549666D01*
X56191961Y-59549666D02*
X56096723Y-59597285D01*
X56096723Y-59597285D02*
X55906247Y-59644904D01*
X55906247Y-59644904D02*
X55763390Y-59644904D01*
X55763390Y-59644904D02*
X55572914Y-59597285D01*
X55572914Y-59597285D02*
X55477676Y-59549666D01*
X55477676Y-59549666D02*
X55382438Y-59454428D01*
X55382438Y-59454428D02*
X55334819Y-59311571D01*
X55334819Y-59311571D02*
X55334819Y-59216333D01*
X55334819Y-59216333D02*
X55382438Y-59073476D01*
X55382438Y-59073476D02*
X55430057Y-59025857D01*
X56334819Y-58073476D02*
X56334819Y-58644904D01*
X56334819Y-58359190D02*
X55334819Y-58359190D01*
X55334819Y-58359190D02*
X55477676Y-58454428D01*
X55477676Y-58454428D02*
X55572914Y-58549666D01*
X55572914Y-58549666D02*
X55620533Y-58644904D01*
X55334819Y-57168714D02*
X55334819Y-57644904D01*
X55334819Y-57644904D02*
X55811009Y-57692523D01*
X55811009Y-57692523D02*
X55763390Y-57644904D01*
X55763390Y-57644904D02*
X55715771Y-57549666D01*
X55715771Y-57549666D02*
X55715771Y-57311571D01*
X55715771Y-57311571D02*
X55763390Y-57216333D01*
X55763390Y-57216333D02*
X55811009Y-57168714D01*
X55811009Y-57168714D02*
X55906247Y-57121095D01*
X55906247Y-57121095D02*
X56144342Y-57121095D01*
X56144342Y-57121095D02*
X56239580Y-57168714D01*
X56239580Y-57168714D02*
X56287200Y-57216333D01*
X56287200Y-57216333D02*
X56334819Y-57311571D01*
X56334819Y-57311571D02*
X56334819Y-57549666D01*
X56334819Y-57549666D02*
X56287200Y-57644904D01*
X56287200Y-57644904D02*
X56239580Y-57692523D01*
X48245628Y-59109190D02*
X48721819Y-59109190D01*
X47721819Y-59442523D02*
X48245628Y-59109190D01*
X48245628Y-59109190D02*
X47721819Y-58775857D01*
X48721819Y-57918714D02*
X48721819Y-58490142D01*
X48721819Y-58204428D02*
X47721819Y-58204428D01*
X47721819Y-58204428D02*
X47864676Y-58299666D01*
X47864676Y-58299666D02*
X47959914Y-58394904D01*
X47959914Y-58394904D02*
X48007533Y-58490142D01*
X32707533Y-64640619D02*
X32374200Y-64164428D01*
X32136105Y-64640619D02*
X32136105Y-63640619D01*
X32136105Y-63640619D02*
X32517057Y-63640619D01*
X32517057Y-63640619D02*
X32612295Y-63688238D01*
X32612295Y-63688238D02*
X32659914Y-63735857D01*
X32659914Y-63735857D02*
X32707533Y-63831095D01*
X32707533Y-63831095D02*
X32707533Y-63973952D01*
X32707533Y-63973952D02*
X32659914Y-64069190D01*
X32659914Y-64069190D02*
X32612295Y-64116809D01*
X32612295Y-64116809D02*
X32517057Y-64164428D01*
X32517057Y-64164428D02*
X32136105Y-64164428D01*
X33659914Y-64640619D02*
X33088486Y-64640619D01*
X33374200Y-64640619D02*
X33374200Y-63640619D01*
X33374200Y-63640619D02*
X33278962Y-63783476D01*
X33278962Y-63783476D02*
X33183724Y-63878714D01*
X33183724Y-63878714D02*
X33088486Y-63926333D01*
X38100333Y-42237819D02*
X37767000Y-41761628D01*
X37528905Y-42237819D02*
X37528905Y-41237819D01*
X37528905Y-41237819D02*
X37909857Y-41237819D01*
X37909857Y-41237819D02*
X38005095Y-41285438D01*
X38005095Y-41285438D02*
X38052714Y-41333057D01*
X38052714Y-41333057D02*
X38100333Y-41428295D01*
X38100333Y-41428295D02*
X38100333Y-41571152D01*
X38100333Y-41571152D02*
X38052714Y-41666390D01*
X38052714Y-41666390D02*
X38005095Y-41714009D01*
X38005095Y-41714009D02*
X37909857Y-41761628D01*
X37909857Y-41761628D02*
X37528905Y-41761628D01*
X38576524Y-42237819D02*
X38767000Y-42237819D01*
X38767000Y-42237819D02*
X38862238Y-42190200D01*
X38862238Y-42190200D02*
X38909857Y-42142580D01*
X38909857Y-42142580D02*
X39005095Y-41999723D01*
X39005095Y-41999723D02*
X39052714Y-41809247D01*
X39052714Y-41809247D02*
X39052714Y-41428295D01*
X39052714Y-41428295D02*
X39005095Y-41333057D01*
X39005095Y-41333057D02*
X38957476Y-41285438D01*
X38957476Y-41285438D02*
X38862238Y-41237819D01*
X38862238Y-41237819D02*
X38671762Y-41237819D01*
X38671762Y-41237819D02*
X38576524Y-41285438D01*
X38576524Y-41285438D02*
X38528905Y-41333057D01*
X38528905Y-41333057D02*
X38481286Y-41428295D01*
X38481286Y-41428295D02*
X38481286Y-41666390D01*
X38481286Y-41666390D02*
X38528905Y-41761628D01*
X38528905Y-41761628D02*
X38576524Y-41809247D01*
X38576524Y-41809247D02*
X38671762Y-41856866D01*
X38671762Y-41856866D02*
X38862238Y-41856866D01*
X38862238Y-41856866D02*
X38957476Y-41809247D01*
X38957476Y-41809247D02*
X39005095Y-41761628D01*
X39005095Y-41761628D02*
X39052714Y-41666390D01*
X42029142Y-43793580D02*
X41981523Y-43841200D01*
X41981523Y-43841200D02*
X41838666Y-43888819D01*
X41838666Y-43888819D02*
X41743428Y-43888819D01*
X41743428Y-43888819D02*
X41600571Y-43841200D01*
X41600571Y-43841200D02*
X41505333Y-43745961D01*
X41505333Y-43745961D02*
X41457714Y-43650723D01*
X41457714Y-43650723D02*
X41410095Y-43460247D01*
X41410095Y-43460247D02*
X41410095Y-43317390D01*
X41410095Y-43317390D02*
X41457714Y-43126914D01*
X41457714Y-43126914D02*
X41505333Y-43031676D01*
X41505333Y-43031676D02*
X41600571Y-42936438D01*
X41600571Y-42936438D02*
X41743428Y-42888819D01*
X41743428Y-42888819D02*
X41838666Y-42888819D01*
X41838666Y-42888819D02*
X41981523Y-42936438D01*
X41981523Y-42936438D02*
X42029142Y-42984057D01*
X42981523Y-43888819D02*
X42410095Y-43888819D01*
X42695809Y-43888819D02*
X42695809Y-42888819D01*
X42695809Y-42888819D02*
X42600571Y-43031676D01*
X42600571Y-43031676D02*
X42505333Y-43126914D01*
X42505333Y-43126914D02*
X42410095Y-43174533D01*
X43362476Y-42984057D02*
X43410095Y-42936438D01*
X43410095Y-42936438D02*
X43505333Y-42888819D01*
X43505333Y-42888819D02*
X43743428Y-42888819D01*
X43743428Y-42888819D02*
X43838666Y-42936438D01*
X43838666Y-42936438D02*
X43886285Y-42984057D01*
X43886285Y-42984057D02*
X43933904Y-43079295D01*
X43933904Y-43079295D02*
X43933904Y-43174533D01*
X43933904Y-43174533D02*
X43886285Y-43317390D01*
X43886285Y-43317390D02*
X43314857Y-43888819D01*
X43314857Y-43888819D02*
X43933904Y-43888819D01*
X85221819Y-65539857D02*
X84745628Y-65873190D01*
X85221819Y-66111285D02*
X84221819Y-66111285D01*
X84221819Y-66111285D02*
X84221819Y-65730333D01*
X84221819Y-65730333D02*
X84269438Y-65635095D01*
X84269438Y-65635095D02*
X84317057Y-65587476D01*
X84317057Y-65587476D02*
X84412295Y-65539857D01*
X84412295Y-65539857D02*
X84555152Y-65539857D01*
X84555152Y-65539857D02*
X84650390Y-65587476D01*
X84650390Y-65587476D02*
X84698009Y-65635095D01*
X84698009Y-65635095D02*
X84745628Y-65730333D01*
X84745628Y-65730333D02*
X84745628Y-66111285D01*
X85221819Y-64587476D02*
X85221819Y-65158904D01*
X85221819Y-64873190D02*
X84221819Y-64873190D01*
X84221819Y-64873190D02*
X84364676Y-64968428D01*
X84364676Y-64968428D02*
X84459914Y-65063666D01*
X84459914Y-65063666D02*
X84507533Y-65158904D01*
X84221819Y-63968428D02*
X84221819Y-63873190D01*
X84221819Y-63873190D02*
X84269438Y-63777952D01*
X84269438Y-63777952D02*
X84317057Y-63730333D01*
X84317057Y-63730333D02*
X84412295Y-63682714D01*
X84412295Y-63682714D02*
X84602771Y-63635095D01*
X84602771Y-63635095D02*
X84840866Y-63635095D01*
X84840866Y-63635095D02*
X85031342Y-63682714D01*
X85031342Y-63682714D02*
X85126580Y-63730333D01*
X85126580Y-63730333D02*
X85174200Y-63777952D01*
X85174200Y-63777952D02*
X85221819Y-63873190D01*
X85221819Y-63873190D02*
X85221819Y-63968428D01*
X85221819Y-63968428D02*
X85174200Y-64063666D01*
X85174200Y-64063666D02*
X85126580Y-64111285D01*
X85126580Y-64111285D02*
X85031342Y-64158904D01*
X85031342Y-64158904D02*
X84840866Y-64206523D01*
X84840866Y-64206523D02*
X84602771Y-64206523D01*
X84602771Y-64206523D02*
X84412295Y-64158904D01*
X84412295Y-64158904D02*
X84317057Y-64111285D01*
X84317057Y-64111285D02*
X84269438Y-64063666D01*
X84269438Y-64063666D02*
X84221819Y-63968428D01*
X41278905Y-36395819D02*
X41278905Y-35395819D01*
X41278905Y-35395819D02*
X41517000Y-35395819D01*
X41517000Y-35395819D02*
X41659857Y-35443438D01*
X41659857Y-35443438D02*
X41755095Y-35538676D01*
X41755095Y-35538676D02*
X41802714Y-35633914D01*
X41802714Y-35633914D02*
X41850333Y-35824390D01*
X41850333Y-35824390D02*
X41850333Y-35967247D01*
X41850333Y-35967247D02*
X41802714Y-36157723D01*
X41802714Y-36157723D02*
X41755095Y-36252961D01*
X41755095Y-36252961D02*
X41659857Y-36348200D01*
X41659857Y-36348200D02*
X41517000Y-36395819D01*
X41517000Y-36395819D02*
X41278905Y-36395819D01*
X42183667Y-35395819D02*
X42802714Y-35395819D01*
X42802714Y-35395819D02*
X42469381Y-35776771D01*
X42469381Y-35776771D02*
X42612238Y-35776771D01*
X42612238Y-35776771D02*
X42707476Y-35824390D01*
X42707476Y-35824390D02*
X42755095Y-35872009D01*
X42755095Y-35872009D02*
X42802714Y-35967247D01*
X42802714Y-35967247D02*
X42802714Y-36205342D01*
X42802714Y-36205342D02*
X42755095Y-36300580D01*
X42755095Y-36300580D02*
X42707476Y-36348200D01*
X42707476Y-36348200D02*
X42612238Y-36395819D01*
X42612238Y-36395819D02*
X42326524Y-36395819D01*
X42326524Y-36395819D02*
X42231286Y-36348200D01*
X42231286Y-36348200D02*
X42183667Y-36300580D01*
X60285333Y-67034580D02*
X60237714Y-67082200D01*
X60237714Y-67082200D02*
X60094857Y-67129819D01*
X60094857Y-67129819D02*
X59999619Y-67129819D01*
X59999619Y-67129819D02*
X59856762Y-67082200D01*
X59856762Y-67082200D02*
X59761524Y-66986961D01*
X59761524Y-66986961D02*
X59713905Y-66891723D01*
X59713905Y-66891723D02*
X59666286Y-66701247D01*
X59666286Y-66701247D02*
X59666286Y-66558390D01*
X59666286Y-66558390D02*
X59713905Y-66367914D01*
X59713905Y-66367914D02*
X59761524Y-66272676D01*
X59761524Y-66272676D02*
X59856762Y-66177438D01*
X59856762Y-66177438D02*
X59999619Y-66129819D01*
X59999619Y-66129819D02*
X60094857Y-66129819D01*
X60094857Y-66129819D02*
X60237714Y-66177438D01*
X60237714Y-66177438D02*
X60285333Y-66225057D01*
X60618667Y-66129819D02*
X61237714Y-66129819D01*
X61237714Y-66129819D02*
X60904381Y-66510771D01*
X60904381Y-66510771D02*
X61047238Y-66510771D01*
X61047238Y-66510771D02*
X61142476Y-66558390D01*
X61142476Y-66558390D02*
X61190095Y-66606009D01*
X61190095Y-66606009D02*
X61237714Y-66701247D01*
X61237714Y-66701247D02*
X61237714Y-66939342D01*
X61237714Y-66939342D02*
X61190095Y-67034580D01*
X61190095Y-67034580D02*
X61142476Y-67082200D01*
X61142476Y-67082200D02*
X61047238Y-67129819D01*
X61047238Y-67129819D02*
X60761524Y-67129819D01*
X60761524Y-67129819D02*
X60666286Y-67082200D01*
X60666286Y-67082200D02*
X60618667Y-67034580D01*
X63155905Y-40372819D02*
X63155905Y-39372819D01*
X63155905Y-39372819D02*
X63394000Y-39372819D01*
X63394000Y-39372819D02*
X63536857Y-39420438D01*
X63536857Y-39420438D02*
X63632095Y-39515676D01*
X63632095Y-39515676D02*
X63679714Y-39610914D01*
X63679714Y-39610914D02*
X63727333Y-39801390D01*
X63727333Y-39801390D02*
X63727333Y-39944247D01*
X63727333Y-39944247D02*
X63679714Y-40134723D01*
X63679714Y-40134723D02*
X63632095Y-40229961D01*
X63632095Y-40229961D02*
X63536857Y-40325200D01*
X63536857Y-40325200D02*
X63394000Y-40372819D01*
X63394000Y-40372819D02*
X63155905Y-40372819D01*
X64632095Y-39372819D02*
X64155905Y-39372819D01*
X64155905Y-39372819D02*
X64108286Y-39849009D01*
X64108286Y-39849009D02*
X64155905Y-39801390D01*
X64155905Y-39801390D02*
X64251143Y-39753771D01*
X64251143Y-39753771D02*
X64489238Y-39753771D01*
X64489238Y-39753771D02*
X64584476Y-39801390D01*
X64584476Y-39801390D02*
X64632095Y-39849009D01*
X64632095Y-39849009D02*
X64679714Y-39944247D01*
X64679714Y-39944247D02*
X64679714Y-40182342D01*
X64679714Y-40182342D02*
X64632095Y-40277580D01*
X64632095Y-40277580D02*
X64584476Y-40325200D01*
X64584476Y-40325200D02*
X64489238Y-40372819D01*
X64489238Y-40372819D02*
X64251143Y-40372819D01*
X64251143Y-40372819D02*
X64155905Y-40325200D01*
X64155905Y-40325200D02*
X64108286Y-40277580D01*
X88227819Y-38861904D02*
X89037342Y-38861904D01*
X89037342Y-38861904D02*
X89132580Y-38814285D01*
X89132580Y-38814285D02*
X89180200Y-38766666D01*
X89180200Y-38766666D02*
X89227819Y-38671428D01*
X89227819Y-38671428D02*
X89227819Y-38480952D01*
X89227819Y-38480952D02*
X89180200Y-38385714D01*
X89180200Y-38385714D02*
X89132580Y-38338095D01*
X89132580Y-38338095D02*
X89037342Y-38290476D01*
X89037342Y-38290476D02*
X88227819Y-38290476D01*
X88227819Y-37909523D02*
X88227819Y-37290476D01*
X88227819Y-37290476D02*
X88608771Y-37623809D01*
X88608771Y-37623809D02*
X88608771Y-37480952D01*
X88608771Y-37480952D02*
X88656390Y-37385714D01*
X88656390Y-37385714D02*
X88704009Y-37338095D01*
X88704009Y-37338095D02*
X88799247Y-37290476D01*
X88799247Y-37290476D02*
X89037342Y-37290476D01*
X89037342Y-37290476D02*
X89132580Y-37338095D01*
X89132580Y-37338095D02*
X89180200Y-37385714D01*
X89180200Y-37385714D02*
X89227819Y-37480952D01*
X89227819Y-37480952D02*
X89227819Y-37766666D01*
X89227819Y-37766666D02*
X89180200Y-37861904D01*
X89180200Y-37861904D02*
X89132580Y-37909523D01*
X71600333Y-63992580D02*
X71552714Y-64040200D01*
X71552714Y-64040200D02*
X71409857Y-64087819D01*
X71409857Y-64087819D02*
X71314619Y-64087819D01*
X71314619Y-64087819D02*
X71171762Y-64040200D01*
X71171762Y-64040200D02*
X71076524Y-63944961D01*
X71076524Y-63944961D02*
X71028905Y-63849723D01*
X71028905Y-63849723D02*
X70981286Y-63659247D01*
X70981286Y-63659247D02*
X70981286Y-63516390D01*
X70981286Y-63516390D02*
X71028905Y-63325914D01*
X71028905Y-63325914D02*
X71076524Y-63230676D01*
X71076524Y-63230676D02*
X71171762Y-63135438D01*
X71171762Y-63135438D02*
X71314619Y-63087819D01*
X71314619Y-63087819D02*
X71409857Y-63087819D01*
X71409857Y-63087819D02*
X71552714Y-63135438D01*
X71552714Y-63135438D02*
X71600333Y-63183057D01*
X72457476Y-63421152D02*
X72457476Y-64087819D01*
X72219381Y-63040200D02*
X71981286Y-63754485D01*
X71981286Y-63754485D02*
X72600333Y-63754485D01*
X37707533Y-64518580D02*
X37659914Y-64566200D01*
X37659914Y-64566200D02*
X37517057Y-64613819D01*
X37517057Y-64613819D02*
X37421819Y-64613819D01*
X37421819Y-64613819D02*
X37278962Y-64566200D01*
X37278962Y-64566200D02*
X37183724Y-64470961D01*
X37183724Y-64470961D02*
X37136105Y-64375723D01*
X37136105Y-64375723D02*
X37088486Y-64185247D01*
X37088486Y-64185247D02*
X37088486Y-64042390D01*
X37088486Y-64042390D02*
X37136105Y-63851914D01*
X37136105Y-63851914D02*
X37183724Y-63756676D01*
X37183724Y-63756676D02*
X37278962Y-63661438D01*
X37278962Y-63661438D02*
X37421819Y-63613819D01*
X37421819Y-63613819D02*
X37517057Y-63613819D01*
X37517057Y-63613819D02*
X37659914Y-63661438D01*
X37659914Y-63661438D02*
X37707533Y-63709057D01*
X38564676Y-63613819D02*
X38374200Y-63613819D01*
X38374200Y-63613819D02*
X38278962Y-63661438D01*
X38278962Y-63661438D02*
X38231343Y-63709057D01*
X38231343Y-63709057D02*
X38136105Y-63851914D01*
X38136105Y-63851914D02*
X38088486Y-64042390D01*
X38088486Y-64042390D02*
X38088486Y-64423342D01*
X38088486Y-64423342D02*
X38136105Y-64518580D01*
X38136105Y-64518580D02*
X38183724Y-64566200D01*
X38183724Y-64566200D02*
X38278962Y-64613819D01*
X38278962Y-64613819D02*
X38469438Y-64613819D01*
X38469438Y-64613819D02*
X38564676Y-64566200D01*
X38564676Y-64566200D02*
X38612295Y-64518580D01*
X38612295Y-64518580D02*
X38659914Y-64423342D01*
X38659914Y-64423342D02*
X38659914Y-64185247D01*
X38659914Y-64185247D02*
X38612295Y-64090009D01*
X38612295Y-64090009D02*
X38564676Y-64042390D01*
X38564676Y-64042390D02*
X38469438Y-63994771D01*
X38469438Y-63994771D02*
X38278962Y-63994771D01*
X38278962Y-63994771D02*
X38183724Y-64042390D01*
X38183724Y-64042390D02*
X38136105Y-64090009D01*
X38136105Y-64090009D02*
X38088486Y-64185247D01*
X52371666Y-74257819D02*
X52371666Y-74972104D01*
X52371666Y-74972104D02*
X52324047Y-75114961D01*
X52324047Y-75114961D02*
X52228809Y-75210200D01*
X52228809Y-75210200D02*
X52085952Y-75257819D01*
X52085952Y-75257819D02*
X51990714Y-75257819D01*
X53371666Y-75257819D02*
X52800238Y-75257819D01*
X53085952Y-75257819D02*
X53085952Y-74257819D01*
X53085952Y-74257819D02*
X52990714Y-74400676D01*
X52990714Y-74400676D02*
X52895476Y-74495914D01*
X52895476Y-74495914D02*
X52800238Y-74543533D01*
X63405905Y-42872819D02*
X63405905Y-41872819D01*
X63405905Y-41872819D02*
X63644000Y-41872819D01*
X63644000Y-41872819D02*
X63786857Y-41920438D01*
X63786857Y-41920438D02*
X63882095Y-42015676D01*
X63882095Y-42015676D02*
X63929714Y-42110914D01*
X63929714Y-42110914D02*
X63977333Y-42301390D01*
X63977333Y-42301390D02*
X63977333Y-42444247D01*
X63977333Y-42444247D02*
X63929714Y-42634723D01*
X63929714Y-42634723D02*
X63882095Y-42729961D01*
X63882095Y-42729961D02*
X63786857Y-42825200D01*
X63786857Y-42825200D02*
X63644000Y-42872819D01*
X63644000Y-42872819D02*
X63405905Y-42872819D01*
X64929714Y-42872819D02*
X64358286Y-42872819D01*
X64644000Y-42872819D02*
X64644000Y-41872819D01*
X64644000Y-41872819D02*
X64548762Y-42015676D01*
X64548762Y-42015676D02*
X64453524Y-42110914D01*
X64453524Y-42110914D02*
X64358286Y-42158533D01*
X30273666Y-43142819D02*
X30273666Y-43857104D01*
X30273666Y-43857104D02*
X30226047Y-43999961D01*
X30226047Y-43999961D02*
X30130809Y-44095200D01*
X30130809Y-44095200D02*
X29987952Y-44142819D01*
X29987952Y-44142819D02*
X29892714Y-44142819D01*
X30654619Y-43142819D02*
X31321285Y-43142819D01*
X31321285Y-43142819D02*
X30892714Y-44142819D01*
X77600333Y-54087819D02*
X77267000Y-53611628D01*
X77028905Y-54087819D02*
X77028905Y-53087819D01*
X77028905Y-53087819D02*
X77409857Y-53087819D01*
X77409857Y-53087819D02*
X77505095Y-53135438D01*
X77505095Y-53135438D02*
X77552714Y-53183057D01*
X77552714Y-53183057D02*
X77600333Y-53278295D01*
X77600333Y-53278295D02*
X77600333Y-53421152D01*
X77600333Y-53421152D02*
X77552714Y-53516390D01*
X77552714Y-53516390D02*
X77505095Y-53564009D01*
X77505095Y-53564009D02*
X77409857Y-53611628D01*
X77409857Y-53611628D02*
X77028905Y-53611628D01*
X77933667Y-53087819D02*
X78600333Y-53087819D01*
X78600333Y-53087819D02*
X78171762Y-54087819D01*
X77350333Y-51587819D02*
X77017000Y-51111628D01*
X76778905Y-51587819D02*
X76778905Y-50587819D01*
X76778905Y-50587819D02*
X77159857Y-50587819D01*
X77159857Y-50587819D02*
X77255095Y-50635438D01*
X77255095Y-50635438D02*
X77302714Y-50683057D01*
X77302714Y-50683057D02*
X77350333Y-50778295D01*
X77350333Y-50778295D02*
X77350333Y-50921152D01*
X77350333Y-50921152D02*
X77302714Y-51016390D01*
X77302714Y-51016390D02*
X77255095Y-51064009D01*
X77255095Y-51064009D02*
X77159857Y-51111628D01*
X77159857Y-51111628D02*
X76778905Y-51111628D01*
X77921762Y-51016390D02*
X77826524Y-50968771D01*
X77826524Y-50968771D02*
X77778905Y-50921152D01*
X77778905Y-50921152D02*
X77731286Y-50825914D01*
X77731286Y-50825914D02*
X77731286Y-50778295D01*
X77731286Y-50778295D02*
X77778905Y-50683057D01*
X77778905Y-50683057D02*
X77826524Y-50635438D01*
X77826524Y-50635438D02*
X77921762Y-50587819D01*
X77921762Y-50587819D02*
X78112238Y-50587819D01*
X78112238Y-50587819D02*
X78207476Y-50635438D01*
X78207476Y-50635438D02*
X78255095Y-50683057D01*
X78255095Y-50683057D02*
X78302714Y-50778295D01*
X78302714Y-50778295D02*
X78302714Y-50825914D01*
X78302714Y-50825914D02*
X78255095Y-50921152D01*
X78255095Y-50921152D02*
X78207476Y-50968771D01*
X78207476Y-50968771D02*
X78112238Y-51016390D01*
X78112238Y-51016390D02*
X77921762Y-51016390D01*
X77921762Y-51016390D02*
X77826524Y-51064009D01*
X77826524Y-51064009D02*
X77778905Y-51111628D01*
X77778905Y-51111628D02*
X77731286Y-51206866D01*
X77731286Y-51206866D02*
X77731286Y-51397342D01*
X77731286Y-51397342D02*
X77778905Y-51492580D01*
X77778905Y-51492580D02*
X77826524Y-51540200D01*
X77826524Y-51540200D02*
X77921762Y-51587819D01*
X77921762Y-51587819D02*
X78112238Y-51587819D01*
X78112238Y-51587819D02*
X78207476Y-51540200D01*
X78207476Y-51540200D02*
X78255095Y-51492580D01*
X78255095Y-51492580D02*
X78302714Y-51397342D01*
X78302714Y-51397342D02*
X78302714Y-51206866D01*
X78302714Y-51206866D02*
X78255095Y-51111628D01*
X78255095Y-51111628D02*
X78207476Y-51064009D01*
X78207476Y-51064009D02*
X78112238Y-51016390D01*
X47255095Y-33587819D02*
X47255095Y-34397342D01*
X47255095Y-34397342D02*
X47302714Y-34492580D01*
X47302714Y-34492580D02*
X47350333Y-34540200D01*
X47350333Y-34540200D02*
X47445571Y-34587819D01*
X47445571Y-34587819D02*
X47636047Y-34587819D01*
X47636047Y-34587819D02*
X47731285Y-34540200D01*
X47731285Y-34540200D02*
X47778904Y-34492580D01*
X47778904Y-34492580D02*
X47826523Y-34397342D01*
X47826523Y-34397342D02*
X47826523Y-33587819D01*
X48778904Y-33587819D02*
X48302714Y-33587819D01*
X48302714Y-33587819D02*
X48255095Y-34064009D01*
X48255095Y-34064009D02*
X48302714Y-34016390D01*
X48302714Y-34016390D02*
X48397952Y-33968771D01*
X48397952Y-33968771D02*
X48636047Y-33968771D01*
X48636047Y-33968771D02*
X48731285Y-34016390D01*
X48731285Y-34016390D02*
X48778904Y-34064009D01*
X48778904Y-34064009D02*
X48826523Y-34159247D01*
X48826523Y-34159247D02*
X48826523Y-34397342D01*
X48826523Y-34397342D02*
X48778904Y-34492580D01*
X48778904Y-34492580D02*
X48731285Y-34540200D01*
X48731285Y-34540200D02*
X48636047Y-34587819D01*
X48636047Y-34587819D02*
X48397952Y-34587819D01*
X48397952Y-34587819D02*
X48302714Y-34540200D01*
X48302714Y-34540200D02*
X48255095Y-34492580D01*
X82002333Y-33887580D02*
X81954714Y-33935200D01*
X81954714Y-33935200D02*
X81811857Y-33982819D01*
X81811857Y-33982819D02*
X81716619Y-33982819D01*
X81716619Y-33982819D02*
X81573762Y-33935200D01*
X81573762Y-33935200D02*
X81478524Y-33839961D01*
X81478524Y-33839961D02*
X81430905Y-33744723D01*
X81430905Y-33744723D02*
X81383286Y-33554247D01*
X81383286Y-33554247D02*
X81383286Y-33411390D01*
X81383286Y-33411390D02*
X81430905Y-33220914D01*
X81430905Y-33220914D02*
X81478524Y-33125676D01*
X81478524Y-33125676D02*
X81573762Y-33030438D01*
X81573762Y-33030438D02*
X81716619Y-32982819D01*
X81716619Y-32982819D02*
X81811857Y-32982819D01*
X81811857Y-32982819D02*
X81954714Y-33030438D01*
X81954714Y-33030438D02*
X82002333Y-33078057D01*
X82573762Y-33411390D02*
X82478524Y-33363771D01*
X82478524Y-33363771D02*
X82430905Y-33316152D01*
X82430905Y-33316152D02*
X82383286Y-33220914D01*
X82383286Y-33220914D02*
X82383286Y-33173295D01*
X82383286Y-33173295D02*
X82430905Y-33078057D01*
X82430905Y-33078057D02*
X82478524Y-33030438D01*
X82478524Y-33030438D02*
X82573762Y-32982819D01*
X82573762Y-32982819D02*
X82764238Y-32982819D01*
X82764238Y-32982819D02*
X82859476Y-33030438D01*
X82859476Y-33030438D02*
X82907095Y-33078057D01*
X82907095Y-33078057D02*
X82954714Y-33173295D01*
X82954714Y-33173295D02*
X82954714Y-33220914D01*
X82954714Y-33220914D02*
X82907095Y-33316152D01*
X82907095Y-33316152D02*
X82859476Y-33363771D01*
X82859476Y-33363771D02*
X82764238Y-33411390D01*
X82764238Y-33411390D02*
X82573762Y-33411390D01*
X82573762Y-33411390D02*
X82478524Y-33459009D01*
X82478524Y-33459009D02*
X82430905Y-33506628D01*
X82430905Y-33506628D02*
X82383286Y-33601866D01*
X82383286Y-33601866D02*
X82383286Y-33792342D01*
X82383286Y-33792342D02*
X82430905Y-33887580D01*
X82430905Y-33887580D02*
X82478524Y-33935200D01*
X82478524Y-33935200D02*
X82573762Y-33982819D01*
X82573762Y-33982819D02*
X82764238Y-33982819D01*
X82764238Y-33982819D02*
X82859476Y-33935200D01*
X82859476Y-33935200D02*
X82907095Y-33887580D01*
X82907095Y-33887580D02*
X82954714Y-33792342D01*
X82954714Y-33792342D02*
X82954714Y-33601866D01*
X82954714Y-33601866D02*
X82907095Y-33506628D01*
X82907095Y-33506628D02*
X82859476Y-33459009D01*
X82859476Y-33459009D02*
X82764238Y-33411390D01*
D13*
X44538400Y-71329600D02*
X44538400Y-72129600D01*
X44688400Y-69379600D02*
X49088400Y-69379600D01*
X49088400Y-74079600D02*
X44688400Y-74079600D01*
X49238400Y-72129600D02*
X49238400Y-71329600D01*
X48888400Y-73629600D02*
G75*
G02*
X48688400Y-73629600I-100000J0D01*
G01*
X48688400Y-73629600D02*
G75*
G02*
X48888400Y-73629600I100000J0D01*
G01*
X33591000Y-71355000D02*
X33591000Y-72155000D01*
X33741000Y-69405000D02*
X38141000Y-69405000D01*
X38141000Y-74105000D02*
X33741000Y-74105000D01*
X38291000Y-72155000D02*
X38291000Y-71355000D01*
X37941000Y-73655000D02*
G75*
G02*
X37741000Y-73655000I-100000J0D01*
G01*
X37741000Y-73655000D02*
G75*
G02*
X37941000Y-73655000I100000J0D01*
G01*
D14*
X61172000Y-46671748D02*
X61172000Y-48094252D01*
X62992000Y-46671748D02*
X62992000Y-48094252D01*
X29778000Y-47923000D02*
X35778000Y-47923000D01*
X29778000Y-48683000D02*
X29778000Y-47923000D01*
X29778000Y-50463000D02*
X35778000Y-50463000D01*
X29778000Y-51223000D02*
X29778000Y-50463000D01*
X29778000Y-53003000D02*
X35778000Y-53003000D01*
X29778000Y-53763000D02*
X29778000Y-53003000D01*
X29778000Y-55543000D02*
X35778000Y-55543000D01*
X29778000Y-56303000D02*
X29778000Y-55543000D01*
X29778000Y-58083000D02*
X35778000Y-58083000D01*
X29778000Y-58843000D02*
X29778000Y-58083000D01*
X35778000Y-46973000D02*
X35778000Y-59793000D01*
X35778000Y-48683000D02*
X29778000Y-48683000D01*
X35778000Y-51223000D02*
X29778000Y-51223000D01*
X35778000Y-53763000D02*
X29778000Y-53763000D01*
X35778000Y-56303000D02*
X29778000Y-56303000D01*
X35778000Y-58183000D02*
X29778000Y-58183000D01*
X35778000Y-58303000D02*
X29778000Y-58303000D01*
X35778000Y-58423000D02*
X29778000Y-58423000D01*
X35778000Y-58543000D02*
X29778000Y-58543000D01*
X35778000Y-58663000D02*
X29778000Y-58663000D01*
X35778000Y-58783000D02*
X29778000Y-58783000D01*
X35778000Y-58843000D02*
X29778000Y-58843000D01*
X35778000Y-59793000D02*
X38438000Y-59793000D01*
X38438000Y-46973000D02*
X35778000Y-46973000D01*
X38438000Y-49573000D02*
X35778000Y-49573000D01*
X38438000Y-52113000D02*
X35778000Y-52113000D01*
X38438000Y-54653000D02*
X35778000Y-54653000D01*
X38438000Y-57193000D02*
X35778000Y-57193000D01*
X38438000Y-59793000D02*
X38438000Y-46973000D01*
X38768000Y-58083000D02*
X38438000Y-58083000D01*
X38768000Y-58843000D02*
X38438000Y-58843000D01*
X38835071Y-47923000D02*
X38438000Y-47923000D01*
X38835071Y-48683000D02*
X38438000Y-48683000D01*
X38835071Y-50463000D02*
X38438000Y-50463000D01*
X38835071Y-51223000D02*
X38438000Y-51223000D01*
X38835071Y-53003000D02*
X38438000Y-53003000D01*
X38835071Y-53763000D02*
X38438000Y-53763000D01*
X38835071Y-55543000D02*
X38438000Y-55543000D01*
X38835071Y-56303000D02*
X38438000Y-56303000D01*
X41148000Y-58463000D02*
X41148000Y-59733000D01*
X41148000Y-59733000D02*
X39878000Y-59733000D01*
X84357000Y-61094252D02*
X84357000Y-59671748D01*
X86177000Y-61094252D02*
X86177000Y-59671748D01*
X54077000Y-32655200D02*
X54077000Y-35315200D01*
X76996999Y-32655200D02*
X54077000Y-32655200D01*
X76996999Y-32655200D02*
X76996999Y-35315200D01*
X76996999Y-35315200D02*
X54077000Y-35315200D01*
X78267000Y-32655200D02*
X79597000Y-32655200D01*
X79597000Y-32655200D02*
X79597000Y-33985200D01*
X63222000Y-50273000D02*
X63222000Y-50573000D01*
X63222000Y-57493000D02*
X63222000Y-57193000D01*
X63522000Y-50273000D02*
X63222000Y-50273000D01*
X63522000Y-57493000D02*
X63222000Y-57493000D01*
X70142000Y-50273000D02*
X70442000Y-50273000D01*
X70142000Y-57493000D02*
X70442000Y-57493000D01*
X70442000Y-50273000D02*
X70442000Y-50573000D01*
X70442000Y-57493000D02*
X70442000Y-57193000D01*
X62619500Y-50573000D02*
X62279500Y-50103000D01*
X62959500Y-50102999D01*
X62619500Y-50573000D01*
G36*
X62619500Y-50573000D02*
G01*
X62279500Y-50103000D01*
X62959500Y-50102999D01*
X62619500Y-50573000D01*
G37*
X80289936Y-47723000D02*
X81744064Y-47723000D01*
X80289936Y-49543000D02*
X81744064Y-49543000D01*
X86029748Y-42524000D02*
X87452252Y-42524000D01*
X86029748Y-44344000D02*
X87452252Y-44344000D01*
D13*
X75367000Y-67183000D02*
X77167000Y-67183000D01*
X75367000Y-70583000D02*
X77167000Y-70583000D01*
D14*
X81454500Y-66982999D02*
X80804500Y-66983000D01*
X81454500Y-66982999D02*
X82104500Y-66983000D01*
X81454500Y-70103001D02*
X80804500Y-70103000D01*
X81454500Y-70103001D02*
X82104500Y-70103000D01*
X80532000Y-66703001D02*
X80292000Y-67033000D01*
X80052000Y-66703000D01*
X80532000Y-66703001D01*
G36*
X80532000Y-66703001D02*
G01*
X80292000Y-67033000D01*
X80052000Y-66703000D01*
X80532000Y-66703001D01*
G37*
X87897000Y-74923000D02*
X87897000Y-73593000D01*
X89227000Y-74923000D02*
X87897000Y-74923000D01*
X90497001Y-72263000D02*
X93097000Y-72263000D01*
X90497001Y-74923000D02*
X90497001Y-72263000D01*
X90497001Y-74923000D02*
X93097000Y-74923000D01*
X93097000Y-74923000D02*
X93097000Y-72263000D01*
X71916936Y-39008000D02*
X73371064Y-39008000D01*
X71916936Y-40828000D02*
X73371064Y-40828000D01*
X81728252Y-55223000D02*
X80305748Y-55223000D01*
X81728252Y-57043000D02*
X80305748Y-57043000D01*
X86182000Y-49473000D02*
X86182000Y-48393000D01*
X86182000Y-53693000D02*
X85752000Y-53693000D01*
X86182000Y-54773000D02*
X86182000Y-53693000D01*
X91332000Y-47673000D02*
X88102000Y-47673000D01*
X91332000Y-55493000D02*
X88102000Y-55493000D01*
X95502000Y-47673000D02*
X93552000Y-47673000D01*
X95502000Y-47673000D02*
X95502000Y-55493000D01*
X95502000Y-55493000D02*
X93552000Y-55493000D01*
X29937000Y-32803000D02*
X29937000Y-35463000D01*
X32536999Y-32803000D02*
X29937000Y-32803000D01*
X32536999Y-32803000D02*
X32536999Y-35463000D01*
X32536999Y-35463000D02*
X29937000Y-35463000D01*
X33807000Y-32803000D02*
X35137000Y-32803000D01*
X35137000Y-32803000D02*
X35137000Y-34133000D01*
X58607000Y-46671748D02*
X58607000Y-48094252D01*
X60427000Y-46671748D02*
X60427000Y-48094252D01*
X49227948Y-65099000D02*
X50650452Y-65099000D01*
X49227948Y-66919000D02*
X50650452Y-66919000D01*
X71916936Y-41508000D02*
X73371064Y-41508000D01*
X71916936Y-43328000D02*
X73371064Y-43328000D01*
X77957000Y-61383000D02*
X77957000Y-59433000D01*
X77957000Y-61383000D02*
X77957000Y-63333000D01*
X83077000Y-61383000D02*
X83077000Y-59433000D01*
X83077000Y-61383000D02*
X83077000Y-63333000D01*
X83312000Y-58923000D02*
X82982000Y-58683000D01*
X83312000Y-58443000D01*
X83312000Y-58923000D01*
G36*
X83312000Y-58923000D02*
G01*
X82982000Y-58683000D01*
X83312000Y-58443000D01*
X83312000Y-58923000D01*
G37*
X54970000Y-49171748D02*
X54970000Y-50594252D01*
X56790000Y-49171748D02*
X56790000Y-50594252D01*
X45666264Y-65099000D02*
X44212136Y-65099000D01*
X45666264Y-66919000D02*
X44212136Y-66919000D01*
X73357000Y-61094252D02*
X73357000Y-59671748D01*
X75177000Y-61094252D02*
X75177000Y-59671748D01*
X62457000Y-64633000D02*
X62457000Y-62683000D01*
X62457000Y-64633000D02*
X62457000Y-66583000D01*
X67577000Y-64633000D02*
X67577000Y-62683000D01*
X67577000Y-64633000D02*
X67577000Y-66583000D01*
X62552000Y-67333000D02*
X62222000Y-67573000D01*
X62222000Y-67093000D01*
X62552000Y-67333000D01*
G36*
X62552000Y-67333000D02*
G01*
X62222000Y-67573000D01*
X62222000Y-67093000D01*
X62552000Y-67333000D01*
G37*
X47107000Y-44094252D02*
X47107000Y-42671748D01*
X48927000Y-44094252D02*
X48927000Y-42671748D01*
X86857000Y-65533000D02*
X93177000Y-65533000D01*
X86857000Y-71193000D02*
X86857000Y-65533000D01*
X86857000Y-71193000D02*
X93177000Y-71193000D01*
X87317000Y-71193000D02*
X87317000Y-65533000D01*
X92617000Y-66303000D02*
X92617000Y-65533000D01*
X92617000Y-68843000D02*
X92617000Y-67883001D01*
X92617000Y-71193000D02*
X92617000Y-70423000D01*
X92677000Y-71433000D02*
X93417000Y-71433000D01*
X93177000Y-66303000D02*
X93177000Y-65533000D01*
X93177000Y-68843000D02*
X93177000Y-67883001D01*
X93177000Y-71193000D02*
X93177000Y-70423000D01*
X93417000Y-71433000D02*
X93417000Y-70933000D01*
X79934000Y-41648000D02*
X83819000Y-41648000D01*
X83819000Y-39378000D02*
X79934000Y-39378000D01*
X83819000Y-41648000D02*
X83819000Y-39378000D01*
X54970000Y-55344252D02*
X54970000Y-53921748D01*
X56790000Y-55344252D02*
X56790000Y-53921748D01*
X49217000Y-45933000D02*
X49217000Y-58533000D01*
X54317000Y-45933000D02*
X49217000Y-45933000D01*
X54317000Y-58533000D02*
X54317000Y-45933000D01*
X33601264Y-65099000D02*
X32147136Y-65099000D01*
X33601264Y-66919000D02*
X32147136Y-66919000D01*
X37357000Y-37905936D02*
X37357000Y-39360064D01*
X39177000Y-37905936D02*
X39177000Y-39360064D01*
X44607000Y-44094252D02*
X44607000Y-42671748D01*
X46427000Y-44094252D02*
X46427000Y-42671748D01*
X83857000Y-69320064D02*
X83857000Y-67865936D01*
X85677000Y-69320064D02*
X85677000Y-67865936D01*
X42017000Y-36822999D02*
X41367000Y-36823000D01*
X42017000Y-36822999D02*
X42667000Y-36823000D01*
X42017000Y-39943001D02*
X41367000Y-39943000D01*
X42017000Y-39943001D02*
X42667000Y-39943000D01*
X43419500Y-40223000D02*
X42939500Y-40222999D01*
X43179500Y-39893000D01*
X43419500Y-40223000D01*
G36*
X43419500Y-40223000D02*
G01*
X42939500Y-40222999D01*
X43179500Y-39893000D01*
X43419500Y-40223000D01*
G37*
X59607000Y-64344252D02*
X59607000Y-62921748D01*
X61427000Y-64344252D02*
X61427000Y-62921748D01*
X65359000Y-38783000D02*
X65359000Y-41053000D01*
X65359000Y-41053000D02*
X69244000Y-41053000D01*
X69244000Y-38783000D02*
X65359000Y-38783000D01*
X86923000Y-34689999D02*
X90683000Y-34690000D01*
X86923000Y-41510001D02*
X90683000Y-41510000D01*
X90683000Y-34690000D02*
X90683000Y-35949999D01*
X90683000Y-41510000D02*
X90683000Y-40250001D01*
X85643000Y-34790000D02*
X85403000Y-34460000D01*
X85883000Y-34460000D01*
X85643000Y-34790000D01*
G36*
X85643000Y-34790000D02*
G01*
X85403000Y-34460000D01*
X85883000Y-34460000D01*
X85643000Y-34790000D01*
G37*
X70843573Y-61094252D02*
X70843573Y-59671748D01*
X72663573Y-61094252D02*
X72663573Y-59671748D01*
X37162948Y-65099000D02*
X38585452Y-65099000D01*
X37162948Y-66919000D02*
X38585452Y-66919000D01*
X54077000Y-75091600D02*
X54077000Y-73761600D01*
X55407000Y-75091600D02*
X54077000Y-75091600D01*
X56677001Y-72431600D02*
X79597000Y-72431600D01*
X56677001Y-75091600D02*
X56677001Y-72431600D01*
X56677001Y-75091600D02*
X79597000Y-75091600D01*
X79597000Y-75091600D02*
X79597000Y-72431600D01*
X65359000Y-41283000D02*
X65359000Y-43553000D01*
X65359000Y-43553000D02*
X69244000Y-43553000D01*
X69244000Y-41283000D02*
X65359000Y-41283000D01*
X29617000Y-36293000D02*
X29617000Y-36793000D01*
X29857000Y-36533000D02*
X29857000Y-37303000D01*
X29857000Y-38883000D02*
X29857000Y-39842999D01*
X29857000Y-41423000D02*
X29857000Y-42193000D01*
X30357000Y-36293000D02*
X29617000Y-36293000D01*
X30417000Y-36533000D02*
X30417000Y-37303000D01*
X30417000Y-38883000D02*
X30417000Y-39842999D01*
X30417000Y-41423000D02*
X30417000Y-42193000D01*
X35717000Y-36533000D02*
X35717000Y-42193000D01*
X36177000Y-36533000D02*
X29857000Y-36533000D01*
X36177000Y-36533000D02*
X36177000Y-42193000D01*
X36177000Y-42193000D02*
X29857000Y-42193000D01*
X81744064Y-52723000D02*
X80289936Y-52723000D01*
X81744064Y-54543000D02*
X80289936Y-54543000D01*
X81744064Y-50223000D02*
X80289936Y-50223000D01*
X81744064Y-52043000D02*
X80289936Y-52043000D01*
X48017000Y-35073001D02*
X46067000Y-35073000D01*
X48017000Y-35073001D02*
X49967000Y-35073000D01*
X48017000Y-40192999D02*
X46067000Y-40193000D01*
X48017000Y-40192999D02*
X49967000Y-40193000D01*
X50956999Y-40428000D02*
X50477000Y-40428000D01*
X50717000Y-40098000D01*
X50956999Y-40428000D01*
G36*
X50956999Y-40428000D02*
G01*
X50477000Y-40428000D01*
X50717000Y-40098000D01*
X50956999Y-40428000D01*
G37*
X81259000Y-37287252D02*
X81259000Y-35864748D01*
X83079000Y-37287252D02*
X83079000Y-35864748D01*
%LPC*%
D15*
X50388400Y-73229600D03*
X43388400Y-73229600D03*
X50388400Y-70229600D03*
X43388400Y-70229600D03*
X39441000Y-73255000D03*
X32441000Y-73255000D03*
X39441000Y-70255000D03*
X32441000Y-70255000D03*
D16*
X62082000Y-45907999D03*
X62082000Y-48858001D03*
D17*
X39878000Y-58463000D03*
D18*
X39878000Y-55923000D03*
X39878000Y-53383000D03*
X39878000Y-50843000D03*
X39878000Y-48303000D03*
D19*
X85267000Y-61858001D03*
X85267000Y-58907999D03*
D17*
X78267000Y-33985200D03*
D18*
X75727000Y-33985200D03*
X73187001Y-33985200D03*
X70647000Y-33985200D03*
X68107000Y-33985200D03*
X65567000Y-33985200D03*
X63027000Y-33985200D03*
X60486999Y-33985200D03*
X57947000Y-33985200D03*
X55407000Y-33985200D03*
D20*
X62657000Y-51083000D03*
X62657000Y-51883000D03*
X62657000Y-52683000D03*
X62657000Y-53483000D03*
X62657000Y-54283000D03*
X62657000Y-55083000D03*
X62657000Y-55883000D03*
X62657000Y-56683000D03*
D21*
X64032000Y-58058000D03*
X64832000Y-58058000D03*
X65632000Y-58058000D03*
X66432000Y-58058000D03*
X67232000Y-58058000D03*
X68032000Y-58058000D03*
X68832000Y-58058000D03*
X69632000Y-58058000D03*
D20*
X71007000Y-56683000D03*
X71007000Y-55883000D03*
X71007000Y-55083000D03*
X71007000Y-54283000D03*
X71007000Y-53483000D03*
X71007000Y-52683000D03*
X71007000Y-51883000D03*
X71007000Y-51083000D03*
D21*
X69632000Y-49708000D03*
X68832000Y-49708000D03*
X68032000Y-49708000D03*
X67232000Y-49708000D03*
X66432000Y-49708000D03*
X65632000Y-49708000D03*
X64832000Y-49708000D03*
X64032000Y-49708000D03*
D22*
X79554500Y-48633000D03*
X82479500Y-48633000D03*
D23*
X85265999Y-43434000D03*
X88216001Y-43434000D03*
D24*
X74442000Y-70008000D03*
X78092000Y-70008000D03*
X78092000Y-67758000D03*
X74442000Y-67758000D03*
D25*
X80517000Y-67593000D03*
X80517000Y-69493000D03*
X82392001Y-68543000D03*
D17*
X89227000Y-73593000D03*
D18*
X91767000Y-73593000D03*
D22*
X71181500Y-39918000D03*
X74106500Y-39918000D03*
D26*
X82492001Y-56133000D03*
X79541999Y-56133000D03*
D27*
X89592000Y-53783000D03*
X89592000Y-49383000D03*
D28*
X86892000Y-53183000D03*
X86892000Y-52383000D03*
X86892000Y-51583000D03*
X86892000Y-50783000D03*
X86892000Y-49983000D03*
D29*
X86992000Y-56033000D03*
X92442000Y-56033000D03*
X86992000Y-47133000D03*
X92442000Y-47133000D03*
D17*
X33807000Y-34133000D03*
D18*
X31267000Y-34133000D03*
D16*
X59517000Y-45907999D03*
X59517000Y-48858001D03*
D23*
X48464200Y-66009000D03*
X51414200Y-66009000D03*
D22*
X71181500Y-42418000D03*
X74106500Y-42418000D03*
D30*
X82422000Y-58908000D03*
X81152000Y-58908000D03*
X79882000Y-58908000D03*
X78612000Y-58908000D03*
X78612000Y-63858000D03*
X79882000Y-63858000D03*
X81152000Y-63858000D03*
X82422000Y-63858000D03*
D16*
X55880000Y-48407999D03*
X55880000Y-51358001D03*
D31*
X46401700Y-66009000D03*
X43476700Y-66009000D03*
D19*
X74267000Y-61858001D03*
X74267000Y-58907999D03*
D32*
X63112000Y-67108000D03*
X64382000Y-67108000D03*
X65652000Y-67108000D03*
X66922000Y-67108000D03*
X66922000Y-62158000D03*
X65652000Y-62158000D03*
X64382000Y-62158000D03*
X63112000Y-62158000D03*
D19*
X48017000Y-44858001D03*
X48017000Y-41907999D03*
D33*
X90017000Y-69633000D03*
D34*
X90017000Y-67093000D03*
D35*
X82933999Y-40513000D03*
X80134001Y-40513000D03*
D19*
X55880000Y-56108001D03*
X55880000Y-53157999D03*
D36*
X51767000Y-48383000D03*
X51767000Y-56883000D03*
D31*
X34336700Y-66009000D03*
X31411700Y-66009000D03*
D37*
X38267000Y-37170500D03*
X38267000Y-40095500D03*
D19*
X45517000Y-44858001D03*
X45517000Y-41907999D03*
D38*
X84767000Y-70055500D03*
X84767000Y-67130500D03*
D39*
X42954500Y-39333000D03*
X42954500Y-37433000D03*
X41079499Y-38383000D03*
D19*
X60517000Y-65108001D03*
X60517000Y-62157999D03*
D40*
X66244000Y-39918000D03*
X69044000Y-39918000D03*
D41*
X85623000Y-35800000D03*
X85623001Y-38100000D03*
D42*
X91922999Y-38100000D03*
D41*
X85623000Y-40400000D03*
D19*
X71753573Y-61858001D03*
X71753573Y-58907999D03*
D23*
X36399200Y-66009000D03*
X39349200Y-66009000D03*
D17*
X55407000Y-73761600D03*
D18*
X57947000Y-73761600D03*
X60486999Y-73761600D03*
X63027000Y-73761600D03*
X65567000Y-73761600D03*
X68107000Y-73761600D03*
X70647000Y-73761600D03*
X73187001Y-73761600D03*
X75727000Y-73761600D03*
X78267000Y-73761600D03*
D40*
X66244001Y-42418000D03*
X69043999Y-42418000D03*
D33*
X33017000Y-38093000D03*
D34*
X33017000Y-40633000D03*
D31*
X82479500Y-53633000D03*
X79554500Y-53633000D03*
X82479500Y-51133000D03*
X79554500Y-51133000D03*
D43*
X50492000Y-39538000D03*
X50492000Y-38268000D03*
X50492000Y-36998000D03*
X50492000Y-35728000D03*
X45542000Y-35728000D03*
X45542000Y-36998000D03*
X45542000Y-38268000D03*
X45542000Y-39538000D03*
D19*
X82169000Y-38051001D03*
X82169000Y-35100999D03*
%LPD*%
M02*
