G04 #@! TF.GenerationSoftware,KiCad,Pcbnew,8.0.2*
G04 #@! TF.CreationDate,2024-05-12T15:56:14+02:00*
G04 #@! TF.ProjectId,LimbusOne,4c696d62-7573-44f6-9e65-2e6b69636164,v.0.1*
G04 #@! TF.SameCoordinates,Original*
G04 #@! TF.FileFunction,Copper,L2,Bot*
G04 #@! TF.FilePolarity,Positive*
%FSLAX46Y46*%
G04 Gerber Fmt 4.6, Leading zero omitted, Abs format (unit mm)*
G04 Created by KiCad (PCBNEW 8.0.2) date 2024-05-12 15:56:14*
%MOMM*%
%LPD*%
G01*
G04 APERTURE LIST*
%ADD10C,0.300000*%
G04 #@! TA.AperFunction,NonConductor*
%ADD11C,0.300000*%
G04 #@! TD*
G04 #@! TA.AperFunction,ComponentPad*
%ADD12R,1.700000X1.700000*%
G04 #@! TD*
G04 #@! TA.AperFunction,ComponentPad*
%ADD13O,1.700000X1.700000*%
G04 #@! TD*
G04 #@! TA.AperFunction,ComponentPad*
%ADD14R,2.200000X2.200000*%
G04 #@! TD*
G04 #@! TA.AperFunction,ComponentPad*
%ADD15C,2.200000*%
G04 #@! TD*
G04 #@! TA.AperFunction,ViaPad*
%ADD16C,0.600000*%
G04 #@! TD*
G04 #@! TA.AperFunction,Conductor*
%ADD17C,0.200000*%
G04 #@! TD*
G04 #@! TA.AperFunction,Conductor*
%ADD18C,0.500000*%
G04 #@! TD*
G04 APERTURE END LIST*
D10*
D11*
X93167828Y-49751796D02*
X93167828Y-49037510D01*
X93167828Y-49037510D02*
X91667828Y-49037510D01*
X93167828Y-50251796D02*
X91667828Y-50251796D01*
X91667828Y-50251796D02*
X92739257Y-50751796D01*
X92739257Y-50751796D02*
X91667828Y-51251796D01*
X91667828Y-51251796D02*
X93167828Y-51251796D01*
X91667828Y-51823225D02*
X93167828Y-52180368D01*
X93167828Y-52180368D02*
X92096400Y-52466082D01*
X92096400Y-52466082D02*
X93167828Y-52751797D01*
X93167828Y-52751797D02*
X91667828Y-53108940D01*
X92382114Y-54180368D02*
X92453542Y-54394654D01*
X92453542Y-54394654D02*
X92524971Y-54466083D01*
X92524971Y-54466083D02*
X92667828Y-54537511D01*
X92667828Y-54537511D02*
X92882114Y-54537511D01*
X92882114Y-54537511D02*
X93024971Y-54466083D01*
X93024971Y-54466083D02*
X93096400Y-54394654D01*
X93096400Y-54394654D02*
X93167828Y-54251797D01*
X93167828Y-54251797D02*
X93167828Y-53680368D01*
X93167828Y-53680368D02*
X91667828Y-53680368D01*
X91667828Y-53680368D02*
X91667828Y-54180368D01*
X91667828Y-54180368D02*
X91739257Y-54323226D01*
X91739257Y-54323226D02*
X91810685Y-54394654D01*
X91810685Y-54394654D02*
X91953542Y-54466083D01*
X91953542Y-54466083D02*
X92096400Y-54466083D01*
X92096400Y-54466083D02*
X92239257Y-54394654D01*
X92239257Y-54394654D02*
X92310685Y-54323226D01*
X92310685Y-54323226D02*
X92382114Y-54180368D01*
X92382114Y-54180368D02*
X92382114Y-53680368D01*
D12*
X39878000Y-58463000D03*
D13*
X39878000Y-55923000D03*
X39878000Y-53383000D03*
X39878000Y-50843000D03*
X39878000Y-48303000D03*
D12*
X78267000Y-33985200D03*
D13*
X75727000Y-33985200D03*
X73187001Y-33985200D03*
X70647000Y-33985200D03*
X68107000Y-33985200D03*
X65567000Y-33985200D03*
X63027000Y-33985200D03*
X60486999Y-33985200D03*
X57947000Y-33985200D03*
X55407000Y-33985200D03*
D12*
X89227000Y-73593000D03*
D13*
X91767000Y-73593000D03*
D12*
X33807000Y-34133000D03*
D13*
X31267000Y-34133000D03*
D14*
X90017000Y-69633000D03*
D15*
X90017000Y-67093000D03*
D12*
X55407000Y-73761600D03*
D13*
X57947000Y-73761600D03*
X60486999Y-73761600D03*
X63027000Y-73761600D03*
X65567000Y-73761600D03*
X68107000Y-73761600D03*
X70647000Y-73761600D03*
X73187001Y-73761600D03*
X75727000Y-73761600D03*
X78267000Y-73761600D03*
D14*
X33017000Y-38093000D03*
D15*
X33017000Y-40633000D03*
D16*
X67644000Y-39918000D03*
X81152000Y-60268000D03*
X35941000Y-73279000D03*
X38125400Y-65989200D03*
X71767000Y-60383000D03*
X47967000Y-43633000D03*
X81407000Y-56133000D03*
X45567000Y-43633000D03*
X55880000Y-49530000D03*
X47067000Y-35783000D03*
X59517000Y-47133000D03*
X60467000Y-63883000D03*
X82169000Y-33782000D03*
X85598000Y-33782000D03*
X46863000Y-73279000D03*
X92442000Y-45226000D03*
X67792600Y-67106800D03*
X92442000Y-58025000D03*
X87630000Y-35814000D03*
X85039200Y-49987200D03*
X55880000Y-54923000D03*
X74267000Y-60383000D03*
X50063400Y-66014600D03*
X62017000Y-47133000D03*
X69517000Y-56633000D03*
X42267000Y-38383000D03*
X67644000Y-42418000D03*
X65011880Y-50956184D03*
X89535000Y-43434000D03*
X85267000Y-60633000D03*
X78612000Y-62288000D03*
X81342000Y-68558000D03*
X69672200Y-51083000D03*
X41173400Y-54838600D03*
X69011800Y-51883000D03*
X36576000Y-67564000D03*
X59814678Y-57278849D03*
X66989165Y-60358839D03*
X62890400Y-58039000D03*
X64389000Y-54889400D03*
X74168000Y-44069000D03*
X60440500Y-56780501D03*
X48641000Y-68199000D03*
X61040500Y-57328863D03*
X67811800Y-52019200D03*
X65652000Y-59588400D03*
X74003507Y-50168153D03*
X73609200Y-55880000D03*
X66090800Y-56523000D03*
X67211800Y-52722539D03*
X74269600Y-55067200D03*
X74803000Y-50139600D03*
X68808600Y-55041800D03*
X73203519Y-50163314D03*
X73075800Y-54305200D03*
X69418200Y-54330600D03*
X67945000Y-48133000D03*
X68808600Y-48158400D03*
X64389000Y-56523000D03*
X84734400Y-53187600D03*
X79883000Y-38481000D03*
X81026000Y-42545000D03*
D17*
X39878000Y-55923000D02*
X66867486Y-55923000D01*
X69672200Y-53118286D02*
X69672200Y-51083000D01*
X66867486Y-55923000D02*
X69672200Y-53118286D01*
X69011800Y-51883000D02*
X69011800Y-53213000D01*
X69011800Y-53213000D02*
X66701800Y-55523000D01*
X41400600Y-55523000D02*
X41173400Y-55295800D01*
X66701800Y-55523000D02*
X41400600Y-55523000D01*
X41173400Y-55295800D02*
X41173400Y-54838600D01*
X59814678Y-57278849D02*
X59814678Y-57741268D01*
X54756000Y-67799000D02*
X49089529Y-67799000D01*
X55607000Y-66948000D02*
X54756000Y-67799000D01*
X49089529Y-67799000D02*
X48854529Y-67564000D01*
X48854529Y-67564000D02*
X36576000Y-67564000D01*
X59814678Y-57741268D02*
X55607000Y-61948946D01*
X55607000Y-61948946D02*
X55607000Y-66948000D01*
X65522123Y-60358839D02*
X65138884Y-59975600D01*
X59692230Y-71011600D02*
X75517000Y-71011600D01*
X75517000Y-71011600D02*
X78267000Y-73761600D01*
X62671516Y-59975600D02*
X59270600Y-63376516D01*
X66989165Y-60358839D02*
X65522123Y-60358839D01*
X59270600Y-70589970D02*
X59692230Y-71011600D01*
X59270600Y-63376516D02*
X59270600Y-70589970D01*
X65138884Y-59975600D02*
X62671516Y-59975600D01*
X62890400Y-58039000D02*
X62345372Y-58039000D01*
X61877000Y-72611600D02*
X63027000Y-73761600D01*
X62345372Y-58039000D02*
X57670600Y-62713772D01*
X57670600Y-71252714D02*
X59029486Y-72611600D01*
X57670600Y-62713772D02*
X57670600Y-71252714D01*
X59029486Y-72611600D02*
X61877000Y-72611600D01*
X64389000Y-54889400D02*
X66598800Y-54889400D01*
X73746529Y-44069000D02*
X74168000Y-44069000D01*
X68411800Y-53076400D02*
X68411800Y-49403729D01*
X66598800Y-54889400D02*
X68411800Y-53076400D01*
X68411800Y-49403729D02*
X73746529Y-44069000D01*
X60440500Y-56780501D02*
X60440500Y-57681131D01*
X56007000Y-62114631D02*
X56007000Y-67113686D01*
X60440500Y-57681131D02*
X56007000Y-62114631D01*
X56007000Y-67113686D02*
X54921686Y-68199000D01*
X54921686Y-68199000D02*
X48641000Y-68199000D01*
X56470600Y-71799400D02*
X55407000Y-72863000D01*
X61040500Y-57328863D02*
X61040500Y-57646816D01*
X61040500Y-57646816D02*
X56470600Y-62216716D01*
X55407000Y-72863000D02*
X55407000Y-73761600D01*
X56470600Y-62216716D02*
X56470600Y-71799400D01*
X58420000Y-35306000D02*
X57947000Y-34833000D01*
X58420000Y-39173686D02*
X58420000Y-35306000D01*
X67811800Y-52019200D02*
X67345000Y-51552400D01*
X67345000Y-48098686D02*
X58420000Y-39173686D01*
X57947000Y-34833000D02*
X57947000Y-33985200D01*
X67345000Y-51552400D02*
X67345000Y-48098686D01*
X65304570Y-59575600D02*
X62505830Y-59575600D01*
X59526544Y-71411600D02*
X73377000Y-71411600D01*
X73377000Y-71411600D02*
X75727000Y-73761600D01*
X58870600Y-63210830D02*
X58870600Y-70755656D01*
X58870600Y-70755656D02*
X59526544Y-71411600D01*
X62505830Y-59575600D02*
X58870600Y-63210830D01*
X65317370Y-59588400D02*
X65304570Y-59575600D01*
X65652000Y-59588400D02*
X65317370Y-59588400D01*
X74003507Y-50168153D02*
X73990200Y-50181460D01*
X73990200Y-54498071D02*
X73609200Y-54879071D01*
X73990200Y-50181460D02*
X73990200Y-54498071D01*
X73609200Y-54879071D02*
X73609200Y-55880000D01*
X62695686Y-57123000D02*
X57270600Y-62548086D01*
X64637529Y-57123000D02*
X62695686Y-57123000D01*
X66090800Y-56523000D02*
X65489200Y-57124600D01*
X65489200Y-57124600D02*
X64639129Y-57124600D01*
X57270600Y-62548086D02*
X57270600Y-71418400D01*
X64639129Y-57124600D02*
X64637529Y-57123000D01*
X57270600Y-71418400D02*
X59613800Y-73761600D01*
X59613800Y-73761600D02*
X60486999Y-73761600D01*
X58020000Y-39339371D02*
X58020000Y-36598200D01*
X66945000Y-48264372D02*
X58020000Y-39339371D01*
X67211800Y-52722539D02*
X66945000Y-52455739D01*
X58020000Y-36598200D02*
X55407000Y-33985200D01*
X66945000Y-52455739D02*
X66945000Y-48264372D01*
X58070600Y-62879458D02*
X62174458Y-58775600D01*
X68707000Y-55041800D02*
X68808600Y-55041800D01*
X64973200Y-58775600D02*
X68707000Y-55041800D01*
X64017000Y-72211600D02*
X59195172Y-72211600D01*
X62174458Y-58775600D02*
X64973200Y-58775600D01*
X65567000Y-73761600D02*
X64017000Y-72211600D01*
X74803000Y-54533800D02*
X74269600Y-55067200D01*
X58070600Y-71087028D02*
X58070600Y-62879458D01*
X59195172Y-72211600D02*
X58070600Y-71087028D01*
X74803000Y-50139600D02*
X74803000Y-54533800D01*
X58470600Y-63045144D02*
X58470600Y-70921342D01*
X68672686Y-55641800D02*
X65138885Y-59175600D01*
X73203519Y-54177481D02*
X73075800Y-54305200D01*
X66157000Y-71811600D02*
X68107000Y-73761600D01*
X65138885Y-59175600D02*
X62340144Y-59175600D01*
X62340144Y-59175600D02*
X58470600Y-63045144D01*
X58470600Y-70921342D02*
X59360858Y-71811600D01*
X69057129Y-55641800D02*
X68672686Y-55641800D01*
X69418200Y-54330600D02*
X69418200Y-55280729D01*
X69418200Y-55280729D02*
X69057129Y-55641800D01*
X59360858Y-71811600D02*
X66157000Y-71811600D01*
X73203519Y-50163314D02*
X73203519Y-54177481D01*
X58820000Y-39008000D02*
X58820000Y-36753998D01*
X67945000Y-48133000D02*
X58820000Y-39008000D01*
X58820000Y-36753998D02*
X60486999Y-35086999D01*
X60486999Y-35086999D02*
X60486999Y-33985200D01*
X62154484Y-33985200D02*
X63027000Y-33985200D01*
X67910686Y-47533000D02*
X59220000Y-38842314D01*
X68193529Y-47533000D02*
X67910686Y-47533000D01*
X68808600Y-48148071D02*
X68193529Y-47533000D01*
X59220000Y-38842314D02*
X59220000Y-36919684D01*
X68808600Y-48158400D02*
X68808600Y-48148071D01*
X59220000Y-36919684D02*
X62154484Y-33985200D01*
X64389000Y-56523000D02*
X62730000Y-56523000D01*
X56870600Y-62382401D02*
X56870600Y-71584086D01*
X57947000Y-72660486D02*
X57947000Y-73761600D01*
X62730000Y-56523000D02*
X56870600Y-62382401D01*
X56870600Y-71584086D02*
X57947000Y-72660486D01*
D18*
X84289200Y-45808200D02*
X84289200Y-52742400D01*
X78267000Y-36865000D02*
X79883000Y-38481000D01*
X78267000Y-33985200D02*
X78267000Y-36865000D01*
X81026000Y-42545000D02*
X84289200Y-45808200D01*
X84289200Y-52742400D02*
X84734400Y-53187600D01*
G04 #@! TA.AperFunction,Conductor*
G36*
X75261075Y-33792207D02*
G01*
X75227000Y-33919374D01*
X75227000Y-34051026D01*
X75261075Y-34178193D01*
X75293988Y-34235200D01*
X73620013Y-34235200D01*
X73652926Y-34178193D01*
X73687001Y-34051026D01*
X73687001Y-33919374D01*
X73652926Y-33792207D01*
X73620013Y-33735200D01*
X75293988Y-33735200D01*
X75261075Y-33792207D01*
G37*
G04 #@! TD.AperFunction*
G04 #@! TA.AperFunction,Conductor*
G36*
X55402165Y-32390244D02*
G01*
X55410373Y-32385931D01*
X55434805Y-32383500D01*
X57919195Y-32383500D01*
X57942165Y-32390244D01*
X57950373Y-32385931D01*
X57974805Y-32383500D01*
X60459194Y-32383500D01*
X60482164Y-32390244D01*
X60490372Y-32385931D01*
X60514804Y-32383500D01*
X62999195Y-32383500D01*
X63022165Y-32390244D01*
X63030373Y-32385931D01*
X63054805Y-32383500D01*
X65539195Y-32383500D01*
X65562165Y-32390244D01*
X65570373Y-32385931D01*
X65594805Y-32383500D01*
X68079195Y-32383500D01*
X68102165Y-32390244D01*
X68110373Y-32385931D01*
X68134805Y-32383500D01*
X70619195Y-32383500D01*
X70642165Y-32390244D01*
X70650373Y-32385931D01*
X70674805Y-32383500D01*
X93392500Y-32383500D01*
X93459539Y-32403185D01*
X93505294Y-32455989D01*
X93516500Y-32507500D01*
X93516500Y-48258010D01*
X93496815Y-48325049D01*
X93444011Y-48370804D01*
X93392500Y-48382010D01*
X91009559Y-48382010D01*
X91009559Y-55194736D01*
X93392500Y-55194736D01*
X93459539Y-55214421D01*
X93505294Y-55267225D01*
X93516500Y-55318736D01*
X93516500Y-75258500D01*
X93496815Y-75325539D01*
X93444011Y-75371294D01*
X93392500Y-75382500D01*
X29641500Y-75382500D01*
X29574461Y-75362815D01*
X29528706Y-75310011D01*
X29517500Y-75258500D01*
X29517500Y-67563996D01*
X35770435Y-67563996D01*
X35770435Y-67564003D01*
X35790630Y-67743249D01*
X35790631Y-67743254D01*
X35850211Y-67913523D01*
X35875654Y-67954015D01*
X35946184Y-68066262D01*
X36073738Y-68193816D01*
X36226478Y-68289789D01*
X36396745Y-68349368D01*
X36396750Y-68349369D01*
X36575996Y-68369565D01*
X36576000Y-68369565D01*
X36576004Y-68369565D01*
X36755249Y-68349369D01*
X36755252Y-68349368D01*
X36755255Y-68349368D01*
X36925522Y-68289789D01*
X37078262Y-68193816D01*
X37078267Y-68193810D01*
X37081097Y-68191555D01*
X37083275Y-68190665D01*
X37084158Y-68190111D01*
X37084255Y-68190265D01*
X37145783Y-68165145D01*
X37158412Y-68164500D01*
X47720734Y-68164500D01*
X47787773Y-68184185D01*
X47833528Y-68236989D01*
X47843954Y-68274616D01*
X47855630Y-68378250D01*
X47855631Y-68378254D01*
X47915211Y-68548523D01*
X48011184Y-68701262D01*
X48138738Y-68828816D01*
X48291478Y-68924789D01*
X48461745Y-68984368D01*
X48461750Y-68984369D01*
X48640996Y-69004565D01*
X48641000Y-69004565D01*
X48641004Y-69004565D01*
X48820249Y-68984369D01*
X48820252Y-68984368D01*
X48820255Y-68984368D01*
X48990522Y-68924789D01*
X49143262Y-68828816D01*
X49143267Y-68828810D01*
X49146097Y-68826555D01*
X49148275Y-68825665D01*
X49149158Y-68825111D01*
X49149255Y-68825265D01*
X49210783Y-68800145D01*
X49223412Y-68799500D01*
X54835017Y-68799500D01*
X54835033Y-68799501D01*
X54842629Y-68799501D01*
X55000740Y-68799501D01*
X55000743Y-68799501D01*
X55153471Y-68758577D01*
X55203590Y-68729639D01*
X55290402Y-68679520D01*
X55402206Y-68567716D01*
X55402206Y-68567714D01*
X55412414Y-68557507D01*
X55412415Y-68557504D01*
X55658420Y-68311500D01*
X55719742Y-68278016D01*
X55789434Y-68283000D01*
X55845367Y-68324872D01*
X55869784Y-68390336D01*
X55870100Y-68399182D01*
X55870100Y-71499302D01*
X55850415Y-71566341D01*
X55833781Y-71586983D01*
X55045982Y-72374781D01*
X54984659Y-72408266D01*
X54958301Y-72411100D01*
X54509129Y-72411100D01*
X54509123Y-72411101D01*
X54449516Y-72417508D01*
X54314671Y-72467802D01*
X54314664Y-72467806D01*
X54199455Y-72554052D01*
X54199452Y-72554055D01*
X54113206Y-72669264D01*
X54113202Y-72669271D01*
X54062908Y-72804117D01*
X54056501Y-72863716D01*
X54056500Y-72863735D01*
X54056500Y-74659470D01*
X54056501Y-74659476D01*
X54062908Y-74719083D01*
X54113202Y-74853928D01*
X54113206Y-74853935D01*
X54199452Y-74969144D01*
X54199455Y-74969147D01*
X54314664Y-75055393D01*
X54314671Y-75055397D01*
X54449517Y-75105691D01*
X54449516Y-75105691D01*
X54456444Y-75106435D01*
X54509127Y-75112100D01*
X56304872Y-75112099D01*
X56364483Y-75105691D01*
X56499331Y-75055396D01*
X56614546Y-74969146D01*
X56700796Y-74853931D01*
X56749810Y-74722516D01*
X56791681Y-74666584D01*
X56857145Y-74642166D01*
X56925418Y-74657017D01*
X56953673Y-74678169D01*
X57075599Y-74800095D01*
X57171008Y-74866901D01*
X57269165Y-74935632D01*
X57269167Y-74935633D01*
X57269170Y-74935635D01*
X57483337Y-75035503D01*
X57711592Y-75096663D01*
X57888034Y-75112100D01*
X57946999Y-75117259D01*
X57947000Y-75117259D01*
X57947001Y-75117259D01*
X58005966Y-75112100D01*
X58182408Y-75096663D01*
X58410663Y-75035503D01*
X58624830Y-74935635D01*
X58818401Y-74800095D01*
X58985495Y-74633001D01*
X59115424Y-74447442D01*
X59170001Y-74403818D01*
X59239499Y-74396624D01*
X59301854Y-74428147D01*
X59318573Y-74447441D01*
X59448504Y-74633001D01*
X59615598Y-74800095D01*
X59711007Y-74866901D01*
X59809164Y-74935632D01*
X59809166Y-74935633D01*
X59809169Y-74935635D01*
X60023336Y-75035503D01*
X60251591Y-75096663D01*
X60428033Y-75112100D01*
X60486998Y-75117259D01*
X60486999Y-75117259D01*
X60487000Y-75117259D01*
X60545965Y-75112100D01*
X60722407Y-75096663D01*
X60950662Y-75035503D01*
X61164829Y-74935635D01*
X61358400Y-74800095D01*
X61525494Y-74633001D01*
X61655425Y-74447439D01*
X61710001Y-74403816D01*
X61779499Y-74396622D01*
X61841854Y-74428145D01*
X61858572Y-74447438D01*
X61988505Y-74633001D01*
X62155599Y-74800095D01*
X62251008Y-74866901D01*
X62349165Y-74935632D01*
X62349167Y-74935633D01*
X62349170Y-74935635D01*
X62563337Y-75035503D01*
X62791592Y-75096663D01*
X62968034Y-75112100D01*
X63026999Y-75117259D01*
X63027000Y-75117259D01*
X63027001Y-75117259D01*
X63085966Y-75112100D01*
X63262408Y-75096663D01*
X63490663Y-75035503D01*
X63704830Y-74935635D01*
X63898401Y-74800095D01*
X64065495Y-74633001D01*
X64195426Y-74447441D01*
X64250002Y-74403817D01*
X64319500Y-74396623D01*
X64381855Y-74428146D01*
X64398575Y-74447442D01*
X64528500Y-74632995D01*
X64528505Y-74633001D01*
X64695599Y-74800095D01*
X64791008Y-74866901D01*
X64889165Y-74935632D01*
X64889167Y-74935633D01*
X64889170Y-74935635D01*
X65103337Y-75035503D01*
X65331592Y-75096663D01*
X65508034Y-75112100D01*
X65566999Y-75117259D01*
X65567000Y-75117259D01*
X65567001Y-75117259D01*
X65625966Y-75112100D01*
X65802408Y-75096663D01*
X66030663Y-75035503D01*
X66244830Y-74935635D01*
X66438401Y-74800095D01*
X66605495Y-74633001D01*
X66735426Y-74447441D01*
X66790002Y-74403817D01*
X66859500Y-74396623D01*
X66921855Y-74428146D01*
X66938575Y-74447442D01*
X67068500Y-74632995D01*
X67068505Y-74633001D01*
X67235599Y-74800095D01*
X67331008Y-74866901D01*
X67429165Y-74935632D01*
X67429167Y-74935633D01*
X67429170Y-74935635D01*
X67643337Y-75035503D01*
X67871592Y-75096663D01*
X68048034Y-75112100D01*
X68106999Y-75117259D01*
X68107000Y-75117259D01*
X68107001Y-75117259D01*
X68165966Y-75112100D01*
X68342408Y-75096663D01*
X68570663Y-75035503D01*
X68784830Y-74935635D01*
X68978401Y-74800095D01*
X69145495Y-74633001D01*
X69275426Y-74447441D01*
X69330002Y-74403817D01*
X69399500Y-74396623D01*
X69461855Y-74428146D01*
X69478575Y-74447442D01*
X69608500Y-74632995D01*
X69608505Y-74633001D01*
X69775599Y-74800095D01*
X69871008Y-74866901D01*
X69969165Y-74935632D01*
X69969167Y-74935633D01*
X69969170Y-74935635D01*
X70183337Y-75035503D01*
X70411592Y-75096663D01*
X70588034Y-75112100D01*
X70646999Y-75117259D01*
X70647000Y-75117259D01*
X70647001Y-75117259D01*
X70705966Y-75112100D01*
X70882408Y-75096663D01*
X71110663Y-75035503D01*
X71324830Y-74935635D01*
X71518401Y-74800095D01*
X71685495Y-74633001D01*
X71815426Y-74447439D01*
X71870002Y-74403816D01*
X71939500Y-74396622D01*
X72001855Y-74428145D01*
X72018573Y-74447438D01*
X72148506Y-74633001D01*
X72315600Y-74800095D01*
X72411009Y-74866901D01*
X72509166Y-74935632D01*
X72509168Y-74935633D01*
X72509171Y-74935635D01*
X72723338Y-75035503D01*
X72951593Y-75096663D01*
X73128035Y-75112100D01*
X73187000Y-75117259D01*
X73187001Y-75117259D01*
X73187002Y-75117259D01*
X73245967Y-75112100D01*
X73422409Y-75096663D01*
X73650664Y-75035503D01*
X73864831Y-74935635D01*
X74058402Y-74800095D01*
X74225496Y-74633001D01*
X74355425Y-74447442D01*
X74410002Y-74403818D01*
X74479500Y-74396624D01*
X74541855Y-74428147D01*
X74558574Y-74447441D01*
X74688505Y-74633001D01*
X74855599Y-74800095D01*
X74951008Y-74866901D01*
X75049165Y-74935632D01*
X75049167Y-74935633D01*
X75049170Y-74935635D01*
X75263337Y-75035503D01*
X75491592Y-75096663D01*
X75668034Y-75112100D01*
X75726999Y-75117259D01*
X75727000Y-75117259D01*
X75727001Y-75117259D01*
X75785966Y-75112100D01*
X75962408Y-75096663D01*
X76190663Y-75035503D01*
X76404830Y-74935635D01*
X76598401Y-74800095D01*
X76765495Y-74633001D01*
X76895426Y-74447441D01*
X76950002Y-74403817D01*
X77019500Y-74396623D01*
X77081855Y-74428146D01*
X77098575Y-74447442D01*
X77228500Y-74632995D01*
X77228505Y-74633001D01*
X77395599Y-74800095D01*
X77491008Y-74866901D01*
X77589165Y-74935632D01*
X77589167Y-74935633D01*
X77589170Y-74935635D01*
X77803337Y-75035503D01*
X78031592Y-75096663D01*
X78208034Y-75112100D01*
X78266999Y-75117259D01*
X78267000Y-75117259D01*
X78267001Y-75117259D01*
X78325966Y-75112100D01*
X78502408Y-75096663D01*
X78730663Y-75035503D01*
X78944830Y-74935635D01*
X79138401Y-74800095D01*
X79305495Y-74633001D01*
X79441035Y-74439430D01*
X79540903Y-74225263D01*
X79602063Y-73997008D01*
X79622659Y-73761600D01*
X79602063Y-73526192D01*
X79540903Y-73297937D01*
X79441035Y-73083771D01*
X79435425Y-73075758D01*
X79305494Y-72890197D01*
X79138402Y-72723106D01*
X79138395Y-72723101D01*
X79098456Y-72695135D01*
X87876500Y-72695135D01*
X87876500Y-74490870D01*
X87876501Y-74490876D01*
X87882908Y-74550483D01*
X87933202Y-74685328D01*
X87933206Y-74685335D01*
X88019452Y-74800544D01*
X88019455Y-74800547D01*
X88134664Y-74886793D01*
X88134671Y-74886797D01*
X88269517Y-74937091D01*
X88269516Y-74937091D01*
X88276444Y-74937835D01*
X88329127Y-74943500D01*
X90124872Y-74943499D01*
X90184483Y-74937091D01*
X90319331Y-74886796D01*
X90434546Y-74800546D01*
X90520796Y-74685331D01*
X90569810Y-74553916D01*
X90611681Y-74497984D01*
X90677145Y-74473566D01*
X90745418Y-74488417D01*
X90773673Y-74509569D01*
X90895599Y-74631495D01*
X90992384Y-74699265D01*
X91089165Y-74767032D01*
X91089167Y-74767033D01*
X91089170Y-74767035D01*
X91303337Y-74866903D01*
X91531592Y-74928063D01*
X91708034Y-74943500D01*
X91766999Y-74948659D01*
X91767000Y-74948659D01*
X91767001Y-74948659D01*
X91825966Y-74943500D01*
X92002408Y-74928063D01*
X92230663Y-74866903D01*
X92444830Y-74767035D01*
X92638401Y-74631495D01*
X92805495Y-74464401D01*
X92941035Y-74270830D01*
X93040903Y-74056663D01*
X93102063Y-73828408D01*
X93122659Y-73593000D01*
X93102063Y-73357592D01*
X93040903Y-73129337D01*
X92941035Y-72915171D01*
X92923550Y-72890199D01*
X92805494Y-72721597D01*
X92638402Y-72554506D01*
X92638395Y-72554501D01*
X92444834Y-72418967D01*
X92444830Y-72418965D01*
X92427966Y-72411101D01*
X92230663Y-72319097D01*
X92230659Y-72319096D01*
X92230655Y-72319094D01*
X92002413Y-72257938D01*
X92002403Y-72257936D01*
X91767001Y-72237341D01*
X91766999Y-72237341D01*
X91531596Y-72257936D01*
X91531586Y-72257938D01*
X91303344Y-72319094D01*
X91303335Y-72319098D01*
X91089171Y-72418964D01*
X91089169Y-72418965D01*
X90895600Y-72554503D01*
X90773673Y-72676430D01*
X90712350Y-72709914D01*
X90642658Y-72704930D01*
X90586725Y-72663058D01*
X90569810Y-72632081D01*
X90520797Y-72500671D01*
X90520793Y-72500664D01*
X90434547Y-72385455D01*
X90434544Y-72385452D01*
X90319335Y-72299206D01*
X90319328Y-72299202D01*
X90184482Y-72248908D01*
X90184483Y-72248908D01*
X90124883Y-72242501D01*
X90124881Y-72242500D01*
X90124873Y-72242500D01*
X90124864Y-72242500D01*
X88329129Y-72242500D01*
X88329123Y-72242501D01*
X88269516Y-72248908D01*
X88134671Y-72299202D01*
X88134664Y-72299206D01*
X88019455Y-72385452D01*
X88019452Y-72385455D01*
X87933206Y-72500664D01*
X87933202Y-72500671D01*
X87882908Y-72635517D01*
X87876501Y-72695116D01*
X87876500Y-72695135D01*
X79098456Y-72695135D01*
X78944834Y-72587567D01*
X78944830Y-72587565D01*
X78873935Y-72554506D01*
X78730663Y-72487697D01*
X78730659Y-72487696D01*
X78730655Y-72487694D01*
X78502413Y-72426538D01*
X78502403Y-72426536D01*
X78267001Y-72405941D01*
X78266999Y-72405941D01*
X78031596Y-72426536D01*
X78031583Y-72426539D01*
X77903241Y-72460927D01*
X77833392Y-72459264D01*
X77783468Y-72428833D01*
X76004590Y-70649955D01*
X76004588Y-70649952D01*
X75885717Y-70531081D01*
X75885716Y-70531080D01*
X75798904Y-70480960D01*
X75798904Y-70480959D01*
X75798900Y-70480958D01*
X75748785Y-70452023D01*
X75596057Y-70411099D01*
X75437943Y-70411099D01*
X75430347Y-70411099D01*
X75430331Y-70411100D01*
X59995100Y-70411100D01*
X59928061Y-70391415D01*
X59882306Y-70338611D01*
X59871100Y-70287100D01*
X59871100Y-67093000D01*
X88411551Y-67093000D01*
X88431317Y-67344151D01*
X88490126Y-67589110D01*
X88586533Y-67821859D01*
X88667520Y-67954016D01*
X88685765Y-68021462D01*
X88664649Y-68088064D01*
X88636105Y-68118072D01*
X88559452Y-68175455D01*
X88473206Y-68290664D01*
X88473202Y-68290671D01*
X88422908Y-68425517D01*
X88416501Y-68485116D01*
X88416501Y-68485123D01*
X88416500Y-68485135D01*
X88416500Y-70780870D01*
X88416501Y-70780876D01*
X88422908Y-70840483D01*
X88473202Y-70975328D01*
X88473206Y-70975335D01*
X88559452Y-71090544D01*
X88559455Y-71090547D01*
X88674664Y-71176793D01*
X88674671Y-71176797D01*
X88809517Y-71227091D01*
X88809516Y-71227091D01*
X88816444Y-71227835D01*
X88869127Y-71233500D01*
X91164872Y-71233499D01*
X91224483Y-71227091D01*
X91359331Y-71176796D01*
X91474546Y-71090546D01*
X91560796Y-70975331D01*
X91611091Y-70840483D01*
X91617500Y-70780873D01*
X91617499Y-68485128D01*
X91611091Y-68425517D01*
X91597969Y-68390336D01*
X91560797Y-68290671D01*
X91560793Y-68290664D01*
X91474547Y-68175455D01*
X91397894Y-68118072D01*
X91356024Y-68062138D01*
X91351040Y-67992446D01*
X91366476Y-67954021D01*
X91447466Y-67821859D01*
X91543873Y-67589111D01*
X91602683Y-67344148D01*
X91622449Y-67093000D01*
X91602683Y-66841852D01*
X91543873Y-66596889D01*
X91447466Y-66364141D01*
X91447466Y-66364140D01*
X91315839Y-66149346D01*
X91315838Y-66149343D01*
X91278875Y-66106066D01*
X91152224Y-65957776D01*
X91025571Y-65849604D01*
X90960656Y-65794161D01*
X90960653Y-65794160D01*
X90745859Y-65662533D01*
X90513110Y-65566126D01*
X90268151Y-65507317D01*
X90017000Y-65487551D01*
X89765848Y-65507317D01*
X89520889Y-65566126D01*
X89288140Y-65662533D01*
X89073346Y-65794160D01*
X89073343Y-65794161D01*
X88881776Y-65957776D01*
X88718161Y-66149343D01*
X88718160Y-66149346D01*
X88586533Y-66364140D01*
X88490126Y-66596889D01*
X88431317Y-66841848D01*
X88411551Y-67093000D01*
X59871100Y-67093000D01*
X59871100Y-63676613D01*
X59890785Y-63609574D01*
X59907419Y-63588932D01*
X62883933Y-60612419D01*
X62945256Y-60578934D01*
X62971614Y-60576100D01*
X64838787Y-60576100D01*
X64905826Y-60595785D01*
X64926467Y-60612418D01*
X65153407Y-60839359D01*
X65249656Y-60894928D01*
X65290334Y-60918414D01*
X65290335Y-60918414D01*
X65290338Y-60918416D01*
X65443066Y-60959340D01*
X65443069Y-60959340D01*
X65608777Y-60959340D01*
X65608793Y-60959339D01*
X66406753Y-60959339D01*
X66473792Y-60979024D01*
X66484068Y-60986394D01*
X66486901Y-60988653D01*
X66486903Y-60988655D01*
X66639643Y-61084628D01*
X66809910Y-61144207D01*
X66809915Y-61144208D01*
X66989161Y-61164404D01*
X66989165Y-61164404D01*
X66989169Y-61164404D01*
X67168414Y-61144208D01*
X67168417Y-61144207D01*
X67168420Y-61144207D01*
X67338687Y-61084628D01*
X67491427Y-60988655D01*
X67618981Y-60861101D01*
X67714954Y-60708361D01*
X67774533Y-60538094D01*
X67794730Y-60358839D01*
X67774533Y-60179584D01*
X67714954Y-60009317D01*
X67618981Y-59856577D01*
X67491427Y-59729023D01*
X67338688Y-59633050D01*
X67168419Y-59573470D01*
X67168414Y-59573469D01*
X66989169Y-59553274D01*
X66989161Y-59553274D01*
X66809915Y-59573469D01*
X66809910Y-59573470D01*
X66639635Y-59633052D01*
X66633370Y-59636070D01*
X66632585Y-59634440D01*
X66574141Y-59650945D01*
X66507309Y-59630567D01*
X66462104Y-59577291D01*
X66452206Y-59540835D01*
X66437369Y-59409150D01*
X66437368Y-59409145D01*
X66420477Y-59360873D01*
X66377789Y-59238878D01*
X66281816Y-59086138D01*
X66267380Y-59071702D01*
X66233895Y-59010379D01*
X66238879Y-58940687D01*
X66267380Y-58896340D01*
X68885102Y-56278620D01*
X68946425Y-56245135D01*
X68972783Y-56242301D01*
X69136183Y-56242301D01*
X69136186Y-56242301D01*
X69288914Y-56201377D01*
X69370481Y-56154284D01*
X69425845Y-56122320D01*
X69537649Y-56010516D01*
X69537650Y-56010514D01*
X69898720Y-55649445D01*
X69977777Y-55512513D01*
X70018701Y-55359786D01*
X70018701Y-55201671D01*
X70018701Y-55194076D01*
X70018700Y-55194058D01*
X70018700Y-54913012D01*
X70038385Y-54845973D01*
X70045755Y-54835697D01*
X70048010Y-54832867D01*
X70048016Y-54832862D01*
X70143989Y-54680122D01*
X70203568Y-54509855D01*
X70203569Y-54509849D01*
X70223765Y-54330603D01*
X70223765Y-54330596D01*
X70220903Y-54305196D01*
X72270235Y-54305196D01*
X72270235Y-54305203D01*
X72290430Y-54484449D01*
X72290431Y-54484454D01*
X72350011Y-54654723D01*
X72419670Y-54765584D01*
X72445984Y-54807462D01*
X72573538Y-54935016D01*
X72726278Y-55030989D01*
X72896545Y-55090568D01*
X72898579Y-55090797D01*
X72899807Y-55091313D01*
X72903334Y-55092118D01*
X72903193Y-55092735D01*
X72962994Y-55117862D01*
X73002551Y-55175455D01*
X73008700Y-55214018D01*
X73008700Y-55297587D01*
X72989015Y-55364626D01*
X72981650Y-55374896D01*
X72979386Y-55377734D01*
X72883411Y-55530476D01*
X72823831Y-55700745D01*
X72823830Y-55700750D01*
X72803635Y-55879996D01*
X72803635Y-55880003D01*
X72823830Y-56059249D01*
X72823831Y-56059254D01*
X72883411Y-56229523D01*
X72893221Y-56245135D01*
X72979384Y-56382262D01*
X73106938Y-56509816D01*
X73197280Y-56566582D01*
X73251785Y-56600830D01*
X73259678Y-56605789D01*
X73383262Y-56649033D01*
X73429945Y-56665368D01*
X73429950Y-56665369D01*
X73609196Y-56685565D01*
X73609200Y-56685565D01*
X73609204Y-56685565D01*
X73788449Y-56665369D01*
X73788452Y-56665368D01*
X73788455Y-56665368D01*
X73958722Y-56605789D01*
X74111462Y-56509816D01*
X74239016Y-56382262D01*
X74334989Y-56229522D01*
X74394568Y-56059255D01*
X74400857Y-56003444D01*
X74407860Y-55941285D01*
X74434926Y-55876871D01*
X74490124Y-55838127D01*
X74619122Y-55792989D01*
X74771862Y-55697016D01*
X74899416Y-55569462D01*
X74995389Y-55416722D01*
X75054968Y-55246455D01*
X75064761Y-55159529D01*
X75091826Y-55095119D01*
X75100288Y-55085746D01*
X75283520Y-54902516D01*
X75291093Y-54889400D01*
X75316165Y-54845973D01*
X75362577Y-54765584D01*
X75403501Y-54612857D01*
X75403501Y-54454742D01*
X75403501Y-54447147D01*
X75403500Y-54447129D01*
X75403500Y-50722012D01*
X75423185Y-50654973D01*
X75430555Y-50644697D01*
X75432810Y-50641867D01*
X75432816Y-50641862D01*
X75528789Y-50489122D01*
X75588368Y-50318855D01*
X75588369Y-50318849D01*
X75608565Y-50139603D01*
X75608565Y-50139596D01*
X75588369Y-49960350D01*
X75588368Y-49960345D01*
X75537086Y-49813790D01*
X75528789Y-49790078D01*
X75432816Y-49637338D01*
X75305262Y-49509784D01*
X75270824Y-49488145D01*
X75152523Y-49413811D01*
X74982254Y-49354231D01*
X74982249Y-49354230D01*
X74803004Y-49334035D01*
X74802996Y-49334035D01*
X74623750Y-49354230D01*
X74623737Y-49354233D01*
X74453481Y-49413809D01*
X74438920Y-49422958D01*
X74371683Y-49441956D01*
X74331997Y-49435004D01*
X74182764Y-49382785D01*
X74182756Y-49382783D01*
X74003511Y-49362588D01*
X74003503Y-49362588D01*
X73824257Y-49382783D01*
X73824252Y-49382784D01*
X73649821Y-49443821D01*
X73580042Y-49447382D01*
X73555060Y-49438497D01*
X73553044Y-49437526D01*
X73382773Y-49377945D01*
X73382768Y-49377944D01*
X73203523Y-49357749D01*
X73203515Y-49357749D01*
X73024269Y-49377944D01*
X73024264Y-49377945D01*
X72853995Y-49437525D01*
X72701256Y-49533498D01*
X72573703Y-49661051D01*
X72477730Y-49813790D01*
X72418150Y-49984059D01*
X72418149Y-49984064D01*
X72397954Y-50163310D01*
X72397954Y-50163317D01*
X72418149Y-50342563D01*
X72418150Y-50342568D01*
X72477730Y-50512837D01*
X72520395Y-50580737D01*
X72558802Y-50641862D01*
X72573704Y-50665577D01*
X72575964Y-50668411D01*
X72576853Y-50670589D01*
X72577408Y-50671472D01*
X72577253Y-50671569D01*
X72602374Y-50733097D01*
X72603019Y-50745726D01*
X72603019Y-53594540D01*
X72583334Y-53661579D01*
X72566701Y-53682221D01*
X72445983Y-53802939D01*
X72350011Y-53955676D01*
X72290431Y-54125945D01*
X72290430Y-54125950D01*
X72270235Y-54305196D01*
X70220903Y-54305196D01*
X70203569Y-54151350D01*
X70203568Y-54151345D01*
X70164845Y-54040681D01*
X70143989Y-53981078D01*
X70128243Y-53956019D01*
X70101457Y-53913389D01*
X70048016Y-53828338D01*
X70017380Y-53797702D01*
X69983895Y-53736379D01*
X69988879Y-53666687D01*
X70017379Y-53622341D01*
X70152720Y-53487002D01*
X70231777Y-53350070D01*
X70272701Y-53197343D01*
X70272701Y-53039228D01*
X70272701Y-53031633D01*
X70272700Y-53031615D01*
X70272700Y-51665412D01*
X70292385Y-51598373D01*
X70299755Y-51588097D01*
X70302010Y-51585267D01*
X70302016Y-51585262D01*
X70397989Y-51432522D01*
X70457568Y-51262255D01*
X70477765Y-51083000D01*
X70477248Y-51078413D01*
X70457569Y-50903750D01*
X70457568Y-50903745D01*
X70436312Y-50842999D01*
X70397989Y-50733478D01*
X70390784Y-50722012D01*
X70318892Y-50607596D01*
X70302016Y-50580738D01*
X70174462Y-50453184D01*
X70139951Y-50431499D01*
X70021723Y-50357211D01*
X69851454Y-50297631D01*
X69851449Y-50297630D01*
X69672204Y-50277435D01*
X69672196Y-50277435D01*
X69492950Y-50297630D01*
X69492945Y-50297631D01*
X69322676Y-50357211D01*
X69202272Y-50432867D01*
X69135035Y-50451867D01*
X69068200Y-50431499D01*
X69022986Y-50378231D01*
X69012300Y-50327873D01*
X69012300Y-49703825D01*
X69031985Y-49636786D01*
X69048614Y-49616149D01*
X73801534Y-44863228D01*
X73862855Y-44829745D01*
X73930165Y-44833869D01*
X73988745Y-44854368D01*
X73988749Y-44854368D01*
X73988751Y-44854369D01*
X73988748Y-44854369D01*
X74167996Y-44874565D01*
X74168000Y-44874565D01*
X74168004Y-44874565D01*
X74347249Y-44854369D01*
X74347252Y-44854368D01*
X74347255Y-44854368D01*
X74517522Y-44794789D01*
X74670262Y-44698816D01*
X74797816Y-44571262D01*
X74893789Y-44418522D01*
X74953368Y-44248255D01*
X74973565Y-44069000D01*
X74953368Y-43889745D01*
X74893789Y-43719478D01*
X74797816Y-43566738D01*
X74670262Y-43439184D01*
X74517523Y-43343211D01*
X74347254Y-43283631D01*
X74347249Y-43283630D01*
X74168004Y-43263435D01*
X74167996Y-43263435D01*
X73988750Y-43283630D01*
X73988745Y-43283631D01*
X73818476Y-43343211D01*
X73665738Y-43439184D01*
X73665735Y-43439186D01*
X73648550Y-43456371D01*
X73592966Y-43488462D01*
X73514747Y-43509421D01*
X73514738Y-43509425D01*
X73479595Y-43529716D01*
X73479593Y-43529717D01*
X73377819Y-43588475D01*
X73377811Y-43588481D01*
X69458685Y-47507608D01*
X69397362Y-47541093D01*
X69327670Y-47536109D01*
X69305032Y-47524921D01*
X69158121Y-47432610D01*
X68987849Y-47373030D01*
X68912570Y-47364548D01*
X68848156Y-47337481D01*
X68838782Y-47329017D01*
X68681113Y-47171349D01*
X68681109Y-47171344D01*
X68562246Y-47052481D01*
X68562245Y-47052480D01*
X68475433Y-47002360D01*
X68475433Y-47002359D01*
X68475429Y-47002358D01*
X68425314Y-46973423D01*
X68272586Y-46932499D01*
X68272583Y-46932499D01*
X68210782Y-46932499D01*
X68143743Y-46912814D01*
X68123101Y-46896180D01*
X63771917Y-42544996D01*
X80220435Y-42544996D01*
X80220435Y-42545003D01*
X80240630Y-42724249D01*
X80240631Y-42724254D01*
X80300211Y-42894523D01*
X80396184Y-43047262D01*
X80523738Y-43174816D01*
X80676478Y-43270789D01*
X80676480Y-43270789D01*
X80676484Y-43270792D01*
X80682756Y-43273813D01*
X80681869Y-43275653D01*
X80717939Y-43298307D01*
X83502381Y-46082749D01*
X83535866Y-46144072D01*
X83538700Y-46170430D01*
X83538700Y-52816318D01*
X83538700Y-52816320D01*
X83538699Y-52816320D01*
X83567540Y-52961307D01*
X83567543Y-52961317D01*
X83624114Y-53097892D01*
X83624115Y-53097894D01*
X83624116Y-53097895D01*
X83647572Y-53133000D01*
X83657012Y-53147127D01*
X83657013Y-53147130D01*
X83706246Y-53220814D01*
X83706252Y-53220821D01*
X83981092Y-53495660D01*
X84003756Y-53531729D01*
X84005588Y-53530847D01*
X84008607Y-53537116D01*
X84025551Y-53564082D01*
X84104584Y-53689862D01*
X84232138Y-53817416D01*
X84384878Y-53913389D01*
X84505733Y-53955678D01*
X84555145Y-53972968D01*
X84555150Y-53972969D01*
X84734396Y-53993165D01*
X84734400Y-53993165D01*
X84734404Y-53993165D01*
X84913649Y-53972969D01*
X84913652Y-53972968D01*
X84913655Y-53972968D01*
X85083922Y-53913389D01*
X85173792Y-53856920D01*
X88841499Y-53856920D01*
X88870340Y-54001907D01*
X88870343Y-54001917D01*
X88926912Y-54138488D01*
X88926919Y-54138501D01*
X89009048Y-54261415D01*
X89009051Y-54261419D01*
X89113580Y-54365948D01*
X89113584Y-54365951D01*
X89236498Y-54448080D01*
X89236511Y-54448087D01*
X89335473Y-54489078D01*
X89373087Y-54504658D01*
X89373091Y-54504658D01*
X89373092Y-54504659D01*
X89518079Y-54533500D01*
X89518082Y-54533500D01*
X89665920Y-54533500D01*
X89763462Y-54514096D01*
X89810913Y-54504658D01*
X89947495Y-54448084D01*
X90070416Y-54365951D01*
X90174951Y-54261416D01*
X90257084Y-54138495D01*
X90313658Y-54001913D01*
X90342500Y-53856918D01*
X90342500Y-53709082D01*
X90342500Y-53709079D01*
X90313659Y-53564092D01*
X90313658Y-53564091D01*
X90313658Y-53564087D01*
X90299890Y-53530847D01*
X90257087Y-53427511D01*
X90257080Y-53427498D01*
X90174951Y-53304584D01*
X90174948Y-53304580D01*
X90070419Y-53200051D01*
X90070415Y-53200048D01*
X89947501Y-53117919D01*
X89947488Y-53117912D01*
X89810917Y-53061343D01*
X89810907Y-53061340D01*
X89665920Y-53032500D01*
X89665918Y-53032500D01*
X89518082Y-53032500D01*
X89518080Y-53032500D01*
X89373092Y-53061340D01*
X89373082Y-53061343D01*
X89236511Y-53117912D01*
X89236498Y-53117919D01*
X89113584Y-53200048D01*
X89113580Y-53200051D01*
X89009051Y-53304580D01*
X89009048Y-53304584D01*
X88926919Y-53427498D01*
X88926912Y-53427511D01*
X88870343Y-53564082D01*
X88870340Y-53564092D01*
X88841500Y-53709079D01*
X88841500Y-53709082D01*
X88841500Y-53856918D01*
X88841500Y-53856920D01*
X88841499Y-53856920D01*
X85173792Y-53856920D01*
X85236662Y-53817416D01*
X85364216Y-53689862D01*
X85460189Y-53537122D01*
X85519768Y-53366855D01*
X85521659Y-53350071D01*
X85539965Y-53187603D01*
X85539965Y-53187596D01*
X85519769Y-53008350D01*
X85519768Y-53008345D01*
X85460188Y-52838076D01*
X85420982Y-52775680D01*
X85364216Y-52685338D01*
X85236662Y-52557784D01*
X85236660Y-52557782D01*
X85097727Y-52470484D01*
X85051437Y-52418150D01*
X85039700Y-52365491D01*
X85039700Y-49456920D01*
X88841499Y-49456920D01*
X88870340Y-49601907D01*
X88870343Y-49601917D01*
X88926912Y-49738488D01*
X88926919Y-49738501D01*
X89009048Y-49861415D01*
X89009051Y-49861419D01*
X89113580Y-49965948D01*
X89113584Y-49965951D01*
X89236498Y-50048080D01*
X89236511Y-50048087D01*
X89373082Y-50104656D01*
X89373087Y-50104658D01*
X89373091Y-50104658D01*
X89373092Y-50104659D01*
X89518079Y-50133500D01*
X89518082Y-50133500D01*
X89665920Y-50133500D01*
X89763462Y-50114096D01*
X89810913Y-50104658D01*
X89947495Y-50048084D01*
X90070416Y-49965951D01*
X90174951Y-49861416D01*
X90257084Y-49738495D01*
X90313658Y-49601913D01*
X90331984Y-49509784D01*
X90342500Y-49456920D01*
X90342500Y-49309079D01*
X90313659Y-49164092D01*
X90313658Y-49164091D01*
X90313658Y-49164087D01*
X90313656Y-49164082D01*
X90257087Y-49027511D01*
X90257080Y-49027498D01*
X90174951Y-48904584D01*
X90174948Y-48904580D01*
X90070419Y-48800051D01*
X90070415Y-48800048D01*
X89947501Y-48717919D01*
X89947488Y-48717912D01*
X89810917Y-48661343D01*
X89810907Y-48661340D01*
X89665920Y-48632500D01*
X89665918Y-48632500D01*
X89518082Y-48632500D01*
X89518080Y-48632500D01*
X89373092Y-48661340D01*
X89373082Y-48661343D01*
X89236511Y-48717912D01*
X89236498Y-48717919D01*
X89113584Y-48800048D01*
X89113580Y-48800051D01*
X89009051Y-48904580D01*
X89009048Y-48904584D01*
X88926919Y-49027498D01*
X88926912Y-49027511D01*
X88870343Y-49164082D01*
X88870340Y-49164092D01*
X88841500Y-49309079D01*
X88841500Y-49309082D01*
X88841500Y-49456918D01*
X88841500Y-49456920D01*
X88841499Y-49456920D01*
X85039700Y-49456920D01*
X85039700Y-45734281D01*
X85033963Y-45705442D01*
X85033963Y-45705440D01*
X85010860Y-45589295D01*
X85010859Y-45589288D01*
X84956608Y-45458317D01*
X84954965Y-45453725D01*
X84954284Y-45452705D01*
X84921386Y-45403470D01*
X84921385Y-45403468D01*
X84872156Y-45329789D01*
X84872152Y-45329784D01*
X81779307Y-42236939D01*
X81756653Y-42200869D01*
X81754813Y-42201756D01*
X81751792Y-42195484D01*
X81751789Y-42195480D01*
X81751789Y-42195478D01*
X81655816Y-42042738D01*
X81528262Y-41915184D01*
X81375523Y-41819211D01*
X81205254Y-41759631D01*
X81205249Y-41759630D01*
X81026004Y-41739435D01*
X81025996Y-41739435D01*
X80846750Y-41759630D01*
X80846745Y-41759631D01*
X80676476Y-41819211D01*
X80523737Y-41915184D01*
X80396184Y-42042737D01*
X80300211Y-42195476D01*
X80240631Y-42365745D01*
X80240630Y-42365750D01*
X80220435Y-42544996D01*
X63771917Y-42544996D01*
X59856819Y-38629898D01*
X59823334Y-38568575D01*
X59820500Y-38542217D01*
X59820500Y-37219780D01*
X59840185Y-37152741D01*
X59856814Y-37132104D01*
X61972730Y-35016187D01*
X62034053Y-34982703D01*
X62103745Y-34987687D01*
X62148092Y-35016188D01*
X62155599Y-35023695D01*
X62250981Y-35090482D01*
X62349165Y-35159232D01*
X62349167Y-35159233D01*
X62349170Y-35159235D01*
X62563337Y-35259103D01*
X62791592Y-35320263D01*
X62968034Y-35335700D01*
X63026999Y-35340859D01*
X63027000Y-35340859D01*
X63027001Y-35340859D01*
X63085966Y-35335700D01*
X63262408Y-35320263D01*
X63490663Y-35259103D01*
X63704830Y-35159235D01*
X63898401Y-35023695D01*
X64065495Y-34856601D01*
X64195425Y-34671042D01*
X64250002Y-34627417D01*
X64319500Y-34620223D01*
X64381855Y-34651746D01*
X64398575Y-34671042D01*
X64528500Y-34856595D01*
X64528505Y-34856601D01*
X64695599Y-35023695D01*
X64790981Y-35090482D01*
X64889165Y-35159232D01*
X64889167Y-35159233D01*
X64889170Y-35159235D01*
X65103337Y-35259103D01*
X65331592Y-35320263D01*
X65508034Y-35335700D01*
X65566999Y-35340859D01*
X65567000Y-35340859D01*
X65567001Y-35340859D01*
X65625966Y-35335700D01*
X65802408Y-35320263D01*
X66030663Y-35259103D01*
X66244830Y-35159235D01*
X66438401Y-35023695D01*
X66605495Y-34856601D01*
X66735425Y-34671042D01*
X66790002Y-34627417D01*
X66859500Y-34620223D01*
X66921855Y-34651746D01*
X66938575Y-34671042D01*
X67068500Y-34856595D01*
X67068505Y-34856601D01*
X67235599Y-35023695D01*
X67330981Y-35090482D01*
X67429165Y-35159232D01*
X67429167Y-35159233D01*
X67429170Y-35159235D01*
X67643337Y-35259103D01*
X67871592Y-35320263D01*
X68048034Y-35335700D01*
X68106999Y-35340859D01*
X68107000Y-35340859D01*
X68107001Y-35340859D01*
X68165966Y-35335700D01*
X68342408Y-35320263D01*
X68570663Y-35259103D01*
X68784830Y-35159235D01*
X68978401Y-35023695D01*
X69145495Y-34856601D01*
X69275425Y-34671042D01*
X69330002Y-34627417D01*
X69399500Y-34620223D01*
X69461855Y-34651746D01*
X69478575Y-34671042D01*
X69608500Y-34856595D01*
X69608505Y-34856601D01*
X69775599Y-35023695D01*
X69870981Y-35090482D01*
X69969165Y-35159232D01*
X69969167Y-35159233D01*
X69969170Y-35159235D01*
X70183337Y-35259103D01*
X70411592Y-35320263D01*
X70588034Y-35335700D01*
X70646999Y-35340859D01*
X70647000Y-35340859D01*
X70647001Y-35340859D01*
X70705966Y-35335700D01*
X70882408Y-35320263D01*
X71110663Y-35259103D01*
X71324830Y-35159235D01*
X71518401Y-35023695D01*
X71685495Y-34856601D01*
X71815732Y-34670603D01*
X71870307Y-34626980D01*
X71939805Y-34619786D01*
X72002160Y-34651309D01*
X72018879Y-34670604D01*
X72148891Y-34856278D01*
X72315918Y-35023305D01*
X72509422Y-35158800D01*
X72723508Y-35258629D01*
X72723517Y-35258633D01*
X72937001Y-35315834D01*
X72937001Y-34418212D01*
X72994008Y-34451125D01*
X73121175Y-34485200D01*
X73252827Y-34485200D01*
X73379994Y-34451125D01*
X73437001Y-34418212D01*
X73437001Y-35315833D01*
X73650484Y-35258633D01*
X73650493Y-35258629D01*
X73864579Y-35158800D01*
X74058083Y-35023305D01*
X74225106Y-34856282D01*
X74355425Y-34670169D01*
X74410002Y-34626545D01*
X74479501Y-34619352D01*
X74541855Y-34650874D01*
X74558575Y-34670169D01*
X74688894Y-34856282D01*
X74855917Y-35023305D01*
X75049421Y-35158800D01*
X75263507Y-35258629D01*
X75263516Y-35258633D01*
X75477000Y-35315834D01*
X75477000Y-34418212D01*
X75534007Y-34451125D01*
X75661174Y-34485200D01*
X75792826Y-34485200D01*
X75919993Y-34451125D01*
X75977000Y-34418212D01*
X75977000Y-35315833D01*
X76190483Y-35258633D01*
X76190492Y-35258629D01*
X76404578Y-35158800D01*
X76598078Y-35023308D01*
X76720133Y-34901253D01*
X76781456Y-34867768D01*
X76851148Y-34872752D01*
X76907082Y-34914623D01*
X76923997Y-34945601D01*
X76973202Y-35077528D01*
X76973206Y-35077535D01*
X77059452Y-35192744D01*
X77059455Y-35192747D01*
X77174664Y-35278993D01*
X77174671Y-35278997D01*
X77197563Y-35287535D01*
X77309517Y-35329291D01*
X77369127Y-35335700D01*
X77392497Y-35335699D01*
X77459536Y-35355381D01*
X77505292Y-35408183D01*
X77516500Y-35459699D01*
X77516500Y-36938918D01*
X77516500Y-36938920D01*
X77516499Y-36938920D01*
X77545340Y-37083907D01*
X77545343Y-37083917D01*
X77601914Y-37220492D01*
X77634812Y-37269727D01*
X77634813Y-37269730D01*
X77684046Y-37343414D01*
X77684052Y-37343421D01*
X79129692Y-38789059D01*
X79152358Y-38825125D01*
X79154188Y-38824244D01*
X79157209Y-38830518D01*
X79157211Y-38830522D01*
X79253184Y-38983262D01*
X79380738Y-39110816D01*
X79533478Y-39206789D01*
X79686432Y-39260310D01*
X79703745Y-39266368D01*
X79703750Y-39266369D01*
X79882996Y-39286565D01*
X79883000Y-39286565D01*
X79883004Y-39286565D01*
X80062249Y-39266369D01*
X80062252Y-39266368D01*
X80062255Y-39266368D01*
X80232522Y-39206789D01*
X80385262Y-39110816D01*
X80512816Y-38983262D01*
X80608789Y-38830522D01*
X80668368Y-38660255D01*
X80668369Y-38660249D01*
X80688565Y-38481003D01*
X80688565Y-38480996D01*
X80668369Y-38301750D01*
X80668368Y-38301745D01*
X80608788Y-38131476D01*
X80512815Y-37978737D01*
X80385262Y-37851184D01*
X80232522Y-37755211D01*
X80232518Y-37755209D01*
X80226244Y-37752188D01*
X80227125Y-37750358D01*
X80191059Y-37727692D01*
X79053819Y-36590451D01*
X79020334Y-36529128D01*
X79017500Y-36502770D01*
X79017500Y-35459699D01*
X79037185Y-35392660D01*
X79089989Y-35346905D01*
X79141500Y-35335699D01*
X79164871Y-35335699D01*
X79164872Y-35335699D01*
X79224483Y-35329291D01*
X79359331Y-35278996D01*
X79474546Y-35192746D01*
X79560796Y-35077531D01*
X79611091Y-34942683D01*
X79617500Y-34883073D01*
X79617499Y-33087328D01*
X79611091Y-33027717D01*
X79610002Y-33024798D01*
X79560797Y-32892871D01*
X79560793Y-32892864D01*
X79474547Y-32777655D01*
X79474544Y-32777652D01*
X79359335Y-32691406D01*
X79359328Y-32691402D01*
X79224482Y-32641108D01*
X79224483Y-32641108D01*
X79164883Y-32634701D01*
X79164881Y-32634700D01*
X79164873Y-32634700D01*
X79164864Y-32634700D01*
X77369129Y-32634700D01*
X77369123Y-32634701D01*
X77309516Y-32641108D01*
X77174671Y-32691402D01*
X77174664Y-32691406D01*
X77059455Y-32777652D01*
X77059452Y-32777655D01*
X76973206Y-32892864D01*
X76973202Y-32892871D01*
X76923997Y-33024798D01*
X76882126Y-33080732D01*
X76816661Y-33105149D01*
X76748388Y-33090297D01*
X76720134Y-33069146D01*
X76598082Y-32947094D01*
X76404578Y-32811599D01*
X76190492Y-32711770D01*
X76190486Y-32711767D01*
X75977000Y-32654564D01*
X75977000Y-33552188D01*
X75919993Y-33519275D01*
X75792826Y-33485200D01*
X75661174Y-33485200D01*
X75534007Y-33519275D01*
X75477000Y-33552188D01*
X75477000Y-32654564D01*
X75476999Y-32654564D01*
X75263513Y-32711767D01*
X75263507Y-32711770D01*
X75049422Y-32811599D01*
X75049420Y-32811600D01*
X74855926Y-32947086D01*
X74855920Y-32947091D01*
X74688891Y-33114120D01*
X74688890Y-33114122D01*
X74558575Y-33300231D01*
X74503998Y-33343855D01*
X74434499Y-33351048D01*
X74372145Y-33319526D01*
X74355425Y-33300230D01*
X74225114Y-33114126D01*
X74225109Y-33114120D01*
X74058083Y-32947094D01*
X73864579Y-32811599D01*
X73650493Y-32711770D01*
X73650487Y-32711767D01*
X73437001Y-32654564D01*
X73437001Y-33552188D01*
X73379994Y-33519275D01*
X73252827Y-33485200D01*
X73121175Y-33485200D01*
X72994008Y-33519275D01*
X72937001Y-33552188D01*
X72937001Y-32654564D01*
X72937000Y-32654564D01*
X72723514Y-32711767D01*
X72723508Y-32711770D01*
X72509423Y-32811599D01*
X72509421Y-32811600D01*
X72315927Y-32947086D01*
X72315921Y-32947091D01*
X72148892Y-33114120D01*
X72148891Y-33114122D01*
X72018880Y-33299796D01*
X71964303Y-33343421D01*
X71894804Y-33350613D01*
X71832450Y-33319091D01*
X71815730Y-33299795D01*
X71815425Y-33299360D01*
X71685724Y-33114126D01*
X71685494Y-33113797D01*
X71518402Y-32946706D01*
X71518395Y-32946701D01*
X71324834Y-32811167D01*
X71324830Y-32811165D01*
X71296465Y-32797938D01*
X71110663Y-32711297D01*
X71110659Y-32711296D01*
X71110655Y-32711294D01*
X70882413Y-32650138D01*
X70882403Y-32650136D01*
X70663997Y-32631028D01*
X70652937Y-32626701D01*
X70630003Y-32631028D01*
X70411596Y-32650136D01*
X70411586Y-32650138D01*
X70183344Y-32711294D01*
X70183335Y-32711298D01*
X69969171Y-32811164D01*
X69969169Y-32811165D01*
X69775597Y-32946705D01*
X69608505Y-33113797D01*
X69478575Y-33299358D01*
X69423998Y-33342983D01*
X69354500Y-33350177D01*
X69292145Y-33318654D01*
X69275425Y-33299358D01*
X69145494Y-33113797D01*
X68978402Y-32946706D01*
X68978395Y-32946701D01*
X68784834Y-32811167D01*
X68784830Y-32811165D01*
X68756465Y-32797938D01*
X68570663Y-32711297D01*
X68570659Y-32711296D01*
X68570655Y-32711294D01*
X68342413Y-32650138D01*
X68342403Y-32650136D01*
X68123997Y-32631028D01*
X68112937Y-32626701D01*
X68090003Y-32631028D01*
X67871596Y-32650136D01*
X67871586Y-32650138D01*
X67643344Y-32711294D01*
X67643335Y-32711298D01*
X67429171Y-32811164D01*
X67429169Y-32811165D01*
X67235597Y-32946705D01*
X67068505Y-33113797D01*
X66938575Y-33299358D01*
X66883998Y-33342983D01*
X66814500Y-33350177D01*
X66752145Y-33318654D01*
X66735425Y-33299358D01*
X66605494Y-33113797D01*
X66438402Y-32946706D01*
X66438395Y-32946701D01*
X66244834Y-32811167D01*
X66244830Y-32811165D01*
X66216465Y-32797938D01*
X66030663Y-32711297D01*
X66030659Y-32711296D01*
X66030655Y-32711294D01*
X65802413Y-32650138D01*
X65802403Y-32650136D01*
X65583997Y-32631028D01*
X65572937Y-32626701D01*
X65550003Y-32631028D01*
X65331596Y-32650136D01*
X65331586Y-32650138D01*
X65103344Y-32711294D01*
X65103335Y-32711298D01*
X64889171Y-32811164D01*
X64889169Y-32811165D01*
X64695597Y-32946705D01*
X64528505Y-33113797D01*
X64398575Y-33299358D01*
X64343998Y-33342983D01*
X64274500Y-33350177D01*
X64212145Y-33318654D01*
X64195425Y-33299358D01*
X64065494Y-33113797D01*
X63898402Y-32946706D01*
X63898395Y-32946701D01*
X63704834Y-32811167D01*
X63704830Y-32811165D01*
X63676465Y-32797938D01*
X63490663Y-32711297D01*
X63490659Y-32711296D01*
X63490655Y-32711294D01*
X63262413Y-32650138D01*
X63262403Y-32650136D01*
X63043997Y-32631028D01*
X63032937Y-32626701D01*
X63010003Y-32631028D01*
X62791596Y-32650136D01*
X62791586Y-32650138D01*
X62563344Y-32711294D01*
X62563335Y-32711298D01*
X62349171Y-32811164D01*
X62349169Y-32811165D01*
X62155597Y-32946705D01*
X61988508Y-33113794D01*
X61858574Y-33299360D01*
X61803997Y-33342984D01*
X61734498Y-33350177D01*
X61672144Y-33318655D01*
X61655424Y-33299359D01*
X61525493Y-33113797D01*
X61358401Y-32946706D01*
X61358394Y-32946701D01*
X61164833Y-32811167D01*
X61164829Y-32811165D01*
X61136464Y-32797938D01*
X60950662Y-32711297D01*
X60950658Y-32711296D01*
X60950654Y-32711294D01*
X60722412Y-32650138D01*
X60722402Y-32650136D01*
X60503996Y-32631028D01*
X60492936Y-32626701D01*
X60470002Y-32631028D01*
X60251595Y-32650136D01*
X60251585Y-32650138D01*
X60023343Y-32711294D01*
X60023334Y-32711298D01*
X59809170Y-32811164D01*
X59809168Y-32811165D01*
X59615596Y-32946705D01*
X59448507Y-33113794D01*
X59318574Y-33299358D01*
X59263997Y-33342982D01*
X59194498Y-33350175D01*
X59132144Y-33318653D01*
X59115424Y-33299357D01*
X58985494Y-33113797D01*
X58818402Y-32946706D01*
X58818395Y-32946701D01*
X58624834Y-32811167D01*
X58624830Y-32811165D01*
X58596465Y-32797938D01*
X58410663Y-32711297D01*
X58410659Y-32711296D01*
X58410655Y-32711294D01*
X58182413Y-32650138D01*
X58182403Y-32650136D01*
X57963997Y-32631028D01*
X57952937Y-32626701D01*
X57930003Y-32631028D01*
X57711596Y-32650136D01*
X57711586Y-32650138D01*
X57483344Y-32711294D01*
X57483335Y-32711298D01*
X57269171Y-32811164D01*
X57269169Y-32811165D01*
X57075597Y-32946705D01*
X56908505Y-33113797D01*
X56778575Y-33299358D01*
X56723998Y-33342983D01*
X56654500Y-33350177D01*
X56592145Y-33318654D01*
X56575425Y-33299358D01*
X56445494Y-33113797D01*
X56278402Y-32946706D01*
X56278395Y-32946701D01*
X56084834Y-32811167D01*
X56084830Y-32811165D01*
X56056465Y-32797938D01*
X55870663Y-32711297D01*
X55870659Y-32711296D01*
X55870655Y-32711294D01*
X55642413Y-32650138D01*
X55642403Y-32650136D01*
X55423997Y-32631028D01*
X55412937Y-32626701D01*
X55390003Y-32631028D01*
X55171596Y-32650136D01*
X55171586Y-32650138D01*
X54943344Y-32711294D01*
X54943335Y-32711298D01*
X54729171Y-32811164D01*
X54729169Y-32811165D01*
X54535597Y-32946705D01*
X54368505Y-33113797D01*
X54232965Y-33307369D01*
X54232964Y-33307371D01*
X54133098Y-33521535D01*
X54133094Y-33521544D01*
X54071938Y-33749786D01*
X54071936Y-33749796D01*
X54051341Y-33985199D01*
X54051341Y-33985200D01*
X54071936Y-34220603D01*
X54071938Y-34220613D01*
X54133094Y-34448855D01*
X54133096Y-34448859D01*
X54133097Y-34448863D01*
X54202018Y-34596664D01*
X54232965Y-34663030D01*
X54232967Y-34663034D01*
X54313232Y-34777663D01*
X54368505Y-34856601D01*
X54535599Y-35023695D01*
X54630981Y-35090482D01*
X54729165Y-35159232D01*
X54729167Y-35159233D01*
X54729170Y-35159235D01*
X54943337Y-35259103D01*
X55171592Y-35320263D01*
X55348034Y-35335700D01*
X55406999Y-35340859D01*
X55407000Y-35340859D01*
X55407001Y-35340859D01*
X55465966Y-35335700D01*
X55642408Y-35320263D01*
X55770757Y-35285872D01*
X55840606Y-35287535D01*
X55890531Y-35317966D01*
X57383181Y-36810616D01*
X57416666Y-36871939D01*
X57419500Y-36898297D01*
X57419500Y-39252701D01*
X57419499Y-39252719D01*
X57419499Y-39418425D01*
X57419498Y-39418425D01*
X57419499Y-39418428D01*
X57454900Y-39550546D01*
X57460423Y-39571155D01*
X57460424Y-39571158D01*
X57466974Y-39582502D01*
X57466975Y-39582504D01*
X57539477Y-39708083D01*
X57539481Y-39708088D01*
X57658349Y-39826956D01*
X57658354Y-39826960D01*
X66308182Y-48476789D01*
X66341666Y-48538110D01*
X66344500Y-48564468D01*
X66344500Y-52369069D01*
X66344499Y-52369087D01*
X66344499Y-52534793D01*
X66344498Y-52534793D01*
X66385424Y-52687528D01*
X66393441Y-52701413D01*
X66409275Y-52749530D01*
X66426430Y-52901788D01*
X66486010Y-53072060D01*
X66579479Y-53220814D01*
X66581984Y-53224801D01*
X66709538Y-53352355D01*
X66732605Y-53366849D01*
X66862279Y-53448329D01*
X66919249Y-53468263D01*
X66976026Y-53508984D01*
X67001774Y-53573937D01*
X66988318Y-53642498D01*
X66965977Y-53672986D01*
X66386384Y-54252581D01*
X66325061Y-54286066D01*
X66298703Y-54288900D01*
X64971412Y-54288900D01*
X64904373Y-54269215D01*
X64894097Y-54261845D01*
X64891263Y-54259585D01*
X64891262Y-54259584D01*
X64834496Y-54223915D01*
X64738523Y-54163611D01*
X64568254Y-54104031D01*
X64568249Y-54104030D01*
X64389004Y-54083835D01*
X64388996Y-54083835D01*
X64209750Y-54104030D01*
X64209745Y-54104031D01*
X64039476Y-54163611D01*
X63886737Y-54259584D01*
X63759184Y-54387137D01*
X63663211Y-54539876D01*
X63603631Y-54710145D01*
X63603630Y-54710150D01*
X63592112Y-54812383D01*
X63565046Y-54876797D01*
X63507451Y-54916353D01*
X63468892Y-54922500D01*
X42099232Y-54922500D01*
X42032193Y-54902815D01*
X41986438Y-54850011D01*
X41976012Y-54812384D01*
X41958769Y-54659349D01*
X41958768Y-54659345D01*
X41920898Y-54551119D01*
X41899189Y-54489078D01*
X41896280Y-54484449D01*
X41803215Y-54336337D01*
X41675662Y-54208784D01*
X41522923Y-54112811D01*
X41352654Y-54053231D01*
X41352650Y-54053230D01*
X41241271Y-54040681D01*
X41176857Y-54013614D01*
X41137302Y-53956019D01*
X41135165Y-53886182D01*
X41142774Y-53865053D01*
X41151431Y-53846487D01*
X41151432Y-53846486D01*
X41208636Y-53633000D01*
X40311012Y-53633000D01*
X40343925Y-53575993D01*
X40378000Y-53448826D01*
X40378000Y-53317174D01*
X40343925Y-53190007D01*
X40311012Y-53133000D01*
X41208636Y-53133000D01*
X41208635Y-53132999D01*
X41151432Y-52919513D01*
X41151429Y-52919507D01*
X41051600Y-52705422D01*
X41051599Y-52705420D01*
X40916113Y-52511926D01*
X40916108Y-52511920D01*
X40749078Y-52344890D01*
X40563405Y-52214879D01*
X40519780Y-52160302D01*
X40512588Y-52090804D01*
X40544110Y-52028449D01*
X40563406Y-52011730D01*
X40749401Y-51881495D01*
X40916495Y-51714401D01*
X41052035Y-51520830D01*
X41151903Y-51306663D01*
X41213063Y-51078408D01*
X41233659Y-50843000D01*
X41213063Y-50607592D01*
X41151903Y-50379337D01*
X41052035Y-50165171D01*
X41034133Y-50139603D01*
X40916494Y-49971597D01*
X40749402Y-49804506D01*
X40749396Y-49804501D01*
X40563842Y-49674575D01*
X40520217Y-49619998D01*
X40513023Y-49550500D01*
X40544546Y-49488145D01*
X40563842Y-49471425D01*
X40646126Y-49413809D01*
X40749401Y-49341495D01*
X40916495Y-49174401D01*
X41052035Y-48980830D01*
X41151903Y-48766663D01*
X41213063Y-48538408D01*
X41233659Y-48303000D01*
X41213063Y-48067592D01*
X41151903Y-47839337D01*
X41052035Y-47625171D01*
X41028815Y-47592008D01*
X40916494Y-47431597D01*
X40749402Y-47264506D01*
X40749395Y-47264501D01*
X40555834Y-47128967D01*
X40555830Y-47128965D01*
X40555828Y-47128964D01*
X40341663Y-47029097D01*
X40341659Y-47029096D01*
X40341655Y-47029094D01*
X40113413Y-46967938D01*
X40113403Y-46967936D01*
X39878001Y-46947341D01*
X39877999Y-46947341D01*
X39642596Y-46967936D01*
X39642586Y-46967938D01*
X39414344Y-47029094D01*
X39414335Y-47029098D01*
X39200171Y-47128964D01*
X39200169Y-47128965D01*
X39006597Y-47264505D01*
X38839505Y-47431597D01*
X38703965Y-47625169D01*
X38703964Y-47625171D01*
X38604098Y-47839335D01*
X38604094Y-47839344D01*
X38542938Y-48067586D01*
X38542936Y-48067596D01*
X38522341Y-48302999D01*
X38522341Y-48303000D01*
X38542936Y-48538403D01*
X38542938Y-48538413D01*
X38604094Y-48766655D01*
X38604096Y-48766659D01*
X38604097Y-48766663D01*
X38668409Y-48904580D01*
X38703965Y-48980830D01*
X38703967Y-48980834D01*
X38839501Y-49174395D01*
X38839506Y-49174402D01*
X39006597Y-49341493D01*
X39006603Y-49341498D01*
X39192158Y-49471425D01*
X39235783Y-49526002D01*
X39242977Y-49595500D01*
X39211454Y-49657855D01*
X39192158Y-49674575D01*
X39006597Y-49804505D01*
X38839505Y-49971597D01*
X38703965Y-50165169D01*
X38703964Y-50165171D01*
X38604098Y-50379335D01*
X38604094Y-50379344D01*
X38542938Y-50607586D01*
X38542936Y-50607596D01*
X38522341Y-50842999D01*
X38522341Y-50843000D01*
X38542936Y-51078403D01*
X38542938Y-51078413D01*
X38604094Y-51306655D01*
X38604096Y-51306659D01*
X38604097Y-51306663D01*
X38662786Y-51432522D01*
X38703965Y-51520830D01*
X38703967Y-51520834D01*
X38839501Y-51714395D01*
X38839506Y-51714402D01*
X39006597Y-51881493D01*
X39006603Y-51881498D01*
X39192594Y-52011730D01*
X39236219Y-52066307D01*
X39243413Y-52135805D01*
X39211890Y-52198160D01*
X39192595Y-52214880D01*
X39006922Y-52344890D01*
X39006920Y-52344891D01*
X38839891Y-52511920D01*
X38839886Y-52511926D01*
X38704400Y-52705420D01*
X38704399Y-52705422D01*
X38604570Y-52919507D01*
X38604567Y-52919513D01*
X38547364Y-53132999D01*
X38547364Y-53133000D01*
X39444988Y-53133000D01*
X39412075Y-53190007D01*
X39378000Y-53317174D01*
X39378000Y-53448826D01*
X39412075Y-53575993D01*
X39444988Y-53633000D01*
X38547364Y-53633000D01*
X38604567Y-53846486D01*
X38604570Y-53846492D01*
X38704399Y-54060578D01*
X38839894Y-54254082D01*
X39006917Y-54421105D01*
X39192595Y-54551119D01*
X39236219Y-54605696D01*
X39243412Y-54675195D01*
X39211890Y-54737549D01*
X39192595Y-54754269D01*
X39006594Y-54884508D01*
X38839505Y-55051597D01*
X38703965Y-55245169D01*
X38703964Y-55245171D01*
X38604098Y-55459335D01*
X38604094Y-55459344D01*
X38542938Y-55687586D01*
X38542936Y-55687596D01*
X38522341Y-55922999D01*
X38522341Y-55923000D01*
X38542936Y-56158403D01*
X38542938Y-56158413D01*
X38604094Y-56386655D01*
X38604096Y-56386659D01*
X38604097Y-56386663D01*
X38701293Y-56595099D01*
X38703965Y-56600830D01*
X38703967Y-56600834D01*
X38763297Y-56685565D01*
X38839501Y-56794396D01*
X38839506Y-56794402D01*
X38961430Y-56916326D01*
X38994915Y-56977649D01*
X38989931Y-57047341D01*
X38948059Y-57103274D01*
X38917083Y-57120189D01*
X38785669Y-57169203D01*
X38785664Y-57169206D01*
X38670455Y-57255452D01*
X38670452Y-57255455D01*
X38584206Y-57370664D01*
X38584202Y-57370671D01*
X38533908Y-57505517D01*
X38527501Y-57565116D01*
X38527501Y-57565123D01*
X38527500Y-57565135D01*
X38527500Y-59360870D01*
X38527501Y-59360876D01*
X38533908Y-59420483D01*
X38584202Y-59555328D01*
X38584206Y-59555335D01*
X38670452Y-59670544D01*
X38670455Y-59670547D01*
X38785664Y-59756793D01*
X38785671Y-59756797D01*
X38920517Y-59807091D01*
X38920516Y-59807091D01*
X38927444Y-59807835D01*
X38980127Y-59813500D01*
X40775872Y-59813499D01*
X40835483Y-59807091D01*
X40970331Y-59756796D01*
X41085546Y-59670546D01*
X41171796Y-59555331D01*
X41222091Y-59420483D01*
X41228500Y-59360873D01*
X41228499Y-57565128D01*
X41222091Y-57505517D01*
X41204405Y-57458099D01*
X41171797Y-57370671D01*
X41171793Y-57370664D01*
X41085547Y-57255455D01*
X41085544Y-57255452D01*
X40970335Y-57169206D01*
X40970328Y-57169202D01*
X40838917Y-57120189D01*
X40782983Y-57078318D01*
X40758566Y-57012853D01*
X40773418Y-56944580D01*
X40794563Y-56916332D01*
X40916495Y-56794401D01*
X41052035Y-56600830D01*
X41054707Y-56595097D01*
X41100878Y-56542658D01*
X41167091Y-56523500D01*
X59138587Y-56523500D01*
X59205626Y-56543185D01*
X59251381Y-56595989D01*
X59261325Y-56665147D01*
X59232300Y-56728703D01*
X59226268Y-56735181D01*
X59184862Y-56776586D01*
X59088889Y-56929325D01*
X59029309Y-57099594D01*
X59029308Y-57099599D01*
X59009113Y-57278845D01*
X59009113Y-57278852D01*
X59029308Y-57458099D01*
X59029310Y-57458104D01*
X59060421Y-57547015D01*
X59063982Y-57616792D01*
X59031060Y-57675649D01*
X55238286Y-61468424D01*
X55126481Y-61580228D01*
X55126477Y-61580233D01*
X55105705Y-61616214D01*
X55105704Y-61616216D01*
X55047423Y-61717161D01*
X55006499Y-61869889D01*
X55006499Y-61869891D01*
X55006499Y-62037992D01*
X55006500Y-62038005D01*
X55006500Y-66647902D01*
X54986815Y-66714941D01*
X54970181Y-66735583D01*
X54543584Y-67162181D01*
X54482261Y-67195666D01*
X54455903Y-67198500D01*
X49389627Y-67198500D01*
X49322588Y-67178815D01*
X49301946Y-67162181D01*
X49223246Y-67083481D01*
X49223238Y-67083475D01*
X49121465Y-67024717D01*
X49121463Y-67024716D01*
X49086319Y-67004425D01*
X49086318Y-67004424D01*
X49073792Y-67001067D01*
X48933586Y-66963499D01*
X48775472Y-66963499D01*
X48767876Y-66963499D01*
X48767860Y-66963500D01*
X37158412Y-66963500D01*
X37091373Y-66943815D01*
X37081097Y-66936445D01*
X37078263Y-66934185D01*
X37078262Y-66934184D01*
X37021496Y-66898515D01*
X36925523Y-66838211D01*
X36755254Y-66778631D01*
X36755249Y-66778630D01*
X36576004Y-66758435D01*
X36575996Y-66758435D01*
X36396750Y-66778630D01*
X36396745Y-66778631D01*
X36226476Y-66838211D01*
X36073737Y-66934184D01*
X35946184Y-67061737D01*
X35850211Y-67214476D01*
X35790631Y-67384745D01*
X35790630Y-67384750D01*
X35770435Y-67563996D01*
X29517500Y-67563996D01*
X29517500Y-40633000D01*
X31411551Y-40633000D01*
X31431317Y-40884151D01*
X31490126Y-41129110D01*
X31586533Y-41361859D01*
X31718160Y-41576653D01*
X31718161Y-41576656D01*
X31718164Y-41576659D01*
X31881776Y-41768224D01*
X32030066Y-41894875D01*
X32073343Y-41931838D01*
X32073346Y-41931839D01*
X32288140Y-42063466D01*
X32520889Y-42159873D01*
X32765852Y-42218683D01*
X33017000Y-42238449D01*
X33268148Y-42218683D01*
X33513111Y-42159873D01*
X33745859Y-42063466D01*
X33960659Y-41931836D01*
X34152224Y-41768224D01*
X34315836Y-41576659D01*
X34447466Y-41361859D01*
X34543873Y-41129111D01*
X34602683Y-40884148D01*
X34622449Y-40633000D01*
X34602683Y-40381852D01*
X34543873Y-40136889D01*
X34447466Y-39904141D01*
X34447466Y-39904140D01*
X34366479Y-39771983D01*
X34348234Y-39704538D01*
X34369350Y-39637935D01*
X34397891Y-39607929D01*
X34474546Y-39550546D01*
X34560796Y-39435331D01*
X34611091Y-39300483D01*
X34617500Y-39240873D01*
X34617499Y-36945128D01*
X34611091Y-36885517D01*
X34560796Y-36750669D01*
X34560795Y-36750668D01*
X34560793Y-36750664D01*
X34474547Y-36635455D01*
X34474544Y-36635452D01*
X34359335Y-36549206D01*
X34359328Y-36549202D01*
X34224482Y-36498908D01*
X34224483Y-36498908D01*
X34164883Y-36492501D01*
X34164881Y-36492500D01*
X34164873Y-36492500D01*
X34164864Y-36492500D01*
X31869129Y-36492500D01*
X31869123Y-36492501D01*
X31809516Y-36498908D01*
X31674671Y-36549202D01*
X31674664Y-36549206D01*
X31559455Y-36635452D01*
X31559452Y-36635455D01*
X31473206Y-36750664D01*
X31473202Y-36750671D01*
X31422908Y-36885517D01*
X31417167Y-36938920D01*
X31416501Y-36945123D01*
X31416500Y-36945135D01*
X31416500Y-39240870D01*
X31416501Y-39240876D01*
X31422908Y-39300483D01*
X31473202Y-39435328D01*
X31473206Y-39435335D01*
X31559452Y-39550544D01*
X31559455Y-39550547D01*
X31636104Y-39607927D01*
X31677975Y-39663861D01*
X31682959Y-39733552D01*
X31667520Y-39771983D01*
X31586533Y-39904140D01*
X31490126Y-40136889D01*
X31431317Y-40381848D01*
X31411551Y-40633000D01*
X29517500Y-40633000D01*
X29517500Y-34132999D01*
X29911341Y-34132999D01*
X29911341Y-34133000D01*
X29931936Y-34368403D01*
X29931938Y-34368413D01*
X29993094Y-34596655D01*
X29993096Y-34596659D01*
X29993097Y-34596663D01*
X30027577Y-34670605D01*
X30092965Y-34810830D01*
X30092967Y-34810834D01*
X30187333Y-34945601D01*
X30228505Y-35004401D01*
X30395599Y-35171495D01*
X30474787Y-35226943D01*
X30589165Y-35307032D01*
X30589167Y-35307033D01*
X30589170Y-35307035D01*
X30803337Y-35406903D01*
X31031592Y-35468063D01*
X31208034Y-35483500D01*
X31266999Y-35488659D01*
X31267000Y-35488659D01*
X31267001Y-35488659D01*
X31325966Y-35483500D01*
X31502408Y-35468063D01*
X31730663Y-35406903D01*
X31944830Y-35307035D01*
X32138401Y-35171495D01*
X32260329Y-35049566D01*
X32321648Y-35016084D01*
X32391340Y-35021068D01*
X32447274Y-35062939D01*
X32464189Y-35093917D01*
X32513202Y-35225328D01*
X32513206Y-35225335D01*
X32599452Y-35340544D01*
X32599455Y-35340547D01*
X32714664Y-35426793D01*
X32714671Y-35426797D01*
X32849517Y-35477091D01*
X32849516Y-35477091D01*
X32856444Y-35477835D01*
X32909127Y-35483500D01*
X34704872Y-35483499D01*
X34764483Y-35477091D01*
X34899331Y-35426796D01*
X35014546Y-35340546D01*
X35100796Y-35225331D01*
X35151091Y-35090483D01*
X35157500Y-35030873D01*
X35157499Y-33235128D01*
X35151091Y-33175517D01*
X35149810Y-33172083D01*
X35100797Y-33040671D01*
X35100793Y-33040664D01*
X35014547Y-32925455D01*
X35014544Y-32925452D01*
X34899335Y-32839206D01*
X34899328Y-32839202D01*
X34764482Y-32788908D01*
X34764483Y-32788908D01*
X34704883Y-32782501D01*
X34704881Y-32782500D01*
X34704873Y-32782500D01*
X34704864Y-32782500D01*
X32909129Y-32782500D01*
X32909123Y-32782501D01*
X32849516Y-32788908D01*
X32714671Y-32839202D01*
X32714664Y-32839206D01*
X32599455Y-32925452D01*
X32599452Y-32925455D01*
X32513206Y-33040664D01*
X32513203Y-33040669D01*
X32464189Y-33172083D01*
X32422317Y-33228016D01*
X32356853Y-33252433D01*
X32288580Y-33237581D01*
X32260326Y-33216430D01*
X32138402Y-33094506D01*
X32138395Y-33094501D01*
X32128152Y-33087329D01*
X32061518Y-33040671D01*
X31944834Y-32958967D01*
X31944830Y-32958965D01*
X31944828Y-32958964D01*
X31730663Y-32859097D01*
X31730659Y-32859096D01*
X31730655Y-32859094D01*
X31502413Y-32797938D01*
X31502403Y-32797936D01*
X31267001Y-32777341D01*
X31266999Y-32777341D01*
X31031596Y-32797936D01*
X31031586Y-32797938D01*
X30803344Y-32859094D01*
X30803335Y-32859098D01*
X30589171Y-32958964D01*
X30589169Y-32958965D01*
X30395597Y-33094505D01*
X30228505Y-33261597D01*
X30092965Y-33455169D01*
X30092964Y-33455171D01*
X29993098Y-33669335D01*
X29993094Y-33669344D01*
X29931938Y-33897586D01*
X29931936Y-33897596D01*
X29911341Y-34132999D01*
X29517500Y-34132999D01*
X29517500Y-32507500D01*
X29537185Y-32440461D01*
X29589989Y-32394706D01*
X29641500Y-32383500D01*
X55379195Y-32383500D01*
X55402165Y-32390244D01*
G37*
G04 #@! TD.AperFunction*
M02*
