%TF.GenerationSoftware,KiCad,Pcbnew,8.0.2*%
%TF.CreationDate,2024-05-12T15:56:23+02:00*%
%TF.ProjectId,LimbusOne,4c696d62-7573-44f6-9e65-2e6b69636164,v.0.1*%
%TF.SameCoordinates,Original*%
%TF.FileFunction,Drillmap*%
%TF.FilePolarity,Positive*%
%FSLAX45Y45*%
G04 Gerber Fmt 4.5, Leading zero omitted, Abs format (unit mm)*
G04 Created by KiCad (PCBNEW 8.0.2) date 2024-05-12 15:56:23*
%MOMM*%
%LPD*%
G01*
G04 APERTURE LIST*
%ADD10C,0.050000*%
%ADD11C,0.200000*%
%ADD12C,0.100000*%
G04 APERTURE END LIST*
D10*
X2926700Y-3213300D02*
X9376700Y-3213300D01*
X9376700Y-7563300D01*
X2926700Y-7563300D01*
X2926700Y-3213300D01*
D11*
D12*
X8909200Y-4888300D02*
X9009200Y-4988300D01*
X9009200Y-4888300D02*
X8909200Y-4988300D01*
X8909200Y-5328300D02*
X9009200Y-5428300D01*
X9009200Y-5328300D02*
X8909200Y-5428300D01*
D11*
X3184977Y-7877284D02*
X3184977Y-7677284D01*
X3184977Y-7677284D02*
X3232596Y-7677284D01*
X3232596Y-7677284D02*
X3261167Y-7686808D01*
X3261167Y-7686808D02*
X3280215Y-7705855D01*
X3280215Y-7705855D02*
X3289739Y-7724903D01*
X3289739Y-7724903D02*
X3299262Y-7762998D01*
X3299262Y-7762998D02*
X3299262Y-7791569D01*
X3299262Y-7791569D02*
X3289739Y-7829665D01*
X3289739Y-7829665D02*
X3280215Y-7848712D01*
X3280215Y-7848712D02*
X3261167Y-7867760D01*
X3261167Y-7867760D02*
X3232596Y-7877284D01*
X3232596Y-7877284D02*
X3184977Y-7877284D01*
X3384977Y-7877284D02*
X3384977Y-7743950D01*
X3384977Y-7782046D02*
X3394501Y-7762998D01*
X3394501Y-7762998D02*
X3404024Y-7753474D01*
X3404024Y-7753474D02*
X3423072Y-7743950D01*
X3423072Y-7743950D02*
X3442120Y-7743950D01*
X3508786Y-7877284D02*
X3508786Y-7743950D01*
X3508786Y-7677284D02*
X3499262Y-7686808D01*
X3499262Y-7686808D02*
X3508786Y-7696331D01*
X3508786Y-7696331D02*
X3518310Y-7686808D01*
X3518310Y-7686808D02*
X3508786Y-7677284D01*
X3508786Y-7677284D02*
X3508786Y-7696331D01*
X3632596Y-7877284D02*
X3613548Y-7867760D01*
X3613548Y-7867760D02*
X3604024Y-7848712D01*
X3604024Y-7848712D02*
X3604024Y-7677284D01*
X3737358Y-7877284D02*
X3718310Y-7867760D01*
X3718310Y-7867760D02*
X3708786Y-7848712D01*
X3708786Y-7848712D02*
X3708786Y-7677284D01*
X3965929Y-7877284D02*
X3965929Y-7677284D01*
X3965929Y-7677284D02*
X4032596Y-7820141D01*
X4032596Y-7820141D02*
X4099262Y-7677284D01*
X4099262Y-7677284D02*
X4099262Y-7877284D01*
X4280215Y-7877284D02*
X4280215Y-7772522D01*
X4280215Y-7772522D02*
X4270691Y-7753474D01*
X4270691Y-7753474D02*
X4251644Y-7743950D01*
X4251644Y-7743950D02*
X4213548Y-7743950D01*
X4213548Y-7743950D02*
X4194501Y-7753474D01*
X4280215Y-7867760D02*
X4261167Y-7877284D01*
X4261167Y-7877284D02*
X4213548Y-7877284D01*
X4213548Y-7877284D02*
X4194501Y-7867760D01*
X4194501Y-7867760D02*
X4184977Y-7848712D01*
X4184977Y-7848712D02*
X4184977Y-7829665D01*
X4184977Y-7829665D02*
X4194501Y-7810617D01*
X4194501Y-7810617D02*
X4213548Y-7801093D01*
X4213548Y-7801093D02*
X4261167Y-7801093D01*
X4261167Y-7801093D02*
X4280215Y-7791569D01*
X4375453Y-7743950D02*
X4375453Y-7943950D01*
X4375453Y-7753474D02*
X4394501Y-7743950D01*
X4394501Y-7743950D02*
X4432596Y-7743950D01*
X4432596Y-7743950D02*
X4451644Y-7753474D01*
X4451644Y-7753474D02*
X4461167Y-7762998D01*
X4461167Y-7762998D02*
X4470691Y-7782046D01*
X4470691Y-7782046D02*
X4470691Y-7839188D01*
X4470691Y-7839188D02*
X4461167Y-7858236D01*
X4461167Y-7858236D02*
X4451644Y-7867760D01*
X4451644Y-7867760D02*
X4432596Y-7877284D01*
X4432596Y-7877284D02*
X4394501Y-7877284D01*
X4394501Y-7877284D02*
X4375453Y-7867760D01*
X4556405Y-7858236D02*
X4565929Y-7867760D01*
X4565929Y-7867760D02*
X4556405Y-7877284D01*
X4556405Y-7877284D02*
X4546882Y-7867760D01*
X4546882Y-7867760D02*
X4556405Y-7858236D01*
X4556405Y-7858236D02*
X4556405Y-7877284D01*
X4556405Y-7753474D02*
X4565929Y-7762998D01*
X4565929Y-7762998D02*
X4556405Y-7772522D01*
X4556405Y-7772522D02*
X4546882Y-7762998D01*
X4546882Y-7762998D02*
X4556405Y-7753474D01*
X4556405Y-7753474D02*
X4556405Y-7772522D01*
D12*
X2824200Y-8155800D02*
X2924200Y-8255800D01*
X2924200Y-8155800D02*
X2824200Y-8255800D01*
D11*
X3289739Y-8297284D02*
X3175453Y-8297284D01*
X3232596Y-8297284D02*
X3232596Y-8097284D01*
X3232596Y-8097284D02*
X3213548Y-8125855D01*
X3213548Y-8125855D02*
X3194501Y-8144903D01*
X3194501Y-8144903D02*
X3175453Y-8154427D01*
X3375453Y-8278236D02*
X3384977Y-8287760D01*
X3384977Y-8287760D02*
X3375453Y-8297284D01*
X3375453Y-8297284D02*
X3365929Y-8287760D01*
X3365929Y-8287760D02*
X3375453Y-8278236D01*
X3375453Y-8278236D02*
X3375453Y-8297284D01*
X3508786Y-8097284D02*
X3527834Y-8097284D01*
X3527834Y-8097284D02*
X3546882Y-8106808D01*
X3546882Y-8106808D02*
X3556405Y-8116331D01*
X3556405Y-8116331D02*
X3565929Y-8135379D01*
X3565929Y-8135379D02*
X3575453Y-8173474D01*
X3575453Y-8173474D02*
X3575453Y-8221093D01*
X3575453Y-8221093D02*
X3565929Y-8259188D01*
X3565929Y-8259188D02*
X3556405Y-8278236D01*
X3556405Y-8278236D02*
X3546882Y-8287760D01*
X3546882Y-8287760D02*
X3527834Y-8297284D01*
X3527834Y-8297284D02*
X3508786Y-8297284D01*
X3508786Y-8297284D02*
X3489739Y-8287760D01*
X3489739Y-8287760D02*
X3480215Y-8278236D01*
X3480215Y-8278236D02*
X3470691Y-8259188D01*
X3470691Y-8259188D02*
X3461167Y-8221093D01*
X3461167Y-8221093D02*
X3461167Y-8173474D01*
X3461167Y-8173474D02*
X3470691Y-8135379D01*
X3470691Y-8135379D02*
X3480215Y-8116331D01*
X3480215Y-8116331D02*
X3489739Y-8106808D01*
X3489739Y-8106808D02*
X3508786Y-8097284D01*
X3699262Y-8097284D02*
X3718310Y-8097284D01*
X3718310Y-8097284D02*
X3737358Y-8106808D01*
X3737358Y-8106808D02*
X3746882Y-8116331D01*
X3746882Y-8116331D02*
X3756405Y-8135379D01*
X3756405Y-8135379D02*
X3765929Y-8173474D01*
X3765929Y-8173474D02*
X3765929Y-8221093D01*
X3765929Y-8221093D02*
X3756405Y-8259188D01*
X3756405Y-8259188D02*
X3746882Y-8278236D01*
X3746882Y-8278236D02*
X3737358Y-8287760D01*
X3737358Y-8287760D02*
X3718310Y-8297284D01*
X3718310Y-8297284D02*
X3699262Y-8297284D01*
X3699262Y-8297284D02*
X3680215Y-8287760D01*
X3680215Y-8287760D02*
X3670691Y-8278236D01*
X3670691Y-8278236D02*
X3661167Y-8259188D01*
X3661167Y-8259188D02*
X3651643Y-8221093D01*
X3651643Y-8221093D02*
X3651643Y-8173474D01*
X3651643Y-8173474D02*
X3661167Y-8135379D01*
X3661167Y-8135379D02*
X3670691Y-8116331D01*
X3670691Y-8116331D02*
X3680215Y-8106808D01*
X3680215Y-8106808D02*
X3699262Y-8097284D01*
X3889739Y-8097284D02*
X3908786Y-8097284D01*
X3908786Y-8097284D02*
X3927834Y-8106808D01*
X3927834Y-8106808D02*
X3937358Y-8116331D01*
X3937358Y-8116331D02*
X3946882Y-8135379D01*
X3946882Y-8135379D02*
X3956405Y-8173474D01*
X3956405Y-8173474D02*
X3956405Y-8221093D01*
X3956405Y-8221093D02*
X3946882Y-8259188D01*
X3946882Y-8259188D02*
X3937358Y-8278236D01*
X3937358Y-8278236D02*
X3927834Y-8287760D01*
X3927834Y-8287760D02*
X3908786Y-8297284D01*
X3908786Y-8297284D02*
X3889739Y-8297284D01*
X3889739Y-8297284D02*
X3870691Y-8287760D01*
X3870691Y-8287760D02*
X3861167Y-8278236D01*
X3861167Y-8278236D02*
X3851643Y-8259188D01*
X3851643Y-8259188D02*
X3842120Y-8221093D01*
X3842120Y-8221093D02*
X3842120Y-8173474D01*
X3842120Y-8173474D02*
X3851643Y-8135379D01*
X3851643Y-8135379D02*
X3861167Y-8116331D01*
X3861167Y-8116331D02*
X3870691Y-8106808D01*
X3870691Y-8106808D02*
X3889739Y-8097284D01*
X4042120Y-8297284D02*
X4042120Y-8163950D01*
X4042120Y-8182998D02*
X4051643Y-8173474D01*
X4051643Y-8173474D02*
X4070691Y-8163950D01*
X4070691Y-8163950D02*
X4099263Y-8163950D01*
X4099263Y-8163950D02*
X4118310Y-8173474D01*
X4118310Y-8173474D02*
X4127834Y-8192522D01*
X4127834Y-8192522D02*
X4127834Y-8297284D01*
X4127834Y-8192522D02*
X4137358Y-8173474D01*
X4137358Y-8173474D02*
X4156405Y-8163950D01*
X4156405Y-8163950D02*
X4184977Y-8163950D01*
X4184977Y-8163950D02*
X4204025Y-8173474D01*
X4204025Y-8173474D02*
X4213548Y-8192522D01*
X4213548Y-8192522D02*
X4213548Y-8297284D01*
X4308786Y-8297284D02*
X4308786Y-8163950D01*
X4308786Y-8182998D02*
X4318310Y-8173474D01*
X4318310Y-8173474D02*
X4337358Y-8163950D01*
X4337358Y-8163950D02*
X4365929Y-8163950D01*
X4365929Y-8163950D02*
X4384977Y-8173474D01*
X4384977Y-8173474D02*
X4394501Y-8192522D01*
X4394501Y-8192522D02*
X4394501Y-8297284D01*
X4394501Y-8192522D02*
X4404025Y-8173474D01*
X4404025Y-8173474D02*
X4423072Y-8163950D01*
X4423072Y-8163950D02*
X4451644Y-8163950D01*
X4451644Y-8163950D02*
X4470691Y-8173474D01*
X4470691Y-8173474D02*
X4480215Y-8192522D01*
X4480215Y-8192522D02*
X4480215Y-8297284D01*
X4870691Y-8087760D02*
X4699263Y-8344903D01*
X5127834Y-8097284D02*
X5146882Y-8097284D01*
X5146882Y-8097284D02*
X5165929Y-8106808D01*
X5165929Y-8106808D02*
X5175453Y-8116331D01*
X5175453Y-8116331D02*
X5184977Y-8135379D01*
X5184977Y-8135379D02*
X5194501Y-8173474D01*
X5194501Y-8173474D02*
X5194501Y-8221093D01*
X5194501Y-8221093D02*
X5184977Y-8259188D01*
X5184977Y-8259188D02*
X5175453Y-8278236D01*
X5175453Y-8278236D02*
X5165929Y-8287760D01*
X5165929Y-8287760D02*
X5146882Y-8297284D01*
X5146882Y-8297284D02*
X5127834Y-8297284D01*
X5127834Y-8297284D02*
X5108787Y-8287760D01*
X5108787Y-8287760D02*
X5099263Y-8278236D01*
X5099263Y-8278236D02*
X5089739Y-8259188D01*
X5089739Y-8259188D02*
X5080215Y-8221093D01*
X5080215Y-8221093D02*
X5080215Y-8173474D01*
X5080215Y-8173474D02*
X5089739Y-8135379D01*
X5089739Y-8135379D02*
X5099263Y-8116331D01*
X5099263Y-8116331D02*
X5108787Y-8106808D01*
X5108787Y-8106808D02*
X5127834Y-8097284D01*
X5280215Y-8278236D02*
X5289739Y-8287760D01*
X5289739Y-8287760D02*
X5280215Y-8297284D01*
X5280215Y-8297284D02*
X5270691Y-8287760D01*
X5270691Y-8287760D02*
X5280215Y-8278236D01*
X5280215Y-8278236D02*
X5280215Y-8297284D01*
X5413548Y-8097284D02*
X5432596Y-8097284D01*
X5432596Y-8097284D02*
X5451644Y-8106808D01*
X5451644Y-8106808D02*
X5461168Y-8116331D01*
X5461168Y-8116331D02*
X5470691Y-8135379D01*
X5470691Y-8135379D02*
X5480215Y-8173474D01*
X5480215Y-8173474D02*
X5480215Y-8221093D01*
X5480215Y-8221093D02*
X5470691Y-8259188D01*
X5470691Y-8259188D02*
X5461168Y-8278236D01*
X5461168Y-8278236D02*
X5451644Y-8287760D01*
X5451644Y-8287760D02*
X5432596Y-8297284D01*
X5432596Y-8297284D02*
X5413548Y-8297284D01*
X5413548Y-8297284D02*
X5394501Y-8287760D01*
X5394501Y-8287760D02*
X5384977Y-8278236D01*
X5384977Y-8278236D02*
X5375453Y-8259188D01*
X5375453Y-8259188D02*
X5365929Y-8221093D01*
X5365929Y-8221093D02*
X5365929Y-8173474D01*
X5365929Y-8173474D02*
X5375453Y-8135379D01*
X5375453Y-8135379D02*
X5384977Y-8116331D01*
X5384977Y-8116331D02*
X5394501Y-8106808D01*
X5394501Y-8106808D02*
X5413548Y-8097284D01*
X5546882Y-8097284D02*
X5670691Y-8097284D01*
X5670691Y-8097284D02*
X5604025Y-8173474D01*
X5604025Y-8173474D02*
X5632596Y-8173474D01*
X5632596Y-8173474D02*
X5651644Y-8182998D01*
X5651644Y-8182998D02*
X5661167Y-8192522D01*
X5661167Y-8192522D02*
X5670691Y-8211569D01*
X5670691Y-8211569D02*
X5670691Y-8259188D01*
X5670691Y-8259188D02*
X5661167Y-8278236D01*
X5661167Y-8278236D02*
X5651644Y-8287760D01*
X5651644Y-8287760D02*
X5632596Y-8297284D01*
X5632596Y-8297284D02*
X5575453Y-8297284D01*
X5575453Y-8297284D02*
X5556406Y-8287760D01*
X5556406Y-8287760D02*
X5546882Y-8278236D01*
X5765929Y-8297284D02*
X5804025Y-8297284D01*
X5804025Y-8297284D02*
X5823072Y-8287760D01*
X5823072Y-8287760D02*
X5832596Y-8278236D01*
X5832596Y-8278236D02*
X5851644Y-8249665D01*
X5851644Y-8249665D02*
X5861167Y-8211569D01*
X5861167Y-8211569D02*
X5861167Y-8135379D01*
X5861167Y-8135379D02*
X5851644Y-8116331D01*
X5851644Y-8116331D02*
X5842120Y-8106808D01*
X5842120Y-8106808D02*
X5823072Y-8097284D01*
X5823072Y-8097284D02*
X5784977Y-8097284D01*
X5784977Y-8097284D02*
X5765929Y-8106808D01*
X5765929Y-8106808D02*
X5756406Y-8116331D01*
X5756406Y-8116331D02*
X5746882Y-8135379D01*
X5746882Y-8135379D02*
X5746882Y-8182998D01*
X5746882Y-8182998D02*
X5756406Y-8202046D01*
X5756406Y-8202046D02*
X5765929Y-8211569D01*
X5765929Y-8211569D02*
X5784977Y-8221093D01*
X5784977Y-8221093D02*
X5823072Y-8221093D01*
X5823072Y-8221093D02*
X5842120Y-8211569D01*
X5842120Y-8211569D02*
X5851644Y-8202046D01*
X5851644Y-8202046D02*
X5861167Y-8182998D01*
X6032596Y-8163950D02*
X6032596Y-8297284D01*
X5984977Y-8087760D02*
X5937358Y-8230617D01*
X5937358Y-8230617D02*
X6061167Y-8230617D01*
X6127834Y-8097284D02*
X6127834Y-8135379D01*
X6204025Y-8097284D02*
X6204025Y-8135379D01*
X6499263Y-8373474D02*
X6489739Y-8363950D01*
X6489739Y-8363950D02*
X6470691Y-8335379D01*
X6470691Y-8335379D02*
X6461168Y-8316331D01*
X6461168Y-8316331D02*
X6451644Y-8287760D01*
X6451644Y-8287760D02*
X6442120Y-8240141D01*
X6442120Y-8240141D02*
X6442120Y-8202046D01*
X6442120Y-8202046D02*
X6451644Y-8154427D01*
X6451644Y-8154427D02*
X6461168Y-8125855D01*
X6461168Y-8125855D02*
X6470691Y-8106808D01*
X6470691Y-8106808D02*
X6489739Y-8078236D01*
X6489739Y-8078236D02*
X6499263Y-8068712D01*
X6565929Y-8116331D02*
X6575453Y-8106808D01*
X6575453Y-8106808D02*
X6594501Y-8097284D01*
X6594501Y-8097284D02*
X6642120Y-8097284D01*
X6642120Y-8097284D02*
X6661168Y-8106808D01*
X6661168Y-8106808D02*
X6670691Y-8116331D01*
X6670691Y-8116331D02*
X6680215Y-8135379D01*
X6680215Y-8135379D02*
X6680215Y-8154427D01*
X6680215Y-8154427D02*
X6670691Y-8182998D01*
X6670691Y-8182998D02*
X6556406Y-8297284D01*
X6556406Y-8297284D02*
X6680215Y-8297284D01*
X6918310Y-8297284D02*
X6918310Y-8097284D01*
X7004025Y-8297284D02*
X7004025Y-8192522D01*
X7004025Y-8192522D02*
X6994501Y-8173474D01*
X6994501Y-8173474D02*
X6975453Y-8163950D01*
X6975453Y-8163950D02*
X6946882Y-8163950D01*
X6946882Y-8163950D02*
X6927834Y-8173474D01*
X6927834Y-8173474D02*
X6918310Y-8182998D01*
X7127834Y-8297284D02*
X7108787Y-8287760D01*
X7108787Y-8287760D02*
X7099263Y-8278236D01*
X7099263Y-8278236D02*
X7089739Y-8259188D01*
X7089739Y-8259188D02*
X7089739Y-8202046D01*
X7089739Y-8202046D02*
X7099263Y-8182998D01*
X7099263Y-8182998D02*
X7108787Y-8173474D01*
X7108787Y-8173474D02*
X7127834Y-8163950D01*
X7127834Y-8163950D02*
X7156406Y-8163950D01*
X7156406Y-8163950D02*
X7175453Y-8173474D01*
X7175453Y-8173474D02*
X7184977Y-8182998D01*
X7184977Y-8182998D02*
X7194501Y-8202046D01*
X7194501Y-8202046D02*
X7194501Y-8259188D01*
X7194501Y-8259188D02*
X7184977Y-8278236D01*
X7184977Y-8278236D02*
X7175453Y-8287760D01*
X7175453Y-8287760D02*
X7156406Y-8297284D01*
X7156406Y-8297284D02*
X7127834Y-8297284D01*
X7308787Y-8297284D02*
X7289739Y-8287760D01*
X7289739Y-8287760D02*
X7280215Y-8268712D01*
X7280215Y-8268712D02*
X7280215Y-8097284D01*
X7461168Y-8287760D02*
X7442120Y-8297284D01*
X7442120Y-8297284D02*
X7404025Y-8297284D01*
X7404025Y-8297284D02*
X7384977Y-8287760D01*
X7384977Y-8287760D02*
X7375453Y-8268712D01*
X7375453Y-8268712D02*
X7375453Y-8192522D01*
X7375453Y-8192522D02*
X7384977Y-8173474D01*
X7384977Y-8173474D02*
X7404025Y-8163950D01*
X7404025Y-8163950D02*
X7442120Y-8163950D01*
X7442120Y-8163950D02*
X7461168Y-8173474D01*
X7461168Y-8173474D02*
X7470691Y-8192522D01*
X7470691Y-8192522D02*
X7470691Y-8211569D01*
X7470691Y-8211569D02*
X7375453Y-8230617D01*
X7546882Y-8287760D02*
X7565930Y-8297284D01*
X7565930Y-8297284D02*
X7604025Y-8297284D01*
X7604025Y-8297284D02*
X7623072Y-8287760D01*
X7623072Y-8287760D02*
X7632596Y-8268712D01*
X7632596Y-8268712D02*
X7632596Y-8259188D01*
X7632596Y-8259188D02*
X7623072Y-8240141D01*
X7623072Y-8240141D02*
X7604025Y-8230617D01*
X7604025Y-8230617D02*
X7575453Y-8230617D01*
X7575453Y-8230617D02*
X7556406Y-8221093D01*
X7556406Y-8221093D02*
X7546882Y-8202046D01*
X7546882Y-8202046D02*
X7546882Y-8192522D01*
X7546882Y-8192522D02*
X7556406Y-8173474D01*
X7556406Y-8173474D02*
X7575453Y-8163950D01*
X7575453Y-8163950D02*
X7604025Y-8163950D01*
X7604025Y-8163950D02*
X7623072Y-8173474D01*
X7699263Y-8373474D02*
X7708787Y-8363950D01*
X7708787Y-8363950D02*
X7727834Y-8335379D01*
X7727834Y-8335379D02*
X7737358Y-8316331D01*
X7737358Y-8316331D02*
X7746882Y-8287760D01*
X7746882Y-8287760D02*
X7756406Y-8240141D01*
X7756406Y-8240141D02*
X7756406Y-8202046D01*
X7756406Y-8202046D02*
X7746882Y-8154427D01*
X7746882Y-8154427D02*
X7737358Y-8125855D01*
X7737358Y-8125855D02*
X7727834Y-8106808D01*
X7727834Y-8106808D02*
X7708787Y-8078236D01*
X7708787Y-8078236D02*
X7699263Y-8068712D01*
X8061168Y-8373474D02*
X8051644Y-8363950D01*
X8051644Y-8363950D02*
X8032596Y-8335379D01*
X8032596Y-8335379D02*
X8023072Y-8316331D01*
X8023072Y-8316331D02*
X8013549Y-8287760D01*
X8013549Y-8287760D02*
X8004025Y-8240141D01*
X8004025Y-8240141D02*
X8004025Y-8202046D01*
X8004025Y-8202046D02*
X8013549Y-8154427D01*
X8013549Y-8154427D02*
X8023072Y-8125855D01*
X8023072Y-8125855D02*
X8032596Y-8106808D01*
X8032596Y-8106808D02*
X8051644Y-8078236D01*
X8051644Y-8078236D02*
X8061168Y-8068712D01*
X8137358Y-8163950D02*
X8137358Y-8297284D01*
X8137358Y-8182998D02*
X8146882Y-8173474D01*
X8146882Y-8173474D02*
X8165930Y-8163950D01*
X8165930Y-8163950D02*
X8194501Y-8163950D01*
X8194501Y-8163950D02*
X8213549Y-8173474D01*
X8213549Y-8173474D02*
X8223072Y-8192522D01*
X8223072Y-8192522D02*
X8223072Y-8297284D01*
X8346882Y-8297284D02*
X8327834Y-8287760D01*
X8327834Y-8287760D02*
X8318311Y-8278236D01*
X8318311Y-8278236D02*
X8308787Y-8259188D01*
X8308787Y-8259188D02*
X8308787Y-8202046D01*
X8308787Y-8202046D02*
X8318311Y-8182998D01*
X8318311Y-8182998D02*
X8327834Y-8173474D01*
X8327834Y-8173474D02*
X8346882Y-8163950D01*
X8346882Y-8163950D02*
X8375453Y-8163950D01*
X8375453Y-8163950D02*
X8394501Y-8173474D01*
X8394501Y-8173474D02*
X8404025Y-8182998D01*
X8404025Y-8182998D02*
X8413549Y-8202046D01*
X8413549Y-8202046D02*
X8413549Y-8259188D01*
X8413549Y-8259188D02*
X8404025Y-8278236D01*
X8404025Y-8278236D02*
X8394501Y-8287760D01*
X8394501Y-8287760D02*
X8375453Y-8297284D01*
X8375453Y-8297284D02*
X8346882Y-8297284D01*
X8470692Y-8163950D02*
X8546882Y-8163950D01*
X8499263Y-8097284D02*
X8499263Y-8268712D01*
X8499263Y-8268712D02*
X8508787Y-8287760D01*
X8508787Y-8287760D02*
X8527834Y-8297284D01*
X8527834Y-8297284D02*
X8546882Y-8297284D01*
X8765930Y-8163950D02*
X8765930Y-8363950D01*
X8765930Y-8173474D02*
X8784977Y-8163950D01*
X8784977Y-8163950D02*
X8823073Y-8163950D01*
X8823073Y-8163950D02*
X8842120Y-8173474D01*
X8842120Y-8173474D02*
X8851644Y-8182998D01*
X8851644Y-8182998D02*
X8861168Y-8202046D01*
X8861168Y-8202046D02*
X8861168Y-8259188D01*
X8861168Y-8259188D02*
X8851644Y-8278236D01*
X8851644Y-8278236D02*
X8842120Y-8287760D01*
X8842120Y-8287760D02*
X8823073Y-8297284D01*
X8823073Y-8297284D02*
X8784977Y-8297284D01*
X8784977Y-8297284D02*
X8765930Y-8287760D01*
X8975454Y-8297284D02*
X8956406Y-8287760D01*
X8956406Y-8287760D02*
X8946882Y-8268712D01*
X8946882Y-8268712D02*
X8946882Y-8097284D01*
X9137358Y-8297284D02*
X9137358Y-8192522D01*
X9137358Y-8192522D02*
X9127835Y-8173474D01*
X9127835Y-8173474D02*
X9108787Y-8163950D01*
X9108787Y-8163950D02*
X9070692Y-8163950D01*
X9070692Y-8163950D02*
X9051644Y-8173474D01*
X9137358Y-8287760D02*
X9118311Y-8297284D01*
X9118311Y-8297284D02*
X9070692Y-8297284D01*
X9070692Y-8297284D02*
X9051644Y-8287760D01*
X9051644Y-8287760D02*
X9042120Y-8268712D01*
X9042120Y-8268712D02*
X9042120Y-8249665D01*
X9042120Y-8249665D02*
X9051644Y-8230617D01*
X9051644Y-8230617D02*
X9070692Y-8221093D01*
X9070692Y-8221093D02*
X9118311Y-8221093D01*
X9118311Y-8221093D02*
X9137358Y-8211569D01*
X9204025Y-8163950D02*
X9280215Y-8163950D01*
X9232596Y-8097284D02*
X9232596Y-8268712D01*
X9232596Y-8268712D02*
X9242120Y-8287760D01*
X9242120Y-8287760D02*
X9261168Y-8297284D01*
X9261168Y-8297284D02*
X9280215Y-8297284D01*
X9423073Y-8287760D02*
X9404025Y-8297284D01*
X9404025Y-8297284D02*
X9365930Y-8297284D01*
X9365930Y-8297284D02*
X9346882Y-8287760D01*
X9346882Y-8287760D02*
X9337358Y-8268712D01*
X9337358Y-8268712D02*
X9337358Y-8192522D01*
X9337358Y-8192522D02*
X9346882Y-8173474D01*
X9346882Y-8173474D02*
X9365930Y-8163950D01*
X9365930Y-8163950D02*
X9404025Y-8163950D01*
X9404025Y-8163950D02*
X9423073Y-8173474D01*
X9423073Y-8173474D02*
X9432596Y-8192522D01*
X9432596Y-8192522D02*
X9432596Y-8211569D01*
X9432596Y-8211569D02*
X9337358Y-8230617D01*
X9604025Y-8297284D02*
X9604025Y-8097284D01*
X9604025Y-8287760D02*
X9584977Y-8297284D01*
X9584977Y-8297284D02*
X9546882Y-8297284D01*
X9546882Y-8297284D02*
X9527835Y-8287760D01*
X9527835Y-8287760D02*
X9518311Y-8278236D01*
X9518311Y-8278236D02*
X9508787Y-8259188D01*
X9508787Y-8259188D02*
X9508787Y-8202046D01*
X9508787Y-8202046D02*
X9518311Y-8182998D01*
X9518311Y-8182998D02*
X9527835Y-8173474D01*
X9527835Y-8173474D02*
X9546882Y-8163950D01*
X9546882Y-8163950D02*
X9584977Y-8163950D01*
X9584977Y-8163950D02*
X9604025Y-8173474D01*
X9680216Y-8373474D02*
X9689739Y-8363950D01*
X9689739Y-8363950D02*
X9708787Y-8335379D01*
X9708787Y-8335379D02*
X9718311Y-8316331D01*
X9718311Y-8316331D02*
X9727835Y-8287760D01*
X9727835Y-8287760D02*
X9737358Y-8240141D01*
X9737358Y-8240141D02*
X9737358Y-8202046D01*
X9737358Y-8202046D02*
X9727835Y-8154427D01*
X9727835Y-8154427D02*
X9718311Y-8125855D01*
X9718311Y-8125855D02*
X9708787Y-8106808D01*
X9708787Y-8106808D02*
X9689739Y-8078236D01*
X9689739Y-8078236D02*
X9680216Y-8068712D01*
M02*
