G04 #@! TF.GenerationSoftware,KiCad,Pcbnew,8.0.2*
G04 #@! TF.CreationDate,2024-05-12T15:56:14+02:00*
G04 #@! TF.ProjectId,LimbusOne,4c696d62-7573-44f6-9e65-2e6b69636164,v.0.1*
G04 #@! TF.SameCoordinates,Original*
G04 #@! TF.FileFunction,Legend,Bot*
G04 #@! TF.FilePolarity,Positive*
%FSLAX46Y46*%
G04 Gerber Fmt 4.6, Leading zero omitted, Abs format (unit mm)*
G04 Created by KiCad (PCBNEW 8.0.2) date 2024-05-12 15:56:14*
%MOMM*%
%LPD*%
G01*
G04 APERTURE LIST*
%ADD10C,0.100000*%
%ADD11R,1.700000X1.700000*%
%ADD12O,1.700000X1.700000*%
%ADD13C,1.000000*%
%ADD14R,2.200000X2.200000*%
%ADD15C,2.200000*%
G04 APERTURE END LIST*
D10*
X32593531Y-50183074D02*
X32593531Y-49706884D01*
X32593531Y-49706884D02*
X31593531Y-49706884D01*
X32593531Y-50516408D02*
X31926864Y-50516408D01*
X31593531Y-50516408D02*
X31641150Y-50468789D01*
X31641150Y-50468789D02*
X31688769Y-50516408D01*
X31688769Y-50516408D02*
X31641150Y-50564027D01*
X31641150Y-50564027D02*
X31593531Y-50516408D01*
X31593531Y-50516408D02*
X31688769Y-50516408D01*
X32593531Y-50992598D02*
X31926864Y-50992598D01*
X32022102Y-50992598D02*
X31974483Y-51040217D01*
X31974483Y-51040217D02*
X31926864Y-51135455D01*
X31926864Y-51135455D02*
X31926864Y-51278312D01*
X31926864Y-51278312D02*
X31974483Y-51373550D01*
X31974483Y-51373550D02*
X32069721Y-51421169D01*
X32069721Y-51421169D02*
X32593531Y-51421169D01*
X32069721Y-51421169D02*
X31974483Y-51468788D01*
X31974483Y-51468788D02*
X31926864Y-51564026D01*
X31926864Y-51564026D02*
X31926864Y-51706883D01*
X31926864Y-51706883D02*
X31974483Y-51802122D01*
X31974483Y-51802122D02*
X32069721Y-51849741D01*
X32069721Y-51849741D02*
X32593531Y-51849741D01*
X32593531Y-52325931D02*
X31593531Y-52325931D01*
X31974483Y-52325931D02*
X31926864Y-52421169D01*
X31926864Y-52421169D02*
X31926864Y-52611645D01*
X31926864Y-52611645D02*
X31974483Y-52706883D01*
X31974483Y-52706883D02*
X32022102Y-52754502D01*
X32022102Y-52754502D02*
X32117340Y-52802121D01*
X32117340Y-52802121D02*
X32403054Y-52802121D01*
X32403054Y-52802121D02*
X32498292Y-52754502D01*
X32498292Y-52754502D02*
X32545912Y-52706883D01*
X32545912Y-52706883D02*
X32593531Y-52611645D01*
X32593531Y-52611645D02*
X32593531Y-52421169D01*
X32593531Y-52421169D02*
X32545912Y-52325931D01*
X31926864Y-53659264D02*
X32593531Y-53659264D01*
X31926864Y-53230693D02*
X32450673Y-53230693D01*
X32450673Y-53230693D02*
X32545912Y-53278312D01*
X32545912Y-53278312D02*
X32593531Y-53373550D01*
X32593531Y-53373550D02*
X32593531Y-53516407D01*
X32593531Y-53516407D02*
X32545912Y-53611645D01*
X32545912Y-53611645D02*
X32498292Y-53659264D01*
X32545912Y-54087836D02*
X32593531Y-54183074D01*
X32593531Y-54183074D02*
X32593531Y-54373550D01*
X32593531Y-54373550D02*
X32545912Y-54468788D01*
X32545912Y-54468788D02*
X32450673Y-54516407D01*
X32450673Y-54516407D02*
X32403054Y-54516407D01*
X32403054Y-54516407D02*
X32307816Y-54468788D01*
X32307816Y-54468788D02*
X32260197Y-54373550D01*
X32260197Y-54373550D02*
X32260197Y-54230693D01*
X32260197Y-54230693D02*
X32212578Y-54135455D01*
X32212578Y-54135455D02*
X32117340Y-54087836D01*
X32117340Y-54087836D02*
X32069721Y-54087836D01*
X32069721Y-54087836D02*
X31974483Y-54135455D01*
X31974483Y-54135455D02*
X31926864Y-54230693D01*
X31926864Y-54230693D02*
X31926864Y-54373550D01*
X31926864Y-54373550D02*
X31974483Y-54468788D01*
X31593531Y-55897360D02*
X31593531Y-56087836D01*
X31593531Y-56087836D02*
X31641150Y-56183074D01*
X31641150Y-56183074D02*
X31736388Y-56278312D01*
X31736388Y-56278312D02*
X31926864Y-56325931D01*
X31926864Y-56325931D02*
X32260197Y-56325931D01*
X32260197Y-56325931D02*
X32450673Y-56278312D01*
X32450673Y-56278312D02*
X32545912Y-56183074D01*
X32545912Y-56183074D02*
X32593531Y-56087836D01*
X32593531Y-56087836D02*
X32593531Y-55897360D01*
X32593531Y-55897360D02*
X32545912Y-55802122D01*
X32545912Y-55802122D02*
X32450673Y-55706884D01*
X32450673Y-55706884D02*
X32260197Y-55659265D01*
X32260197Y-55659265D02*
X31926864Y-55659265D01*
X31926864Y-55659265D02*
X31736388Y-55706884D01*
X31736388Y-55706884D02*
X31641150Y-55802122D01*
X31641150Y-55802122D02*
X31593531Y-55897360D01*
X31926864Y-56754503D02*
X32593531Y-56754503D01*
X32022102Y-56754503D02*
X31974483Y-56802122D01*
X31974483Y-56802122D02*
X31926864Y-56897360D01*
X31926864Y-56897360D02*
X31926864Y-57040217D01*
X31926864Y-57040217D02*
X31974483Y-57135455D01*
X31974483Y-57135455D02*
X32069721Y-57183074D01*
X32069721Y-57183074D02*
X32593531Y-57183074D01*
X32545912Y-58040217D02*
X32593531Y-57944979D01*
X32593531Y-57944979D02*
X32593531Y-57754503D01*
X32593531Y-57754503D02*
X32545912Y-57659265D01*
X32545912Y-57659265D02*
X32450673Y-57611646D01*
X32450673Y-57611646D02*
X32069721Y-57611646D01*
X32069721Y-57611646D02*
X31974483Y-57659265D01*
X31974483Y-57659265D02*
X31926864Y-57754503D01*
X31926864Y-57754503D02*
X31926864Y-57944979D01*
X31926864Y-57944979D02*
X31974483Y-58040217D01*
X31974483Y-58040217D02*
X32069721Y-58087836D01*
X32069721Y-58087836D02*
X32164959Y-58087836D01*
X32164959Y-58087836D02*
X32260197Y-57611646D01*
X33917760Y-49659265D02*
X33917760Y-50135455D01*
X34203475Y-49564027D02*
X33203475Y-49897360D01*
X33203475Y-49897360D02*
X34203475Y-50230693D01*
X33536808Y-50564027D02*
X34536808Y-50564027D01*
X33584427Y-50564027D02*
X33536808Y-50659265D01*
X33536808Y-50659265D02*
X33536808Y-50849741D01*
X33536808Y-50849741D02*
X33584427Y-50944979D01*
X33584427Y-50944979D02*
X33632046Y-50992598D01*
X33632046Y-50992598D02*
X33727284Y-51040217D01*
X33727284Y-51040217D02*
X34012998Y-51040217D01*
X34012998Y-51040217D02*
X34108236Y-50992598D01*
X34108236Y-50992598D02*
X34155856Y-50944979D01*
X34155856Y-50944979D02*
X34203475Y-50849741D01*
X34203475Y-50849741D02*
X34203475Y-50659265D01*
X34203475Y-50659265D02*
X34155856Y-50564027D01*
X34203475Y-51468789D02*
X33536808Y-51468789D01*
X33727284Y-51468789D02*
X33632046Y-51516408D01*
X33632046Y-51516408D02*
X33584427Y-51564027D01*
X33584427Y-51564027D02*
X33536808Y-51659265D01*
X33536808Y-51659265D02*
X33536808Y-51754503D01*
X34203475Y-52087837D02*
X33536808Y-52087837D01*
X33203475Y-52087837D02*
X33251094Y-52040218D01*
X33251094Y-52040218D02*
X33298713Y-52087837D01*
X33298713Y-52087837D02*
X33251094Y-52135456D01*
X33251094Y-52135456D02*
X33203475Y-52087837D01*
X33203475Y-52087837D02*
X33298713Y-52087837D01*
X34203475Y-52706884D02*
X34155856Y-52611646D01*
X34155856Y-52611646D02*
X34060617Y-52564027D01*
X34060617Y-52564027D02*
X33203475Y-52564027D01*
X33298713Y-53802123D02*
X33251094Y-53849742D01*
X33251094Y-53849742D02*
X33203475Y-53944980D01*
X33203475Y-53944980D02*
X33203475Y-54183075D01*
X33203475Y-54183075D02*
X33251094Y-54278313D01*
X33251094Y-54278313D02*
X33298713Y-54325932D01*
X33298713Y-54325932D02*
X33393951Y-54373551D01*
X33393951Y-54373551D02*
X33489189Y-54373551D01*
X33489189Y-54373551D02*
X33632046Y-54325932D01*
X33632046Y-54325932D02*
X34203475Y-53754504D01*
X34203475Y-53754504D02*
X34203475Y-54373551D01*
X33203475Y-54992599D02*
X33203475Y-55087837D01*
X33203475Y-55087837D02*
X33251094Y-55183075D01*
X33251094Y-55183075D02*
X33298713Y-55230694D01*
X33298713Y-55230694D02*
X33393951Y-55278313D01*
X33393951Y-55278313D02*
X33584427Y-55325932D01*
X33584427Y-55325932D02*
X33822522Y-55325932D01*
X33822522Y-55325932D02*
X34012998Y-55278313D01*
X34012998Y-55278313D02*
X34108236Y-55230694D01*
X34108236Y-55230694D02*
X34155856Y-55183075D01*
X34155856Y-55183075D02*
X34203475Y-55087837D01*
X34203475Y-55087837D02*
X34203475Y-54992599D01*
X34203475Y-54992599D02*
X34155856Y-54897361D01*
X34155856Y-54897361D02*
X34108236Y-54849742D01*
X34108236Y-54849742D02*
X34012998Y-54802123D01*
X34012998Y-54802123D02*
X33822522Y-54754504D01*
X33822522Y-54754504D02*
X33584427Y-54754504D01*
X33584427Y-54754504D02*
X33393951Y-54802123D01*
X33393951Y-54802123D02*
X33298713Y-54849742D01*
X33298713Y-54849742D02*
X33251094Y-54897361D01*
X33251094Y-54897361D02*
X33203475Y-54992599D01*
X33298713Y-55706885D02*
X33251094Y-55754504D01*
X33251094Y-55754504D02*
X33203475Y-55849742D01*
X33203475Y-55849742D02*
X33203475Y-56087837D01*
X33203475Y-56087837D02*
X33251094Y-56183075D01*
X33251094Y-56183075D02*
X33298713Y-56230694D01*
X33298713Y-56230694D02*
X33393951Y-56278313D01*
X33393951Y-56278313D02*
X33489189Y-56278313D01*
X33489189Y-56278313D02*
X33632046Y-56230694D01*
X33632046Y-56230694D02*
X34203475Y-55659266D01*
X34203475Y-55659266D02*
X34203475Y-56278313D01*
X33536808Y-57135456D02*
X34203475Y-57135456D01*
X33155856Y-56897361D02*
X33870141Y-56659266D01*
X33870141Y-56659266D02*
X33870141Y-57278313D01*
X34813419Y-49564027D02*
X35813419Y-49897360D01*
X35813419Y-49897360D02*
X34813419Y-50230693D01*
X35718180Y-50564027D02*
X35765800Y-50611646D01*
X35765800Y-50611646D02*
X35813419Y-50564027D01*
X35813419Y-50564027D02*
X35765800Y-50516408D01*
X35765800Y-50516408D02*
X35718180Y-50564027D01*
X35718180Y-50564027D02*
X35813419Y-50564027D01*
X34813419Y-51230693D02*
X34813419Y-51325931D01*
X34813419Y-51325931D02*
X34861038Y-51421169D01*
X34861038Y-51421169D02*
X34908657Y-51468788D01*
X34908657Y-51468788D02*
X35003895Y-51516407D01*
X35003895Y-51516407D02*
X35194371Y-51564026D01*
X35194371Y-51564026D02*
X35432466Y-51564026D01*
X35432466Y-51564026D02*
X35622942Y-51516407D01*
X35622942Y-51516407D02*
X35718180Y-51468788D01*
X35718180Y-51468788D02*
X35765800Y-51421169D01*
X35765800Y-51421169D02*
X35813419Y-51325931D01*
X35813419Y-51325931D02*
X35813419Y-51230693D01*
X35813419Y-51230693D02*
X35765800Y-51135455D01*
X35765800Y-51135455D02*
X35718180Y-51087836D01*
X35718180Y-51087836D02*
X35622942Y-51040217D01*
X35622942Y-51040217D02*
X35432466Y-50992598D01*
X35432466Y-50992598D02*
X35194371Y-50992598D01*
X35194371Y-50992598D02*
X35003895Y-51040217D01*
X35003895Y-51040217D02*
X34908657Y-51087836D01*
X34908657Y-51087836D02*
X34861038Y-51135455D01*
X34861038Y-51135455D02*
X34813419Y-51230693D01*
X35718180Y-51992598D02*
X35765800Y-52040217D01*
X35765800Y-52040217D02*
X35813419Y-51992598D01*
X35813419Y-51992598D02*
X35765800Y-51944979D01*
X35765800Y-51944979D02*
X35718180Y-51992598D01*
X35718180Y-51992598D02*
X35813419Y-51992598D01*
X35813419Y-52992597D02*
X35813419Y-52421169D01*
X35813419Y-52706883D02*
X34813419Y-52706883D01*
X34813419Y-52706883D02*
X34956276Y-52611645D01*
X34956276Y-52611645D02*
X35051514Y-52516407D01*
X35051514Y-52516407D02*
X35099133Y-52421169D01*
%LPC*%
D11*
X39878000Y-58463000D03*
D12*
X39878000Y-55923000D03*
X39878000Y-53383000D03*
X39878000Y-50843000D03*
X39878000Y-48303000D03*
D11*
X78267000Y-33985200D03*
D12*
X75727000Y-33985200D03*
X73187001Y-33985200D03*
X70647000Y-33985200D03*
X68107000Y-33985200D03*
X65567000Y-33985200D03*
X63027000Y-33985200D03*
X60486999Y-33985200D03*
X57947000Y-33985200D03*
X55407000Y-33985200D03*
D11*
X89227000Y-73593000D03*
D12*
X91767000Y-73593000D03*
D13*
X89592000Y-53783000D03*
X89592000Y-49383000D03*
D11*
X33807000Y-34133000D03*
D12*
X31267000Y-34133000D03*
D14*
X90017000Y-69633000D03*
D15*
X90017000Y-67093000D03*
D11*
X55407000Y-73761600D03*
D12*
X57947000Y-73761600D03*
X60486999Y-73761600D03*
X63027000Y-73761600D03*
X65567000Y-73761600D03*
X68107000Y-73761600D03*
X70647000Y-73761600D03*
X73187001Y-73761600D03*
X75727000Y-73761600D03*
X78267000Y-73761600D03*
D14*
X33017000Y-38093000D03*
D15*
X33017000Y-40633000D03*
%LPD*%
M02*
