G04 #@! TF.GenerationSoftware,KiCad,Pcbnew,8.0.2*
G04 #@! TF.CreationDate,2024-05-12T15:56:15+02:00*
G04 #@! TF.ProjectId,LimbusOne,4c696d62-7573-44f6-9e65-2e6b69636164,v.0.1*
G04 #@! TF.SameCoordinates,Original*
G04 #@! TF.FileFunction,Soldermask,Top*
G04 #@! TF.FilePolarity,Negative*
%FSLAX46Y46*%
G04 Gerber Fmt 4.6, Leading zero omitted, Abs format (unit mm)*
G04 Created by KiCad (PCBNEW 8.0.2) date 2024-05-12 15:56:15*
%MOMM*%
%LPD*%
G01*
G04 APERTURE LIST*
G04 Aperture macros list*
%AMRoundRect*
0 Rectangle with rounded corners*
0 $1 Rounding radius*
0 $2 $3 $4 $5 $6 $7 $8 $9 X,Y pos of 4 corners*
0 Add a 4 corners polygon primitive as box body*
4,1,4,$2,$3,$4,$5,$6,$7,$8,$9,$2,$3,0*
0 Add four circle primitives for the rounded corners*
1,1,$1+$1,$2,$3*
1,1,$1+$1,$4,$5*
1,1,$1+$1,$6,$7*
1,1,$1+$1,$8,$9*
0 Add four rect primitives between the rounded corners*
20,1,$1+$1,$2,$3,$4,$5,0*
20,1,$1+$1,$4,$5,$6,$7,0*
20,1,$1+$1,$6,$7,$8,$9,0*
20,1,$1+$1,$8,$9,$2,$3,0*%
G04 Aperture macros list end*
%ADD10RoundRect,0.101600X1.000000X0.700000X-1.000000X0.700000X-1.000000X-0.700000X1.000000X-0.700000X0*%
%ADD11RoundRect,0.250000X-0.650000X0.325000X-0.650000X-0.325000X0.650000X-0.325000X0.650000X0.325000X0*%
%ADD12R,1.700000X1.700000*%
%ADD13O,1.700000X1.700000*%
%ADD14RoundRect,0.250000X0.650000X-0.325000X0.650000X0.325000X-0.650000X0.325000X-0.650000X-0.325000X0*%
%ADD15RoundRect,0.125000X-0.625000X-0.125000X0.625000X-0.125000X0.625000X0.125000X-0.625000X0.125000X0*%
%ADD16RoundRect,0.125000X-0.125000X-0.625000X0.125000X-0.625000X0.125000X0.625000X-0.125000X0.625000X0*%
%ADD17RoundRect,0.250000X-0.312500X-0.625000X0.312500X-0.625000X0.312500X0.625000X-0.312500X0.625000X0*%
%ADD18RoundRect,0.250000X-0.325000X-0.650000X0.325000X-0.650000X0.325000X0.650000X-0.325000X0.650000X0*%
%ADD19R,1.150000X1.550000*%
%ADD20RoundRect,0.150000X-0.587500X-0.150000X0.587500X-0.150000X0.587500X0.150000X-0.587500X0.150000X0*%
%ADD21RoundRect,0.250000X0.325000X0.650000X-0.325000X0.650000X-0.325000X-0.650000X0.325000X-0.650000X0*%
%ADD22C,1.000000*%
%ADD23R,2.000000X0.500000*%
%ADD24R,1.700000X2.000000*%
%ADD25RoundRect,0.150000X-0.150000X0.825000X-0.150000X-0.825000X0.150000X-0.825000X0.150000X0.825000X0*%
%ADD26RoundRect,0.250000X0.312500X0.625000X-0.312500X0.625000X-0.312500X-0.625000X0.312500X-0.625000X0*%
%ADD27RoundRect,0.150000X0.150000X-0.825000X0.150000X0.825000X-0.150000X0.825000X-0.150000X-0.825000X0*%
%ADD28R,2.200000X2.200000*%
%ADD29C,2.200000*%
%ADD30RoundRect,0.250000X0.375000X0.625000X-0.375000X0.625000X-0.375000X-0.625000X0.375000X-0.625000X0*%
%ADD31R,2.000000X4.500000*%
%ADD32RoundRect,0.250000X-0.625000X0.312500X-0.625000X-0.312500X0.625000X-0.312500X0.625000X0.312500X0*%
%ADD33RoundRect,0.250000X0.625000X-0.312500X0.625000X0.312500X-0.625000X0.312500X-0.625000X-0.312500X0*%
%ADD34RoundRect,0.150000X0.587500X0.150000X-0.587500X0.150000X-0.587500X-0.150000X0.587500X-0.150000X0*%
%ADD35RoundRect,0.250000X-0.375000X-0.625000X0.375000X-0.625000X0.375000X0.625000X-0.375000X0.625000X0*%
%ADD36RoundRect,0.375000X-0.625000X-0.375000X0.625000X-0.375000X0.625000X0.375000X-0.625000X0.375000X0*%
%ADD37RoundRect,0.500000X-0.500000X-1.400000X0.500000X-1.400000X0.500000X1.400000X-0.500000X1.400000X0*%
%ADD38RoundRect,0.150000X0.825000X0.150000X-0.825000X0.150000X-0.825000X-0.150000X0.825000X-0.150000X0*%
G04 APERTURE END LIST*
D10*
X50388400Y-73229600D03*
X43388400Y-73229600D03*
X50388400Y-70229600D03*
X43388400Y-70229600D03*
X39441000Y-73255000D03*
X32441000Y-73255000D03*
X39441000Y-70255000D03*
X32441000Y-70255000D03*
D11*
X62082000Y-45907999D03*
X62082000Y-48858001D03*
D12*
X39878000Y-58463000D03*
D13*
X39878000Y-55923000D03*
X39878000Y-53383000D03*
X39878000Y-50843000D03*
X39878000Y-48303000D03*
D14*
X85267000Y-61858001D03*
X85267000Y-58907999D03*
D12*
X78267000Y-33985200D03*
D13*
X75727000Y-33985200D03*
X73187001Y-33985200D03*
X70647000Y-33985200D03*
X68107000Y-33985200D03*
X65567000Y-33985200D03*
X63027000Y-33985200D03*
X60486999Y-33985200D03*
X57947000Y-33985200D03*
X55407000Y-33985200D03*
D15*
X62657000Y-51083000D03*
X62657000Y-51883000D03*
X62657000Y-52683000D03*
X62657000Y-53483000D03*
X62657000Y-54283000D03*
X62657000Y-55083000D03*
X62657000Y-55883000D03*
X62657000Y-56683000D03*
D16*
X64032000Y-58058000D03*
X64832000Y-58058000D03*
X65632000Y-58058000D03*
X66432000Y-58058000D03*
X67232000Y-58058000D03*
X68032000Y-58058000D03*
X68832000Y-58058000D03*
X69632000Y-58058000D03*
D15*
X71007000Y-56683000D03*
X71007000Y-55883000D03*
X71007000Y-55083000D03*
X71007000Y-54283000D03*
X71007000Y-53483000D03*
X71007000Y-52683000D03*
X71007000Y-51883000D03*
X71007000Y-51083000D03*
D16*
X69632000Y-49708000D03*
X68832000Y-49708000D03*
X68032000Y-49708000D03*
X67232000Y-49708000D03*
X66432000Y-49708000D03*
X65632000Y-49708000D03*
X64832000Y-49708000D03*
X64032000Y-49708000D03*
D17*
X79554500Y-48633000D03*
X82479500Y-48633000D03*
D18*
X85265999Y-43434000D03*
X88216001Y-43434000D03*
D19*
X74442000Y-70008000D03*
X78092000Y-70008000D03*
X78092000Y-67758000D03*
X74442000Y-67758000D03*
D20*
X80517000Y-67593000D03*
X80517000Y-69493000D03*
X82392001Y-68543000D03*
D12*
X89227000Y-73593000D03*
D13*
X91767000Y-73593000D03*
D17*
X71181500Y-39918000D03*
X74106500Y-39918000D03*
D21*
X82492001Y-56133000D03*
X79541999Y-56133000D03*
D22*
X89592000Y-53783000D03*
X89592000Y-49383000D03*
D23*
X86892000Y-53183000D03*
X86892000Y-52383000D03*
X86892000Y-51583000D03*
X86892000Y-50783000D03*
X86892000Y-49983000D03*
D24*
X86992000Y-56033000D03*
X92442000Y-56033000D03*
X86992000Y-47133000D03*
X92442000Y-47133000D03*
D12*
X33807000Y-34133000D03*
D13*
X31267000Y-34133000D03*
D11*
X59517000Y-45907999D03*
X59517000Y-48858001D03*
D18*
X48464200Y-66009000D03*
X51414200Y-66009000D03*
D17*
X71181500Y-42418000D03*
X74106500Y-42418000D03*
D25*
X82422000Y-58908000D03*
X81152000Y-58908000D03*
X79882000Y-58908000D03*
X78612000Y-58908000D03*
X78612000Y-63858000D03*
X79882000Y-63858000D03*
X81152000Y-63858000D03*
X82422000Y-63858000D03*
D11*
X55880000Y-48407999D03*
X55880000Y-51358001D03*
D26*
X46401700Y-66009000D03*
X43476700Y-66009000D03*
D14*
X74267000Y-61858001D03*
X74267000Y-58907999D03*
D27*
X63112000Y-67108000D03*
X64382000Y-67108000D03*
X65652000Y-67108000D03*
X66922000Y-67108000D03*
X66922000Y-62158000D03*
X65652000Y-62158000D03*
X64382000Y-62158000D03*
X63112000Y-62158000D03*
D14*
X48017000Y-44858001D03*
X48017000Y-41907999D03*
D28*
X90017000Y-69633000D03*
D29*
X90017000Y-67093000D03*
D30*
X82933999Y-40513000D03*
X80134001Y-40513000D03*
D14*
X55880000Y-56108001D03*
X55880000Y-53157999D03*
D31*
X51767000Y-48383000D03*
X51767000Y-56883000D03*
D26*
X34336700Y-66009000D03*
X31411700Y-66009000D03*
D32*
X38267000Y-37170500D03*
X38267000Y-40095500D03*
D14*
X45517000Y-44858001D03*
X45517000Y-41907999D03*
D33*
X84767000Y-70055500D03*
X84767000Y-67130500D03*
D34*
X42954500Y-39333000D03*
X42954500Y-37433000D03*
X41079499Y-38383000D03*
D14*
X60517000Y-65108001D03*
X60517000Y-62157999D03*
D35*
X66244000Y-39918000D03*
X69044000Y-39918000D03*
D36*
X85623000Y-35800000D03*
X85623001Y-38100000D03*
D37*
X91922999Y-38100000D03*
D36*
X85623000Y-40400000D03*
D14*
X71753573Y-61858001D03*
X71753573Y-58907999D03*
D18*
X36399200Y-66009000D03*
X39349200Y-66009000D03*
D12*
X55407000Y-73761600D03*
D13*
X57947000Y-73761600D03*
X60486999Y-73761600D03*
X63027000Y-73761600D03*
X65567000Y-73761600D03*
X68107000Y-73761600D03*
X70647000Y-73761600D03*
X73187001Y-73761600D03*
X75727000Y-73761600D03*
X78267000Y-73761600D03*
D35*
X66244001Y-42418000D03*
X69043999Y-42418000D03*
D28*
X33017000Y-38093000D03*
D29*
X33017000Y-40633000D03*
D26*
X82479500Y-53633000D03*
X79554500Y-53633000D03*
X82479500Y-51133000D03*
X79554500Y-51133000D03*
D38*
X50492000Y-39538000D03*
X50492000Y-38268000D03*
X50492000Y-36998000D03*
X50492000Y-35728000D03*
X45542000Y-35728000D03*
X45542000Y-36998000D03*
X45542000Y-38268000D03*
X45542000Y-39538000D03*
D14*
X82169000Y-38051001D03*
X82169000Y-35100999D03*
M02*
