M48
; DRILL file {KiCad 8.0.2} date 2024-05-12T15:56:18+0200
; FORMAT={-:-/ absolute / metric / decimal}
; #@! TF.CreationDate,2024-05-12T15:56:18+02:00
; #@! TF.GenerationSoftware,Kicad,Pcbnew,8.0.2
; #@! TF.FileFunction,Plated,1,2,PTH
FMAT,2
METRIC
; #@! TA.AperFunction,Plated,PTH,ViaDrill
T1C0.300
; #@! TA.AperFunction,Plated,PTH,ComponentDrill
T2C1.000
; #@! TA.AperFunction,Plated,PTH,ComponentDrill
T3C1.100
%
G90
G05
T1
X35.941Y-73.279
X36.576Y-67.564
X38.125Y-65.989
X41.173Y-54.839
X42.267Y-38.383
X45.567Y-43.633
X46.863Y-73.279
X47.067Y-35.783
X47.967Y-43.633
X48.641Y-68.199
X50.063Y-66.015
X55.88Y-49.53
X55.88Y-54.923
X59.517Y-47.133
X59.815Y-57.279
X60.441Y-56.781
X60.467Y-63.883
X61.04Y-57.329
X62.017Y-47.133
X62.89Y-58.039
X64.389Y-54.889
X64.389Y-56.523
X65.012Y-50.956
X65.652Y-59.588
X66.091Y-56.523
X66.989Y-60.359
X67.212Y-52.723
X67.644Y-39.918
X67.644Y-42.418
X67.793Y-67.107
X67.812Y-52.019
X67.945Y-48.133
X68.809Y-48.158
X68.809Y-55.042
X69.012Y-51.883
X69.418Y-54.331
X69.517Y-56.633
X69.672Y-51.083
X71.767Y-60.383
X73.076Y-54.305
X73.204Y-50.163
X73.609Y-55.88
X74.004Y-50.168
X74.168Y-44.069
X74.267Y-60.383
X74.27Y-55.067
X74.803Y-50.14
X78.612Y-62.288
X79.883Y-38.481
X81.026Y-42.545
X81.152Y-60.268
X81.342Y-68.558
X81.407Y-56.133
X82.169Y-33.782
X84.734Y-53.188
X85.039Y-49.987
X85.267Y-60.633
X85.598Y-33.782
X87.63Y-35.814
X89.535Y-43.434
X92.442Y-45.226
X92.442Y-58.025
T2
X31.267Y-34.133
X33.807Y-34.133
X39.878Y-48.303
X39.878Y-50.843
X39.878Y-53.383
X39.878Y-55.923
X39.878Y-58.463
X55.407Y-33.985
X55.407Y-73.762
X57.947Y-33.985
X57.947Y-73.762
X60.487Y-33.985
X60.487Y-73.762
X63.027Y-33.985
X63.027Y-73.762
X65.567Y-33.985
X65.567Y-73.762
X68.107Y-33.985
X68.107Y-73.762
X70.647Y-33.985
X70.647Y-73.762
X73.187Y-33.985
X73.187Y-73.762
X75.727Y-33.985
X75.727Y-73.762
X78.267Y-33.985
X78.267Y-73.762
X89.227Y-73.593
X91.767Y-73.593
T3
X33.017Y-38.093
X33.017Y-40.633
X90.017Y-67.093
X90.017Y-69.633
M30
